<svg width="1312" height="236" viewBox="0 0 1312 236" fill="none" xmlns="http://www.w3.org/2000/svg">
<path d="M1237.87 107.326C1253.42 110.851 1279.34 119.35 1292.6 131.996C1295.71 134.898 1297.58 139.252 1297.58 143.813C1297.58 148.788 1295.71 151.69 1292.81 151.69C1290.12 151.69 1288.04 149.617 1283.48 144.849C1268.56 129.094 1253.01 119.35 1237.67 111.887C1237.46 130.752 1237.25 150.032 1237.25 168.897C1237.25 173.25 1237.87 192.323 1237.87 196.054C1237.87 206.005 1237.87 214.92 1231.65 214.92C1224.61 214.92 1222.95 201.652 1222.95 199.371C1222.95 198.957 1224.61 188.591 1224.81 187.348C1226.47 176.153 1227.92 100.485 1227.92 92.6074C1227.92 86.1808 1227.92 64.828 1226.47 59.6453C1225.02 54.2553 1219.42 52.1822 1209.47 49.2799C1216.73 44.7191 1222.53 44.5118 1222.95 44.5118C1226.06 44.5118 1243.68 48.4506 1243.68 55.4991C1243.68 56.5357 1241.61 62.7549 1240.57 66.2792C1238.29 73.3277 1238.08 98.2047 1237.87 107.326Z" fill="white"/>
<path d="M1021.44 203.725L1020.41 202.274C1033.05 191.494 1042.59 177.604 1049.43 162.678C1059.8 139.666 1060.21 120.179 1060.21 103.18C1060.21 85.5589 1060.21 84.1077 1045.49 80.7908C1047.56 78.7177 1050.88 75.6081 1055.86 75.6081C1062.28 75.6081 1073.89 80.9981 1073.89 85.5589C1073.89 86.8027 1072.44 92.1928 1072.23 93.4366C1072.03 96.5462 1071.82 110.436 1071.61 113.131C1070.37 133.24 1067.47 157.288 1050.26 180.092C1044.04 188.384 1034.5 198.335 1021.44 203.725ZM1187.71 104.839L1189.16 106.082C1178.17 134.898 1154.95 157.288 1131.32 176.153C1129.04 178.019 1117.84 185.482 1116.18 187.555C1111 194.396 1110.38 195.225 1108.31 195.225C1104.37 195.225 1096.49 180.299 1096.49 178.226C1096.49 176.982 1098.36 171.177 1098.56 170.141C1100.01 162.678 1100.22 151.483 1100.22 123.704C1100.22 114.997 1100.22 83.2785 1099.18 76.23C1098.56 71.6692 1097.53 68.9742 1085.29 63.9988C1087.37 62.7549 1090.89 60.2672 1095.04 60.2672C1100.43 60.2672 1109.14 65.4499 1113.07 68.9742C1114.11 69.8034 1115.15 71.2546 1115.15 73.1203C1115.15 74.3642 1113.49 79.3396 1113.28 80.3762C1112.45 83.2785 1111.42 89.2904 1111 95.717C1110.38 109.399 1109.96 154.8 1109.96 169.934C1109.96 173.043 1109.96 173.458 1110.59 173.458C1113.07 173.458 1151.22 154.8 1187.71 104.839Z" fill="white"/>
<path d="M922.765 214.09L921.521 212.639C944.947 186.104 955.727 144.02 955.727 134.276C955.727 131.374 955.105 128.886 944.74 124.326C946.813 122.874 948.678 121.838 953.032 121.838C959.458 121.838 968.373 127.435 967.958 132.411C980.189 122.874 994.079 109.399 998.847 102.765C984.957 102.765 942.874 107.326 924.423 111.265C922.35 111.68 914.058 114.997 912.192 114.997C908.046 114.997 899.546 105.253 899.546 99.4485C899.546 95.9243 900.376 93.4366 900.997 91.5708C905.144 100.485 909.082 102.973 914.265 102.973C915.509 102.973 987.238 97.1681 994.079 95.3024C997.396 94.4731 998.225 94.0585 1000.71 93.022C1002.79 91.9854 1003.82 91.7781 1004.44 91.7781C1005.9 91.7781 1006.52 91.9854 1009.83 96.5462C1014.19 102.144 1016.88 105.875 1016.88 108.57C1016.88 111.265 1015.22 111.472 1010.46 111.68C1006.72 111.68 1006.1 112.094 1004.24 113.338C988.689 124.118 970.86 135.728 965.678 138.215C963.397 150.446 959.458 162.263 954.69 174.08C949.715 186.311 940.801 202.688 922.765 214.09Z" fill="white"/>
<path d="M771.015 207.456L770.808 205.798C806.672 189.835 850.414 144.435 863.475 80.1688C845.024 80.7908 783.039 89.4977 773.917 91.9854C769.978 93.022 769.356 93.4366 766.247 95.5097C766.039 95.717 765.003 96.3389 763.966 96.3389C759.198 96.3389 748.833 84.315 748.833 74.5715C748.833 72.4984 749.662 71.0473 750.077 70.0107C756.711 80.1688 763.344 81.4127 768.734 81.4127C770.393 81.4127 852.28 73.9496 857.255 73.1203C862.438 72.0838 864.304 71.0473 866.377 68.9742C867.828 67.7303 868.243 67.523 869.072 67.523C871.352 67.523 885.449 79.7542 885.449 82.6565C885.449 83.6931 884.827 84.315 880.474 86.3881C875.498 88.6685 874.462 90.1196 872.389 96.3389C871.145 100.485 860.78 134.069 836.524 164.958C820.147 186.104 797.136 201.237 771.015 207.456Z" fill="white"/>
<path d="M586.717 200.201L586.303 198.542C632.325 179.262 680.421 126.399 699.493 73.7423C693.067 74.9861 665.287 79.7542 659.69 80.9981C651.398 83.0712 642.691 85.3516 635.85 89.0831C632.947 90.7416 632.118 91.1562 630.874 91.1562C628.179 91.1562 624.655 86.1808 622.167 82.6565C620.094 79.7542 618.436 76.6446 618.436 72.7057C618.436 69.8034 619.472 66.4865 620.301 63.5841C621.338 65.4499 622.167 67.523 624.655 70.4253C628.179 74.5715 630.045 75.8154 634.813 75.8154C643.935 75.8154 686.018 70.0107 692.238 67.523C694.725 66.4865 695.762 65.8645 700.53 62.7549C702.188 61.5111 702.81 61.511 703.432 61.511C705.505 61.511 719.602 72.2911 719.602 75.608C719.602 78.0958 718.358 78.5104 711.725 80.5835C710.688 80.7908 710.066 82.2419 709.444 83.4858C697.835 109.192 686.433 124.948 680.214 133.24C707.371 146.3 741.162 169.104 741.162 189.628C741.162 191.079 741.162 197.713 734.943 197.713C731.833 197.713 730.382 195.64 728.931 193.152C715.249 170.555 701.359 152.105 677.726 136.557C664.873 152.934 634.606 190.042 586.717 200.201Z" fill="white"/>
<path d="M483.063 215.127L482.234 213.883C514.367 179.884 526.391 125.777 526.391 111.473C526.391 104.631 516.647 101.107 513.33 99.6559C517.269 97.9974 519.757 96.9609 522.659 96.9609C530.537 96.9609 541.524 103.18 541.524 107.326C541.524 108.57 540.488 111.68 540.073 113.131C559.767 99.6559 581.327 75.6081 581.327 73.7423C581.327 72.4985 580.084 72.2912 577.388 72.2912C554.377 72.2912 489.697 81.62 489.075 81.8274C482.856 83.0712 479.953 84.3151 475.6 86.5955C473.734 87.4247 472.698 87.632 471.868 87.632C469.795 87.632 467.515 85.9735 464.405 83.0712C457.357 76.6446 455.698 73.1204 455.698 68.145C455.698 65.45 456.113 62.7549 456.942 58.6088C464.198 72.0838 472.076 72.7058 477.466 72.7058C492.185 72.7058 572.62 65.0353 578.218 63.9988C581.327 63.3769 584.23 61.9257 585.266 61.5111C587.547 60.0599 587.754 59.8526 588.583 59.8526C590.449 59.8526 595.632 65.8646 597.705 68.3523C600.192 71.2546 605.168 76.8519 605.168 79.1323C605.168 82.242 603.095 82.4493 596.046 82.8639C592.522 83.0712 590.449 84.5224 581.12 91.1562C563.913 103.595 556.865 108.57 550.646 112.509C546.5 114.997 541.524 117.484 538.414 118.728C537.171 122.667 532.61 140.081 531.573 143.605C528.256 156.251 519.757 180.092 501.514 199.786C493.428 208.493 486.38 213.054 483.063 215.127Z" fill="white"/>
<path d="M388.035 205.566L387.69 203.672C439.17 185.938 441.58 148.922 441.58 139.969C441.58 109.839 413 93.6545 387.69 93.6545C384.075 93.6545 383.042 93.9988 381.32 94.5153C389.757 101.574 389.757 106.74 389.757 107.6C389.757 109.666 389.24 110.355 385.624 117.931C364.62 162.007 362.726 166.311 352.912 180.946C352.051 182.151 346.541 190.243 343.098 191.62C342.065 192.137 340.86 192.309 339.827 192.309C335.867 192.309 334.662 190.415 329.841 183.528C328.636 181.806 327.603 180.945 325.192 178.879C318.478 173.37 316.239 167.344 316.239 155.636C316.239 121.03 345.336 88.4893 389.412 88.4893C420.92 88.4893 452.083 106.395 452.083 142.035C452.083 173.542 426.773 201.778 388.035 205.566ZM353.428 164.761L368.235 136.697C373.4 127.056 378.393 113.626 378.393 106.74C378.393 100.886 374.95 97.2701 373.572 95.7205C354.289 97.2701 325.192 122.751 325.192 156.497C325.192 169.582 333.456 181.118 340.171 181.118C341.204 181.118 342.409 180.945 343.442 179.912C347.23 176.125 350.329 170.443 353.428 164.761Z" fill="white"/>
<path d="M307.56 62.5476C307.56 64.828 303.414 67.1084 299.061 69.8034C298.232 94.6805 298.853 167.446 299.683 195.018C299.683 197.298 300.512 206.834 300.512 208.908C300.512 216.371 294.293 217.615 291.805 217.615C287.037 217.615 287.037 214.09 287.037 212.432C287.037 211.81 287.451 204.347 287.451 203.31H205.15C205.357 208.908 205.357 210.981 204.735 212.639C204.321 213.676 201.626 218.029 196.65 218.029C192.504 218.029 191.468 215.127 191.468 212.639C191.468 210.566 192.297 201.859 192.504 199.993C193.748 182.165 194.163 130.13 194.163 116.033C194.163 61.0965 193.333 56.743 190.638 48.036L208.26 57.5722H283.927L289.939 52.1822C290.354 51.7676 292.22 49.9018 293.878 49.9018C294.707 49.9018 295.329 50.3164 297.195 51.7676L305.073 58.6087C306.939 60.0599 307.56 61.3038 307.56 62.5476ZM287.659 125.569V62.5476H205.15V125.569H287.659ZM287.659 198.335V130.545H205.15V198.335H287.659Z" fill="white"/>
<path d="M182.346 50.5237C182.346 52.3895 177.163 55.2918 173.639 57.3649V122.874C173.639 134.069 174.468 184.031 174.468 194.189C174.468 209.322 173.846 218.651 150.006 223.005C148.762 219.48 145.652 210.981 128.238 204.969V203.725C136.531 204.554 145.652 205.176 150.835 205.176C162.03 205.176 162.03 204.347 162.03 192.945C162.03 185.482 161.822 152.727 162.03 146.093H108.129C97.764 202.688 52.778 218.444 41.5833 222.383L40.9614 220.724C56.9242 213.468 71.6431 197.92 79.3135 187.14C94.8617 165.787 100.459 145.886 100.459 93.022C100.459 81.2054 100.044 46.7921 97.5567 38.2925L113.519 46.5848H159.749L164.932 40.7802C166.176 39.5363 166.591 38.7071 167.627 38.7071C168.664 38.7071 170.115 39.7436 171.151 40.5729L180.687 47.8287C181.724 48.6579 182.346 49.0725 182.346 50.5237ZM162.03 94.2658V51.5602H111.239V94.2658H162.03ZM162.03 141.118V99.2412H111.239C110.203 127.85 109.995 134.898 108.959 141.118H162.03ZM83.4597 52.1822C83.4597 54.0479 81.8012 54.8772 75.582 57.5722V146.3C75.582 148.788 76.4112 157.702 76.4112 161.434C76.4112 167.86 70.1919 169.104 68.5335 169.104C63.9727 169.104 63.9727 165.58 63.9727 164.129C63.9727 162.47 64.18 155.215 64.18 153.763H25.2059C25.2059 156.873 25.2059 171.799 24.9986 173.043C24.1694 178.848 18.1574 179.055 17.1209 179.055C11.5236 179.055 11.5236 175.324 11.5236 172.629C11.5236 171.177 11.7309 169.934 12.5601 159.361C14.2186 138.008 14.2186 95.717 14.2186 73.1203C14.2186 61.7184 14.2186 51.5602 11.9382 39.329L26.2425 47.8287H62.7288L66.2531 43.0606C67.0823 42.024 67.7042 41.1948 68.7408 41.1948C69.7773 41.1948 70.6065 41.8167 71.6431 42.646L79.5208 48.036C82.4232 50.1091 83.4597 50.9383 83.4597 52.1822ZM64.18 97.1682V52.8041H25.2059V97.1682H64.18ZM64.18 148.788V102.144H25.2059V148.788H64.18Z" fill="white"/>
<path d="M964.423 26.2012V13.5976H958.112V12H972.313V13.5976H966.021V26.2012H964.423Z" fill="white"/>
<path d="M937.081 26.2012C936.647 26.2012 936.246 26.096 935.878 25.8856C935.523 25.6752 935.24 25.3925 935.03 25.0375C934.819 24.6693 934.714 24.2682 934.714 23.8343V14.3669C934.714 13.9329 934.819 13.5385 935.03 13.1834C935.24 12.8153 935.523 12.526 935.878 12.3156C936.246 12.1052 936.647 12 937.081 12H948.876V13.5976H937.081C936.871 13.5976 936.686 13.6765 936.529 13.8343C936.384 13.979 936.312 14.1565 936.312 14.3669V23.8343C936.312 24.0447 936.384 24.2288 936.529 24.3866C936.686 24.5312 936.871 24.6035 937.081 24.6035H948.876V26.2012H937.081Z" fill="white"/>
<path d="M911.763 26.2012V12H924.721V13.5976H913.361V18.2919H922.493V19.9093H913.361V24.6035H924.721V26.2012H911.763Z" fill="white"/>
<path d="M889.785 26.2012C889.351 26.2012 888.95 26.096 888.582 25.8856C888.227 25.6752 887.944 25.3925 887.734 25.0375C887.523 24.6693 887.418 24.2682 887.418 23.8343V22.71H889.016V23.8343C889.016 24.0447 889.088 24.2288 889.233 24.3866C889.391 24.5312 889.575 24.6035 889.785 24.6035H899.253C899.463 24.6035 899.641 24.5312 899.785 24.3866C899.943 24.2288 900.022 24.0447 900.022 23.8343V12H901.619V23.8343C901.619 24.2682 901.514 24.6693 901.304 25.0375C901.094 25.3925 900.804 25.6752 900.436 25.8856C900.081 26.096 899.687 26.2012 899.253 26.2012H889.785Z" fill="white"/>
<path d="M866.548 26.2012C866.114 26.2012 865.713 26.096 865.345 25.8856C864.99 25.6752 864.707 25.3925 864.497 25.0375C864.286 24.6693 864.181 24.2682 864.181 23.8343V14.3669C864.181 13.9329 864.286 13.5385 864.497 13.1834C864.707 12.8153 864.99 12.526 865.345 12.3156C865.713 12.1052 866.114 12 866.548 12H876.016C876.449 12 876.844 12.1052 877.199 12.3156C877.567 12.526 877.856 12.8153 878.067 13.1834C878.277 13.5385 878.382 13.9329 878.382 14.3669V23.8343C878.382 24.2682 878.277 24.6693 878.067 25.0375C877.856 25.3925 877.567 25.6752 877.199 25.8856C876.844 26.096 876.449 26.2012 876.016 26.2012H866.548ZM866.548 24.6035H876.016C876.226 24.6035 876.403 24.5312 876.548 24.3866C876.706 24.2288 876.785 24.0447 876.785 23.8343V14.3669C876.785 14.1565 876.706 13.979 876.548 13.8343C876.403 13.6765 876.226 13.5976 876.016 13.5976H866.548C866.338 13.5976 866.154 13.6765 865.996 13.8343C865.851 13.979 865.779 14.1565 865.779 14.3669V23.8343C865.779 24.0447 865.851 24.2288 865.996 24.3866C866.154 24.5312 866.338 24.6035 866.548 24.6035Z" fill="white"/>
<path d="M852.047 26.2012L847.412 20.6785H849.503L854.158 26.1814V26.2012H852.047ZM840.055 26.2012V12.0197H851.889C852.323 12.0197 852.718 12.1315 853.073 12.355C853.441 12.5654 853.73 12.8481 853.941 13.2031C854.151 13.5582 854.256 13.9527 854.256 14.3866V18.5483C854.256 18.9822 854.151 19.3767 853.941 19.7317C853.73 20.0868 853.441 20.376 853.073 20.5996C852.718 20.81 852.323 20.9152 851.889 20.9152H841.653V26.2012H840.055ZM842.422 19.2978H851.889C852.1 19.2978 852.277 19.2255 852.422 19.0808C852.58 18.9362 852.659 18.7587 852.659 18.5483V14.3866C852.659 14.1762 852.58 13.9987 852.422 13.854C852.277 13.6962 852.1 13.6173 851.889 13.6173H842.422C842.212 13.6173 842.028 13.6962 841.87 13.854C841.725 13.9987 841.653 14.1762 841.653 14.3866V18.5483C841.653 18.7587 841.725 18.9362 841.87 19.0808C842.028 19.2255 842.212 19.2978 842.422 19.2978Z" fill="white"/>
<path d="M816.564 26.2012V12.0197H828.398C828.832 12.0197 829.226 12.1315 829.581 12.355C829.95 12.5654 830.239 12.8481 830.449 13.2031C830.66 13.5582 830.765 13.9527 830.765 14.3866V18.5483C830.765 18.9822 830.66 19.3767 830.449 19.7317C830.239 20.0868 829.95 20.376 829.581 20.5996C829.226 20.81 828.832 20.9152 828.398 20.9152H818.161V26.2012H816.564ZM818.931 19.2978H828.398C828.608 19.2978 828.786 19.2255 828.931 19.0808C829.088 18.9362 829.167 18.7587 829.167 18.5483V14.3866C829.167 14.1762 829.088 13.9987 828.931 13.854C828.786 13.6962 828.608 13.6173 828.398 13.6173H818.931C818.72 13.6173 818.536 13.6962 818.378 13.854C818.234 13.9987 818.161 14.1762 818.161 14.3866V18.5483C818.161 18.7587 818.234 18.9362 818.378 19.0808C818.536 19.2255 818.72 19.2978 818.931 19.2978Z" fill="white"/>
<path d="M781.405 26.2012C780.971 26.2012 780.57 26.096 780.202 25.8856C779.847 25.6752 779.564 25.3925 779.354 25.0375C779.144 24.6693 779.038 24.2682 779.038 23.8343V14.3669C779.038 13.9329 779.144 13.5385 779.354 13.1834C779.564 12.8153 779.847 12.526 780.202 12.3156C780.57 12.1052 780.971 12 781.405 12H790.873C791.307 12 791.701 12.1052 792.056 12.3156C792.424 12.526 792.714 12.8153 792.924 13.1834C793.134 13.5385 793.24 13.9329 793.24 14.3669V14.9389H791.642V14.3669C791.642 14.1565 791.563 13.979 791.405 13.8343C791.261 13.6765 791.083 13.5976 790.873 13.5976H781.405C781.195 13.5976 781.011 13.6765 780.853 13.8343C780.708 13.979 780.636 14.1565 780.636 14.3669V23.8343C780.636 24.0447 780.708 24.2288 780.853 24.3866C781.011 24.5312 781.195 24.6035 781.405 24.6035H790.873C791.083 24.6035 791.261 24.5312 791.405 24.3866C791.563 24.2288 791.642 24.0447 791.642 23.8343V20.3235H788.131V18.7061H793.24V23.8343C793.24 24.2682 793.134 24.6693 792.924 25.0375C792.714 25.3925 792.424 25.6752 792.056 25.8856C791.701 26.096 791.307 26.2012 790.873 26.2012H781.405Z" fill="white"/>
<path d="M754.738 26.2012V12H756.927L767.341 24.3866V12H768.939V26.2012H766.75L756.336 13.8146V26.2012H754.738Z" fill="white"/>
<path d="M742.827 26.2012V12H744.445V26.2012H742.827Z" fill="white"/>
<path d="M719.139 26.2012V12.0197H730.973C731.407 12.0197 731.801 12.1315 732.156 12.355C732.525 12.5654 732.814 12.8481 733.024 13.2031C733.235 13.5582 733.34 13.9527 733.34 14.3866V18.5483C733.34 18.9822 733.235 19.3767 733.024 19.7317C732.814 20.0868 732.525 20.376 732.156 20.5996C731.801 20.81 731.407 20.9152 730.973 20.9152H720.736V26.2012H719.139ZM721.506 19.2978H730.973C731.183 19.2978 731.361 19.2255 731.506 19.0808C731.663 18.9362 731.742 18.7587 731.742 18.5483V14.3866C731.742 14.1762 731.663 13.9987 731.506 13.854C731.361 13.6962 731.183 13.6173 730.973 13.6173H721.506C721.295 13.6173 721.111 13.6962 720.953 13.854C720.809 13.9987 720.736 14.1762 720.736 14.3866V18.5483C720.736 18.7587 720.809 18.9362 720.953 19.0808C721.111 19.2255 721.295 19.2978 721.506 19.2978Z" fill="white"/>
<path d="M701.414 26.2012V20.856L694.885 12H696.719L702.222 18.9428L707.666 12H709.54L703.011 20.856V26.2012H701.414Z" fill="white"/>
<path d="M678.104 26.2012V13.5976H671.793V12H685.994V13.5976H679.702V26.2012H678.104Z" fill="white"/>
<path d="M650.607 26.2012C650.173 26.2012 649.772 26.096 649.404 25.8856C649.049 25.6752 648.766 25.3925 648.555 25.0375C648.345 24.6693 648.24 24.2682 648.24 23.8343V14.3669C648.24 13.9329 648.345 13.5385 648.555 13.1834C648.766 12.8153 649.049 12.526 649.404 12.3156C649.772 12.1052 650.173 12 650.607 12H660.074C660.508 12 660.903 12.1052 661.258 12.3156C661.626 12.526 661.915 12.8153 662.125 13.1834C662.336 13.5385 662.441 13.9329 662.441 14.3669V23.8343C662.441 24.2682 662.336 24.6693 662.125 25.0375C661.915 25.3925 661.626 25.6752 661.258 25.8856C660.903 26.096 660.508 26.2012 660.074 26.2012H650.607ZM650.607 24.6035H660.074C660.285 24.6035 660.462 24.5312 660.607 24.3866C660.765 24.2288 660.843 24.0447 660.843 23.8343V14.3669C660.843 14.1565 660.765 13.979 660.607 13.8343C660.462 13.6765 660.285 13.5976 660.074 13.5976H650.607C650.396 13.5976 650.212 13.6765 650.054 13.8343C649.91 13.979 649.837 14.1565 649.837 14.3669V23.8343C649.837 24.0447 649.91 24.2288 650.054 24.3866C650.212 24.5312 650.396 24.6035 650.607 24.6035Z" fill="white"/>
<path d="M631.025 26.2012V13.5976H624.714V12H638.915V13.5976H632.623V26.2012H631.025Z" fill="white"/>
<path d="M603.528 26.2012C603.094 26.2012 602.693 26.096 602.324 25.8856C601.969 25.6752 601.687 25.3925 601.476 25.0375C601.266 24.6693 601.161 24.2682 601.161 23.8343V14.3669C601.161 13.9329 601.266 13.5385 601.476 13.1834C601.687 12.8153 601.969 12.526 602.324 12.3156C602.693 12.1052 603.094 12 603.528 12H612.995C613.429 12 613.823 12.1052 614.178 12.3156C614.547 12.526 614.836 12.8153 615.046 13.1834C615.257 13.5385 615.362 13.9329 615.362 14.3669V23.8343C615.362 24.2682 615.257 24.6693 615.046 25.0375C614.836 25.3925 614.547 25.6752 614.178 25.8856C613.823 26.096 613.429 26.2012 612.995 26.2012H603.528ZM603.528 24.6035H612.995C613.205 24.6035 613.383 24.5312 613.528 24.3866C613.685 24.2288 613.764 24.0447 613.764 23.8343V14.3669C613.764 14.1565 613.685 13.979 613.528 13.8343C613.383 13.6765 613.205 13.5976 612.995 13.5976H603.528C603.317 13.5976 603.133 13.6765 602.975 13.8343C602.831 13.979 602.758 14.1565 602.758 14.3669V23.8343C602.758 24.0447 602.831 24.2288 602.975 24.3866C603.133 24.5312 603.317 24.6035 603.528 24.6035Z" fill="white"/>
<path d="M589.027 26.2012L584.392 20.6785H586.482L591.137 26.1814V26.2012H589.027ZM577.035 26.2012V12.0197H588.869C589.303 12.0197 589.697 12.1315 590.052 12.355C590.421 12.5654 590.71 12.8481 590.92 13.2031C591.131 13.5582 591.236 13.9527 591.236 14.3866V18.5483C591.236 18.9822 591.131 19.3767 590.92 19.7317C590.71 20.0868 590.421 20.376 590.052 20.5996C589.697 20.81 589.303 20.9152 588.869 20.9152H578.632V26.2012H577.035ZM579.402 19.2978H588.869C589.079 19.2978 589.257 19.2255 589.402 19.0808C589.559 18.9362 589.638 18.7587 589.638 18.5483V14.3866C589.638 14.1762 589.559 13.9987 589.402 13.854C589.257 13.6962 589.079 13.6173 588.869 13.6173H579.402C579.191 13.6173 579.007 13.6962 578.849 13.854C578.705 13.9987 578.632 14.1762 578.632 14.3866V18.5483C578.632 18.7587 578.705 18.9362 578.849 19.0808C579.007 19.2255 579.191 19.2978 579.402 19.2978Z" fill="white"/>
<path d="M553.543 26.2012V12.0197H565.378C565.812 12.0197 566.206 12.1315 566.561 12.355C566.929 12.5654 567.218 12.8481 567.429 13.2031C567.639 13.5582 567.744 13.9527 567.744 14.3866V18.5483C567.744 18.9822 567.639 19.3767 567.429 19.7317C567.218 20.0868 566.929 20.376 566.561 20.5996C566.206 20.81 565.812 20.9152 565.378 20.9152H555.141V26.2012H553.543ZM555.91 19.2978H565.378C565.588 19.2978 565.765 19.2255 565.91 19.0808C566.068 18.9362 566.147 18.7587 566.147 18.5483V14.3866C566.147 14.1762 566.068 13.9987 565.91 13.854C565.765 13.6962 565.588 13.6173 565.378 13.6173H555.91C555.7 13.6173 555.516 13.6962 555.358 13.854C555.213 13.9987 555.141 14.1762 555.141 14.3866V18.5483C555.141 18.7587 555.213 18.9362 555.358 19.0808C555.516 19.2255 555.7 19.2978 555.91 19.2978Z" fill="white"/>
<path d="M535.524 21.1716V19.5543H543.216V21.1716H535.524Z" fill="white"/>
<path d="M513.361 26.2012V12H526.319V13.5976H514.958V18.2919H524.09V19.9093H514.958V26.2012H513.361Z" fill="white"/>
<path d="M491.482 26.2012C491.048 26.2012 490.647 26.096 490.279 25.8856C489.924 25.6752 489.641 25.3925 489.43 25.0375C489.22 24.6693 489.115 24.2682 489.115 23.8343V23.282H490.713V23.8343C490.713 24.0447 490.785 24.2288 490.929 24.3866C491.087 24.5312 491.271 24.6035 491.482 24.6035H500.949C501.16 24.6035 501.337 24.5312 501.482 24.3866C501.64 24.2288 501.718 24.0447 501.718 23.8343V20.6588C501.718 20.4484 501.64 20.2709 501.482 20.1262C501.337 19.9816 501.16 19.9093 500.949 19.9093H491.482C491.048 19.9093 490.647 19.8041 490.279 19.5937C489.924 19.3701 489.641 19.0809 489.43 18.7258C489.22 18.3708 489.115 17.9763 489.115 17.5424V14.3669C489.115 13.9329 489.22 13.5385 489.43 13.1834C489.641 12.8153 489.924 12.526 490.279 12.3156C490.647 12.1052 491.048 12 491.482 12H500.949C501.383 12 501.778 12.1052 502.133 12.3156C502.501 12.526 502.79 12.8153 503 13.1834C503.211 13.5385 503.316 13.9329 503.316 14.3669V14.9191H501.718V14.3669C501.718 14.1565 501.64 13.979 501.482 13.8343C501.337 13.6765 501.16 13.5976 500.949 13.5976H491.482C491.271 13.5976 491.087 13.6765 490.929 13.8343C490.785 13.979 490.713 14.1565 490.713 14.3669V17.5424C490.713 17.7528 490.785 17.9303 490.929 18.0749C491.087 18.2196 491.271 18.2919 491.482 18.2919H500.949C501.383 18.2919 501.778 18.4037 502.133 18.6272C502.501 18.8376 502.79 19.1203 503 19.4753C503.211 19.8304 503.316 20.2248 503.316 20.6588V23.8343C503.316 24.2682 503.211 24.6693 503 25.0375C502.79 25.3925 502.501 25.6752 502.133 25.8856C501.778 26.096 501.383 26.2012 500.949 26.2012H491.482Z" fill="white"/>
<path d="M454.054 26.2012C453.62 26.2012 453.219 26.096 452.851 25.8856C452.496 25.6752 452.213 25.3925 452.003 25.0375C451.792 24.6693 451.687 24.2682 451.687 23.8343V14.3669C451.687 13.9329 451.792 13.5385 452.003 13.1834C452.213 12.8153 452.496 12.526 452.851 12.3156C453.219 12.1052 453.62 12 454.054 12H463.522C463.955 12 464.35 12.1052 464.705 12.3156C465.073 12.526 465.362 12.8153 465.573 13.1834C465.783 13.5385 465.888 13.9329 465.888 14.3669V23.8343C465.888 24.2682 465.783 24.6693 465.573 25.0375C465.362 25.3925 465.073 25.6752 464.705 25.8856C464.35 26.096 463.955 26.2012 463.522 26.2012H454.054ZM454.054 24.6035H463.522C463.732 24.6035 463.909 24.5312 464.054 24.3866C464.212 24.2288 464.291 24.0447 464.291 23.8343V14.3669C464.291 14.1565 464.212 13.979 464.054 13.8343C463.909 13.6765 463.732 13.5976 463.522 13.5976H454.054C453.844 13.5976 453.66 13.6765 453.502 13.8343C453.357 13.979 453.285 14.1565 453.285 14.3669V23.8343C453.285 24.0447 453.357 24.2288 453.502 24.3866C453.66 24.5312 453.844 24.6035 454.054 24.6035Z" fill="white"/>
<path d="M428.139 26.2012V12H429.757V18.2919H434.333L439.619 12H441.67V12.0197L435.733 19.1006L441.69 26.1814V26.2012H439.619L434.333 19.9093H429.757V26.2012H428.139Z" fill="white"/>
<path d="M404.532 26.2012V12H406.15V18.2919H410.726L416.012 12H418.063V12.0197L412.126 19.1006L418.083 26.1814V26.2012H416.012L410.726 19.9093H406.15V26.2012H404.532Z" fill="white"/>
<path d="M392.602 26.2012V12H394.22V26.2012H392.602Z" fill="white"/>
<path d="M368.105 26.2012V12H370.294L380.708 24.3866V12H382.306V26.2012H380.116L369.702 13.8146V26.2012H368.105Z" fill="white"/>
</svg>
