<svg width="393" height="79" viewBox="0 0 393 79" fill="none" xmlns="http://www.w3.org/2000/svg">
<path d="M375.643 42.9538C380.414 44.0353 388.366 46.6437 392.438 50.5245C393.392 51.4151 393.965 52.7511 393.965 54.1508C393.965 55.6776 393.392 56.5683 392.502 56.5683C391.675 56.5683 391.038 55.9321 389.639 54.4689C385.058 49.6338 380.287 46.6437 375.579 44.3534C375.515 50.1428 375.452 56.0593 375.452 61.8487C375.452 63.1847 375.643 69.0377 375.643 70.1828C375.643 73.2366 375.643 75.9722 373.734 75.9722C371.571 75.9722 371.062 71.9006 371.062 71.2007C371.062 71.0735 371.571 67.8925 371.635 67.5108C372.144 64.0754 372.589 40.8543 372.589 38.4368C372.589 36.4646 372.589 29.9118 372.144 28.3213C371.698 26.6672 369.98 26.031 366.927 25.1404C369.153 23.7407 370.935 23.6771 371.062 23.6771C372.016 23.6771 377.424 24.8859 377.424 27.0489C377.424 27.367 376.788 29.2756 376.47 30.3571C375.77 32.5202 375.706 40.1545 375.643 42.9538Z" fill="white"/>
<path d="M309.224 72.5368L308.906 72.0914C312.787 68.7832 315.714 64.5207 317.813 59.9401C320.994 52.8784 321.121 46.8982 321.121 41.6814C321.121 36.2738 321.121 35.8284 316.604 34.8105C317.24 34.1743 318.258 33.22 319.785 33.22C321.757 33.22 325.32 34.8741 325.32 36.2738C325.32 36.6555 324.875 38.3096 324.811 38.6913C324.747 39.6456 324.684 43.9081 324.62 44.7351C324.238 50.9062 323.348 58.286 318.067 65.2842C316.159 67.8289 313.232 70.8827 309.224 72.5368ZM360.247 42.1904L360.692 42.5721C357.321 51.4152 350.195 58.286 342.943 64.0754C342.243 64.648 338.807 66.9383 338.298 67.5745C336.708 69.6739 336.517 69.9284 335.881 69.9284C334.672 69.9284 332.255 65.3478 332.255 64.7116C332.255 64.3299 332.827 62.5485 332.891 62.2304C333.336 59.9401 333.4 56.5047 333.4 47.9797C333.4 45.3077 333.4 35.5739 333.082 33.4109C332.891 32.0113 332.573 31.1842 328.819 29.6574C329.455 29.2756 330.537 28.5122 331.809 28.5122C333.463 28.5122 336.135 30.1027 337.344 31.1842C337.662 31.4387 337.98 31.884 337.98 32.4566C337.98 32.8383 337.471 34.3652 337.408 34.6833C337.153 35.5739 336.835 37.4189 336.708 39.3911C336.517 43.59 336.39 57.5226 336.39 62.1668C336.39 63.1211 336.39 63.2483 336.581 63.2483C337.344 63.2483 349.05 57.5226 360.247 42.1904Z" fill="white"/>
<path d="M278.941 75.7177L278.56 75.2724C285.749 67.1291 289.057 54.2144 289.057 51.2243C289.057 50.3336 288.866 49.5702 285.685 48.1706C286.321 47.7252 286.894 47.4071 288.23 47.4071C290.202 47.4071 292.938 49.1249 292.81 50.6517C296.564 47.7252 300.826 43.59 302.29 41.5542C298.027 41.5542 285.112 42.9538 279.45 44.1625C278.814 44.2898 276.269 45.3077 275.697 45.3077C274.424 45.3077 271.816 42.3176 271.816 40.5362C271.816 39.4547 272.07 38.6913 272.261 38.1187C273.534 40.8543 274.742 41.6178 276.333 41.6178C276.715 41.6178 298.727 39.8364 300.826 39.2639C301.844 39.0094 302.099 38.8821 302.862 38.564C303.498 38.2459 303.816 38.1823 304.007 38.1823C304.453 38.1823 304.643 38.246 305.661 39.6456C306.997 41.3633 307.824 42.5084 307.824 43.3355C307.824 44.1625 307.315 44.2262 305.852 44.2898C304.707 44.2898 304.516 44.417 303.944 44.7987C299.172 48.1069 293.701 51.6696 292.11 52.4331C291.411 56.1866 290.202 59.8129 288.739 63.4392C287.212 67.1927 284.476 72.2187 278.941 75.7177Z" fill="white"/>
<path d="M232.372 73.6819L232.309 73.173C243.315 68.2743 256.738 54.3417 260.746 34.6197C255.084 34.8105 236.062 37.4825 233.263 38.246C232.054 38.5641 231.863 38.6913 230.909 39.3275C230.845 39.3911 230.527 39.582 230.209 39.582C228.746 39.582 225.565 35.8921 225.565 32.9019C225.565 32.2658 225.819 31.8204 225.947 31.5023C227.982 34.6197 230.018 35.0014 231.672 35.0014C232.181 35.0014 257.311 32.7111 258.838 32.4566C260.428 32.1385 261.001 31.8204 261.637 31.1842C262.082 30.8025 262.21 30.7389 262.464 30.7389C263.164 30.7389 267.49 34.4924 267.49 35.3831C267.49 35.7012 267.299 35.8921 265.963 36.5282C264.436 37.2281 264.118 37.6734 263.482 39.582C263.1 40.8544 259.919 51.1607 252.476 60.64C247.45 67.1291 240.388 71.7733 232.372 73.6819Z" fill="white"/>
<path d="M175.814 71.4552L175.687 70.9463C189.81 65.0297 204.57 48.8068 210.423 32.6475C208.451 33.0292 199.926 34.4924 198.208 34.8741C195.663 35.5103 192.991 36.2101 190.892 37.3553C190.001 37.8642 189.747 37.9915 189.365 37.9915C188.538 37.9915 187.457 36.4646 186.693 35.3831C186.057 34.4924 185.548 33.5381 185.548 32.3294C185.548 31.4387 185.866 30.4208 186.121 29.5301C186.439 30.1027 186.693 30.7389 187.457 31.6296C188.538 32.9019 189.111 33.2837 190.574 33.2837C193.373 33.2837 206.288 31.5023 208.196 30.7389C208.96 30.4208 209.278 30.2299 210.741 29.2756C211.25 28.8939 211.441 28.8939 211.632 28.8939C212.268 28.8939 216.594 32.2021 216.594 33.22C216.594 33.9835 216.212 34.1107 214.177 34.7469C213.859 34.8105 213.668 35.2559 213.477 35.6376C209.914 43.5264 206.415 48.3614 204.507 50.9062C212.841 54.9142 223.211 61.9123 223.211 68.2106C223.211 68.656 223.211 70.6918 221.302 70.6918C220.348 70.6918 219.902 70.0556 219.457 69.2922C215.258 62.3577 210.996 56.6956 203.743 51.9241C199.799 56.95 190.51 68.3379 175.814 71.4552Z" fill="white"/>
<path d="M144.005 76.0358L143.75 75.6541C153.611 65.2205 157.301 48.6159 157.301 44.2262C157.301 42.1267 154.311 41.0452 153.293 40.5999C154.502 40.0909 155.265 39.7728 156.156 39.7728C158.574 39.7728 161.945 41.6814 161.945 42.9538C161.945 43.3355 161.627 44.2898 161.5 44.7351C167.544 40.5999 174.16 33.22 174.16 32.6474C174.16 32.2657 173.779 32.2021 172.951 32.2021C165.89 32.2021 146.04 35.065 145.85 35.1286C143.941 35.5103 143.05 35.892 141.714 36.5918C141.142 36.8463 140.824 36.9099 140.569 36.9099C139.933 36.9099 139.233 36.401 138.279 35.5103C136.116 33.5381 135.607 32.4566 135.607 30.9297C135.607 30.1027 135.734 29.2756 135.989 28.0032C138.215 32.1385 140.633 32.3293 142.287 32.3293C146.804 32.3293 171.488 29.9754 173.206 29.6573C174.16 29.4665 175.051 29.0211 175.369 28.8939C176.069 28.4486 176.132 28.385 176.387 28.385C176.959 28.385 178.55 30.2299 179.186 30.9933C179.95 31.884 181.476 33.6017 181.476 34.3015C181.476 35.2558 180.84 35.3195 178.677 35.4467C177.596 35.5103 176.959 35.9556 174.097 37.9915C168.816 41.8086 166.653 43.3355 164.745 44.5443C163.472 45.3077 161.945 46.0711 160.991 46.4528C160.609 47.6616 159.21 53.0056 158.892 54.0872C157.874 57.9679 155.265 65.2841 149.667 71.328C147.186 74 145.023 75.3996 144.005 76.0358Z" fill="white"/>
<path d="M114.842 73.1018L114.737 72.5206C130.535 67.0784 131.274 55.7186 131.274 52.9711C131.274 43.7247 122.504 38.7581 114.737 38.7581C113.627 38.7581 113.31 38.8638 112.782 39.0223C115.371 41.1886 115.371 42.7737 115.371 43.0379C115.371 43.6719 115.212 43.8833 114.103 46.2081C107.657 59.7342 107.075 61.0551 104.064 65.5462C103.8 65.916 102.109 68.3993 101.052 68.822C100.735 68.9805 100.365 69.0334 100.048 69.0334C98.8329 69.0334 98.4631 68.4522 96.9837 66.3387C96.6138 65.8103 96.2968 65.5462 95.5571 64.9121C93.4964 63.2214 92.8096 61.3721 92.8096 57.7792C92.8096 47.1591 101.739 37.173 115.265 37.173C124.934 37.173 134.497 42.668 134.497 53.6051C134.497 63.2742 126.731 71.9394 114.842 73.1018ZM104.222 60.5795L108.766 51.9672C110.351 49.0084 111.884 44.8871 111.884 42.7737C111.884 40.9773 110.827 39.8677 110.404 39.3922C104.486 39.8677 95.5571 47.6875 95.5571 58.0434C95.5571 62.059 98.0932 65.599 100.154 65.599C100.471 65.599 100.841 65.5462 101.158 65.2291C102.32 64.0667 103.271 62.3231 104.222 60.5795Z" fill="white"/>
<path d="M90.1464 29.212C90.1464 29.9118 88.874 30.6116 87.538 31.4387C87.2836 39.073 87.4744 61.4034 87.7289 69.8648C87.7289 70.5646 87.9834 73.4911 87.9834 74.1272C87.9834 76.4175 86.0748 76.7993 85.3114 76.7993C83.8481 76.7993 83.8481 75.7177 83.8481 75.2088C83.8481 75.0179 83.9754 72.7276 83.9754 72.4095H58.7185C58.7821 74.1272 58.7821 74.7634 58.5912 75.2724C58.464 75.5905 57.637 76.9265 56.1101 76.9265C54.8377 76.9265 54.5196 76.0358 54.5196 75.2724C54.5196 74.6362 54.7741 71.9642 54.8377 71.3916C55.2194 65.9204 55.3467 49.9519 55.3467 45.6258C55.3467 28.7667 55.0922 27.4307 54.2651 24.7587L59.6728 27.6852H82.8938L84.7388 26.0311C84.866 25.9038 85.4386 25.3312 85.9475 25.3312C86.202 25.3312 86.3929 25.4585 86.9655 25.9038L89.383 28.0033C89.9556 28.4486 90.1464 28.8303 90.1464 29.212ZM84.039 48.5523V29.212H58.7185V48.5523H84.039ZM84.039 70.8827V50.0791H58.7185V70.8827H84.039Z" fill="white"/>
<path d="M51.7202 25.5221C51.7202 26.0947 50.1297 26.9853 49.0481 27.6215V47.7252C49.0481 51.1607 49.3026 66.4929 49.3026 69.6103C49.3026 74.2545 49.1118 77.1174 41.7955 78.4534C41.4138 77.3718 40.4595 74.7634 35.1155 72.9185V72.5368C37.6603 72.7912 40.4595 72.9821 42.05 72.9821C45.4855 72.9821 45.4855 72.7276 45.4855 69.2286C45.4855 66.9383 45.4218 56.8864 45.4855 54.8506H28.9444C25.7635 72.2187 11.9581 77.0537 8.52265 78.2625L8.33179 77.7535C13.2305 75.5269 17.7474 70.7554 20.1014 67.4472C24.8728 60.8944 26.5905 54.787 26.5905 38.564C26.5905 34.9377 26.4633 24.3769 25.6999 21.7686L30.5985 24.3133H44.7857L46.3761 22.532C46.7579 22.1503 46.8851 21.8958 47.2032 21.8958C47.5213 21.8958 47.9666 22.2139 48.2847 22.4684L51.2112 24.695C51.5293 24.9495 51.7202 25.0768 51.7202 25.5221ZM45.4855 38.9458V25.8402H29.8987V38.9458H45.4855ZM45.4855 53.3237V40.4726H29.8987C29.5806 49.2521 29.517 51.4151 29.1989 53.3237H45.4855ZM21.3737 26.0311C21.3737 26.6036 20.8648 26.8581 18.9562 27.6852V54.9142C18.9562 55.6776 19.2107 58.4133 19.2107 59.5584C19.2107 61.5306 17.3021 61.9123 16.7932 61.9123C15.3935 61.9123 15.3935 60.8308 15.3935 60.3855C15.3935 59.8765 15.4572 57.6498 15.4572 57.2045H3.49673C3.49673 58.1588 3.49673 62.7394 3.43311 63.1211C3.17863 64.9024 1.33367 64.9661 1.01557 64.9661C-0.702148 64.9661 -0.702148 63.8209 -0.702148 62.9939C-0.702148 62.5485 -0.63853 62.1668 -0.384052 58.9222C0.124902 52.3694 0.124902 39.3911 0.124902 32.4566C0.124902 28.9575 0.124902 25.8402 -0.57491 22.0867L3.81482 24.695H15.0118L16.0933 23.2318C16.3478 22.9137 16.5387 22.6592 16.8568 22.6592C17.1749 22.6592 17.4294 22.8501 17.7474 23.1046L20.165 24.7587C21.0557 25.3949 21.3737 25.6493 21.3737 26.0311ZM15.4572 39.8364V26.2219H3.49673V39.8364H15.4572ZM15.4572 55.6776V41.3633H3.49673V55.6776H15.4572Z" fill="white"/>
<path d="M361.183 8.00002V0.971017H357.663V0.0800171H365.583V0.971017H362.074V8.00002H361.183Z" fill="white"/>
<path d="M345.934 8.00002C345.692 8.00002 345.469 7.94135 345.263 7.82402C345.065 7.70668 344.908 7.54902 344.79 7.35102C344.673 7.14568 344.614 6.92202 344.614 6.68002V1.40002C344.614 1.15802 344.673 0.938017 344.79 0.740017C344.908 0.534684 345.065 0.37335 345.263 0.256017C345.469 0.138684 345.692 0.0800171 345.934 0.0800171H352.512V0.971017H345.934C345.817 0.971017 345.714 1.01502 345.626 1.10302C345.546 1.18368 345.505 1.28268 345.505 1.40002V6.68002C345.505 6.79735 345.546 6.90002 345.626 6.98802C345.714 7.06868 345.817 7.10902 345.934 7.10902H352.512V8.00002H345.934Z" fill="white"/>
<path d="M331.814 8.00002V0.0800171H339.041V0.971017H332.705V3.58902H337.798V4.49102H332.705V7.10902H339.041V8.00002H331.814Z" fill="white"/>
<path d="M319.557 8.00002C319.315 8.00002 319.092 7.94135 318.886 7.82402C318.688 7.70668 318.531 7.54902 318.413 7.35102C318.296 7.14568 318.237 6.92202 318.237 6.68002V6.05302H319.128V6.68002C319.128 6.79735 319.169 6.90002 319.249 6.98802C319.337 7.06868 319.44 7.10902 319.557 7.10902H324.837C324.955 7.10902 325.054 7.06868 325.134 6.98802C325.222 6.90002 325.266 6.79735 325.266 6.68002V0.0800171H326.157V6.68002C326.157 6.92202 326.099 7.14568 325.981 7.35102C325.864 7.54902 325.703 7.70668 325.497 7.82402C325.299 7.94135 325.079 8.00002 324.837 8.00002H319.557Z" fill="white"/>
<path d="M306.598 8.00002C306.356 8.00002 306.133 7.94135 305.927 7.82402C305.729 7.70668 305.572 7.54902 305.454 7.35102C305.337 7.14568 305.278 6.92202 305.278 6.68002V1.40002C305.278 1.15802 305.337 0.938017 305.454 0.740017C305.572 0.534684 305.729 0.37335 305.927 0.256017C306.133 0.138684 306.356 0.0800171 306.598 0.0800171H311.878C312.12 0.0800171 312.34 0.138684 312.538 0.256017C312.744 0.37335 312.905 0.534684 313.022 0.740017C313.14 0.938017 313.198 1.15802 313.198 1.40002V6.68002C313.198 6.92202 313.14 7.14568 313.022 7.35102C312.905 7.54902 312.744 7.70668 312.538 7.82402C312.34 7.94135 312.12 8.00002 311.878 8.00002H306.598ZM306.598 7.10902H311.878C311.996 7.10902 312.095 7.06868 312.175 6.98802C312.263 6.90002 312.307 6.79735 312.307 6.68002V1.40002C312.307 1.28268 312.263 1.18368 312.175 1.10302C312.095 1.01502 311.996 0.971017 311.878 0.971017H306.598C306.481 0.971017 306.378 1.01502 306.29 1.10302C306.21 1.18368 306.169 1.28268 306.169 1.40002V6.68002C306.169 6.79735 306.21 6.90002 306.29 6.98802C306.378 7.06868 306.481 7.10902 306.598 7.10902Z" fill="white"/>
<path d="M298.511 8L295.926 4.92H297.092L299.688 7.989V8H298.511ZM291.823 8V0.0910034H298.423C298.665 0.0910034 298.885 0.153337 299.083 0.278004C299.288 0.395337 299.449 0.553003 299.567 0.751003C299.684 0.949003 299.743 1.169 299.743 1.411V3.732C299.743 3.974 299.684 4.194 299.567 4.392C299.449 4.59 299.288 4.75134 299.083 4.876C298.885 4.99334 298.665 5.052 298.423 5.052H292.714V8H291.823ZM293.143 4.15H298.423C298.54 4.15 298.639 4.10967 298.72 4.029C298.808 3.94834 298.852 3.84934 298.852 3.732V1.411C298.852 1.29367 298.808 1.19467 298.72 1.114C298.639 1.026 298.54 0.982004 298.423 0.982004H293.143C293.025 0.982004 292.923 1.026 292.835 1.114C292.754 1.19467 292.714 1.29367 292.714 1.411V3.732C292.714 3.84934 292.754 3.94834 292.835 4.029C292.923 4.10967 293.025 4.15 293.143 4.15Z" fill="white"/>
<path d="M278.722 8V0.0910034H285.322C285.564 0.0910034 285.784 0.153337 285.982 0.278004C286.187 0.395337 286.348 0.553003 286.466 0.751003C286.583 0.949003 286.642 1.169 286.642 1.411V3.732C286.642 3.974 286.583 4.194 286.466 4.392C286.348 4.59 286.187 4.75134 285.982 4.876C285.784 4.99334 285.564 5.052 285.322 5.052H279.613V8H278.722ZM280.042 4.15H285.322C285.439 4.15 285.538 4.10967 285.619 4.029C285.707 3.94834 285.751 3.84934 285.751 3.732V1.411C285.751 1.29367 285.707 1.19467 285.619 1.114C285.538 1.026 285.439 0.982004 285.322 0.982004H280.042C279.924 0.982004 279.822 1.026 279.734 1.114C279.653 1.19467 279.613 1.29367 279.613 1.411V3.732C279.613 3.84934 279.653 3.94834 279.734 4.029C279.822 4.10967 279.924 4.15 280.042 4.15Z" fill="white"/>
<path d="M259.114 8.00002C258.872 8.00002 258.648 7.94135 258.443 7.82402C258.245 7.70668 258.087 7.54902 257.97 7.35102C257.853 7.14568 257.794 6.92202 257.794 6.68002V1.40002C257.794 1.15802 257.853 0.938017 257.97 0.740017C258.087 0.534684 258.245 0.37335 258.443 0.256017C258.648 0.138684 258.872 0.0800171 259.114 0.0800171H264.394C264.636 0.0800171 264.856 0.138684 265.054 0.256017C265.259 0.37335 265.421 0.534684 265.538 0.740017C265.655 0.938017 265.714 1.15802 265.714 1.40002V1.71902H264.823V1.40002C264.823 1.28268 264.779 1.18368 264.691 1.10302C264.61 1.01502 264.511 0.971017 264.394 0.971017H259.114C258.997 0.971017 258.894 1.01502 258.806 1.10302C258.725 1.18368 258.685 1.28268 258.685 1.40002V6.68002C258.685 6.79735 258.725 6.90002 258.806 6.98802C258.894 7.06868 258.997 7.10902 259.114 7.10902H264.394C264.511 7.10902 264.61 7.06868 264.691 6.98802C264.779 6.90002 264.823 6.79735 264.823 6.68002V4.72202H262.865V3.82002H265.714V6.68002C265.714 6.92202 265.655 7.14568 265.538 7.35102C265.421 7.54902 265.259 7.70668 265.054 7.82402C264.856 7.94135 264.636 8.00002 264.394 8.00002H259.114Z" fill="white"/>
<path d="M244.242 8.00002V0.0800171H245.463L251.271 6.98802V0.0800171H252.162V8.00002H250.941L245.133 1.09202V8.00002H244.242Z" fill="white"/>
<path d="M237.599 8.00002V0.0800171H238.501V8.00002H237.599Z" fill="white"/>
<path d="M224.388 8V0.0910034H230.988C231.23 0.0910034 231.45 0.153337 231.648 0.278004C231.853 0.395337 232.014 0.553003 232.132 0.751003C232.249 0.949003 232.308 1.169 232.308 1.411V3.732C232.308 3.974 232.249 4.194 232.132 4.392C232.014 4.59 231.853 4.75134 231.648 4.876C231.45 4.99334 231.23 5.052 230.988 5.052H225.279V8H224.388ZM225.708 4.15H230.988C231.105 4.15 231.204 4.10967 231.285 4.029C231.373 3.94834 231.417 3.84934 231.417 3.732V1.411C231.417 1.29367 231.373 1.19467 231.285 1.114C231.204 1.026 231.105 0.982004 230.988 0.982004H225.708C225.59 0.982004 225.488 1.026 225.4 1.114C225.319 1.19467 225.279 1.29367 225.279 1.411V3.732C225.279 3.84934 225.319 3.94834 225.4 4.029C225.488 4.10967 225.59 4.15 225.708 4.15Z" fill="white"/>
<path d="M214.502 8.00002V5.01902L210.861 0.0800171H211.884L214.953 3.95202L217.989 0.0800171H219.034L215.393 5.01902V8.00002H214.502Z" fill="white"/>
<path d="M201.503 8.00002V0.971017H197.983V0.0800171H205.903V0.971017H202.394V8.00002H201.503Z" fill="white"/>
<path d="M186.168 8.00002C185.926 8.00002 185.702 7.94135 185.497 7.82402C185.299 7.70668 185.141 7.54902 185.024 7.35102C184.906 7.14568 184.848 6.92202 184.848 6.68002V1.40002C184.848 1.15802 184.906 0.938017 185.024 0.740017C185.141 0.534684 185.299 0.37335 185.497 0.256017C185.702 0.138684 185.926 0.0800171 186.168 0.0800171H191.448C191.69 0.0800171 191.91 0.138684 192.108 0.256017C192.313 0.37335 192.474 0.534684 192.592 0.740017C192.709 0.938017 192.768 1.15802 192.768 1.40002V6.68002C192.768 6.92202 192.709 7.14568 192.592 7.35102C192.474 7.54902 192.313 7.70668 192.108 7.82402C191.91 7.94135 191.69 8.00002 191.448 8.00002H186.168ZM186.168 7.10902H191.448C191.565 7.10902 191.664 7.06868 191.745 6.98802C191.833 6.90002 191.877 6.79735 191.877 6.68002V1.40002C191.877 1.28268 191.833 1.18368 191.745 1.10302C191.664 1.01502 191.565 0.971017 191.448 0.971017H186.168C186.05 0.971017 185.948 1.01502 185.86 1.10302C185.779 1.18368 185.739 1.28268 185.739 1.40002V6.68002C185.739 6.79735 185.779 6.90002 185.86 6.98802C185.948 7.06868 186.05 7.10902 186.168 7.10902Z" fill="white"/>
<path d="M175.247 8.00002V0.971017H171.727V0.0800171H179.647V0.971017H176.138V8.00002H175.247Z" fill="white"/>
<path d="M159.911 8.00002C159.669 8.00002 159.446 7.94135 159.24 7.82402C159.042 7.70668 158.885 7.54902 158.767 7.35102C158.65 7.14568 158.591 6.92202 158.591 6.68002V1.40002C158.591 1.15802 158.65 0.938017 158.767 0.740017C158.885 0.534684 159.042 0.37335 159.24 0.256017C159.446 0.138684 159.669 0.0800171 159.911 0.0800171H165.191C165.433 0.0800171 165.653 0.138684 165.851 0.256017C166.057 0.37335 166.218 0.534684 166.335 0.740017C166.453 0.938017 166.511 1.15802 166.511 1.40002V6.68002C166.511 6.92202 166.453 7.14568 166.335 7.35102C166.218 7.54902 166.057 7.70668 165.851 7.82402C165.653 7.94135 165.433 8.00002 165.191 8.00002H159.911ZM159.911 7.10902H165.191C165.309 7.10902 165.408 7.06868 165.488 6.98802C165.576 6.90002 165.62 6.79735 165.62 6.68002V1.40002C165.62 1.28268 165.576 1.18368 165.488 1.10302C165.408 1.01502 165.309 0.971017 165.191 0.971017H159.911C159.794 0.971017 159.691 1.01502 159.603 1.10302C159.523 1.18368 159.482 1.28268 159.482 1.40002V6.68002C159.482 6.79735 159.523 6.90002 159.603 6.98802C159.691 7.06868 159.794 7.10902 159.911 7.10902Z" fill="white"/>
<path d="M151.824 8L149.239 4.92H150.405L153.001 7.989V8H151.824ZM145.136 8V0.0910034H151.736C151.978 0.0910034 152.198 0.153337 152.396 0.278004C152.602 0.395337 152.763 0.553003 152.88 0.751003C152.998 0.949003 153.056 1.169 153.056 1.411V3.732C153.056 3.974 152.998 4.194 152.88 4.392C152.763 4.59 152.602 4.75134 152.396 4.876C152.198 4.99334 151.978 5.052 151.736 5.052H146.027V8H145.136ZM146.456 4.15H151.736C151.854 4.15 151.953 4.10967 152.033 4.029C152.121 3.94834 152.165 3.84934 152.165 3.732V1.411C152.165 1.29367 152.121 1.19467 152.033 1.114C151.953 1.026 151.854 0.982004 151.736 0.982004H146.456C146.339 0.982004 146.236 1.026 146.148 1.114C146.068 1.19467 146.027 1.29367 146.027 1.411V3.732C146.027 3.84934 146.068 3.94834 146.148 4.029C146.236 4.10967 146.339 4.15 146.456 4.15Z" fill="white"/>
<path d="M132.035 8V0.0910034H138.635C138.877 0.0910034 139.097 0.153337 139.295 0.278004C139.5 0.395337 139.662 0.553003 139.779 0.751003C139.896 0.949003 139.955 1.169 139.955 1.411V3.732C139.955 3.974 139.896 4.194 139.779 4.392C139.662 4.59 139.5 4.75134 139.295 4.876C139.097 4.99334 138.877 5.052 138.635 5.052H132.926V8H132.035ZM133.355 4.15H138.635C138.752 4.15 138.851 4.10967 138.932 4.029C139.02 3.94834 139.064 3.84934 139.064 3.732V1.411C139.064 1.29367 139.02 1.19467 138.932 1.114C138.851 1.026 138.752 0.982004 138.635 0.982004H133.355C133.238 0.982004 133.135 1.026 133.047 1.114C132.966 1.19467 132.926 1.29367 132.926 1.411V3.732C132.926 3.84934 132.966 3.94834 133.047 4.029C133.135 4.10967 133.238 4.15 133.355 4.15Z" fill="white"/>
<path d="M121.985 5.19497V4.29297H126.275V5.19497H121.985Z" fill="white"/>
<path d="M109.625 8.00002V0.0800171H116.852V0.971017H110.516V3.58902H115.609V4.49102H110.516V8.00002H109.625Z" fill="white"/>
<path d="M97.4235 8.00002C97.1815 8.00002 96.9579 7.94135 96.7525 7.82402C96.5545 7.70668 96.3969 7.54902 96.2795 7.35102C96.1622 7.14568 96.1035 6.92202 96.1035 6.68002V6.37202H96.9945V6.68002C96.9945 6.79735 97.0348 6.90002 97.1155 6.98802C97.2035 7.06868 97.3062 7.10902 97.4235 7.10902H102.704C102.821 7.10902 102.92 7.06868 103.001 6.98802C103.089 6.90002 103.133 6.79735 103.133 6.68002V4.90902C103.133 4.79168 103.089 4.69268 103.001 4.61202C102.92 4.53135 102.821 4.49102 102.704 4.49102H97.4235C97.1815 4.49102 96.9579 4.43235 96.7525 4.31502C96.5545 4.19035 96.3969 4.02902 96.2795 3.83102C96.1622 3.63302 96.1035 3.41302 96.1035 3.17102V1.40002C96.1035 1.15802 96.1622 0.938017 96.2795 0.740017C96.3969 0.534684 96.5545 0.37335 96.7525 0.256017C96.9579 0.138684 97.1815 0.0800171 97.4235 0.0800171H102.704C102.946 0.0800171 103.166 0.138684 103.364 0.256017C103.569 0.37335 103.73 0.534684 103.848 0.740017C103.965 0.938017 104.024 1.15802 104.024 1.40002V1.70802H103.133V1.40002C103.133 1.28268 103.089 1.18368 103.001 1.10302C102.92 1.01502 102.821 0.971017 102.704 0.971017H97.4235C97.3062 0.971017 97.2035 1.01502 97.1155 1.10302C97.0348 1.18368 96.9945 1.28268 96.9945 1.40002V3.17102C96.9945 3.28835 97.0348 3.38735 97.1155 3.46802C97.2035 3.54868 97.3062 3.58902 97.4235 3.58902H102.704C102.946 3.58902 103.166 3.65135 103.364 3.77602C103.569 3.89335 103.73 4.05102 103.848 4.24902C103.965 4.44702 104.024 4.66702 104.024 4.90902V6.68002C104.024 6.92202 103.965 7.14568 103.848 7.35102C103.73 7.54902 103.569 7.70668 103.364 7.82402C103.166 7.94135 102.946 8.00002 102.704 8.00002H97.4235Z" fill="white"/>
<path d="M76.55 8.00002C76.308 8.00002 76.0843 7.94135 75.879 7.82402C75.681 7.70668 75.5233 7.54902 75.406 7.35102C75.2886 7.14568 75.23 6.92202 75.23 6.68002V1.40002C75.23 1.15802 75.2886 0.938017 75.406 0.740017C75.5233 0.534684 75.681 0.37335 75.879 0.256017C76.0843 0.138684 76.308 0.0800171 76.55 0.0800171H81.83C82.072 0.0800171 82.292 0.138684 82.49 0.256017C82.6953 0.37335 82.8566 0.534684 82.974 0.740017C83.0913 0.938017 83.15 1.15802 83.15 1.40002V6.68002C83.15 6.92202 83.0913 7.14568 82.974 7.35102C82.8566 7.54902 82.6953 7.70668 82.49 7.82402C82.292 7.94135 82.072 8.00002 81.83 8.00002H76.55ZM76.55 7.10902H81.83C81.9473 7.10902 82.0463 7.06868 82.127 6.98802C82.215 6.90002 82.259 6.79735 82.259 6.68002V1.40002C82.259 1.28268 82.215 1.18368 82.127 1.10302C82.0463 1.01502 81.9473 0.971017 81.83 0.971017H76.55C76.4326 0.971017 76.33 1.01502 76.242 1.10302C76.1613 1.18368 76.121 1.28268 76.121 1.40002V6.68002C76.121 6.79735 76.1613 6.90002 76.242 6.98802C76.33 7.06868 76.4326 7.10902 76.55 7.10902Z" fill="white"/>
<path d="M62.0972 8.00002V0.0800171H62.9992V3.58902H65.5512L68.4992 0.0800171H69.6432V0.091017L66.3322 4.04002L69.6542 7.98902V8.00002H68.4992L65.5512 4.49102H62.9992V8.00002H62.0972Z" fill="white"/>
<path d="M48.9316 8.00002V0.0800171H49.8336V3.58902H52.3856L55.3336 0.0800171H56.4776V0.091017L53.1666 4.04002L56.4886 7.98902V8.00002H55.3336L52.3856 4.49102H49.8336V8.00002H48.9316Z" fill="white"/>
<path d="M42.2783 8.00002V0.0800171H43.1803V8.00002H42.2783Z" fill="white"/>
<path d="M28.6157 8.00002V0.0800171H29.8367L35.6447 6.98802V0.0800171H36.5357V8.00002H35.3147L29.5067 1.09202V8.00002H28.6157Z" fill="white"/>
</svg>
