<svg width="870" height="251" viewBox="0 0 870 251" fill="none" xmlns="http://www.w3.org/2000/svg">
<path d="M411.086 107.829H365.386V244.005H411.086V107.829Z" fill="white"/>
<path d="M635.104 107.829H589.404V244.005H635.104V176.841V176.557V107.829Z" fill="white"/>
<path d="M730.63 108.114H680.382L635.109 176.557L637.383 176.699L635.109 176.841L677.894 244.005H727.859L684.22 177.694L730.63 108.114Z" fill="white"/>
<path d="M480.167 107.829H434.467V244.005H480.167V176.841V176.557V107.829Z" fill="white"/>
<path d="M575.686 108.114H525.438L480.164 176.557L482.439 176.699L480.164 176.841L522.95 244.005H572.914L529.276 177.694L575.686 108.114Z" fill="white"/>
<path d="M289.05 107.829H190.258V244.005H236.029V143.934H280.165C280.165 143.934 298.289 143.934 298.289 166.18V244.36H343.989V166.18C344.313 158.717 343.138 151.264 340.535 144.263C337.931 137.261 333.952 130.851 328.831 125.413C323.71 119.974 317.552 115.616 310.719 112.596C303.887 109.576 296.519 107.955 289.05 107.829Z" fill="white"/>
<path d="M870 177.694C870 192.032 865.748 206.048 857.782 217.969C849.817 229.891 838.495 239.183 825.248 244.67C812.002 250.157 797.425 251.592 783.363 248.795C769.3 245.998 756.383 239.094 746.245 228.955C736.106 218.817 729.202 205.899 726.405 191.837C723.607 177.774 725.043 163.198 730.53 149.952C736.017 136.705 745.309 125.383 757.23 117.417C769.152 109.451 783.168 105.2 797.506 105.2C816.732 105.2 835.172 112.837 848.767 126.433C862.362 140.028 870 158.467 870 177.694ZM797.506 143.934C790.841 143.99 784.342 146.018 778.828 149.761C773.314 153.505 769.031 158.797 766.519 164.97C764.008 171.144 763.38 177.923 764.714 184.453C766.049 190.982 769.286 196.971 774.019 201.664C778.751 206.357 784.767 209.544 791.308 210.824C797.849 212.104 804.622 211.419 810.774 208.856C816.926 206.292 822.182 201.965 825.879 196.42C829.576 190.874 831.549 184.359 831.55 177.694C831.578 173.219 830.716 168.782 829.015 164.643C827.313 160.504 824.805 156.744 821.637 153.583C818.469 150.422 814.705 147.922 810.562 146.229C806.419 144.536 801.981 143.683 797.506 143.721V143.934Z" fill="white"/>
<path d="M150.604 174.993L75.0527 247.7V175.917L0 248.127V85.7258L75.7637 13.0891V73.7854L150.604 0.0119324V174.993ZM59.6309 140.125C57.7707 140.125 55.9838 140.855 54.6553 142.157L17.1289 179.613C16.2294 180.183 15.4693 180.948 14.9053 181.852C14.3413 182.755 13.9874 183.775 13.8701 184.833C13.753 185.892 13.8758 186.964 14.2285 187.969C14.5814 188.974 15.1559 189.888 15.9092 190.641C16.6624 191.394 17.575 191.969 18.5801 192.322C19.5852 192.674 20.6571 192.796 21.7158 192.679C22.7744 192.562 23.7937 192.209 24.6973 191.645C25.6008 191.081 26.3672 190.32 26.9375 189.42L64.6055 151.822C65.8239 150.508 66.5018 148.783 66.502 146.99C66.5019 145.198 65.8242 143.472 64.6055 142.157C63.2771 140.855 61.491 140.125 59.6309 140.125ZM80.9492 132.704C78.3934 132.573 75.8814 133.411 73.916 135.05C72.9798 135.995 72.2456 137.12 71.7578 138.358C71.2701 139.595 71.0383 140.919 71.0781 142.248C71.118 143.578 71.4282 144.886 71.9893 146.092C72.5504 147.298 73.3513 148.378 74.3428 149.265L107.604 182.384C109.482 184.236 111.991 185.31 114.628 185.389C117.264 185.468 119.834 184.547 121.819 182.811C125.586 179.257 124.662 173.855 120.967 169.023L87.7041 135.761C85.9177 133.928 83.5052 132.836 80.9492 132.704ZM96.6201 116.786C94.0442 116.693 91.5329 117.611 89.624 119.343C87.7493 121.233 86.6974 123.788 86.6973 126.45C86.6973 129.113 87.7492 131.668 89.624 133.558L123.171 166.748C125.03 168.621 127.529 169.72 130.166 169.825C132.803 169.931 135.383 169.034 137.386 167.317C139.134 165.318 140.038 162.718 139.905 160.066C139.772 157.414 138.614 154.917 136.675 153.103L103.412 119.84C101.633 117.975 99.1957 116.879 96.6201 116.786ZM30.7598 82.2112C28.1279 82.0928 25.5471 82.9667 23.5283 84.6594C21.8036 86.664 20.9095 89.252 21.0283 91.8938C21.1472 94.5356 22.2701 97.0326 24.168 98.8742L57.5723 132.136C59.4054 134.055 61.9124 135.188 64.5645 135.294C67.2164 135.4 69.8066 134.471 71.7871 132.704C72.7454 131.762 73.4939 130.627 73.9824 129.375C74.4709 128.123 74.6892 126.78 74.6221 125.438C74.5549 124.095 74.2038 122.782 73.5928 121.584C72.9817 120.387 72.1239 119.333 71.0762 118.49L37.7432 85.299C35.8846 83.4316 33.3918 82.3297 30.7598 82.2112ZM46.3984 66.8078C43.7567 66.689 41.1687 67.5833 39.1641 69.3078C37.4433 71.3005 36.5325 73.8666 36.6113 76.4983C36.6903 79.13 37.7537 81.6367 39.5908 83.5227L73.0654 116.642C74.8985 118.561 77.4057 119.694 80.0576 119.8C82.7095 119.906 85.2998 118.978 87.2803 117.211C88.1899 116.243 88.8952 115.101 89.3535 113.854C89.8117 112.607 90.0136 111.279 89.9473 109.952C89.8809 108.625 89.5481 107.325 88.9678 106.13C88.3873 104.935 87.5712 103.869 86.5693 102.996L53.3789 69.9475C51.5374 68.0497 49.0401 66.9269 46.3984 66.8078ZM112.862 99.5139C110.977 99.5284 109.138 100.098 107.574 101.152C106.011 102.205 104.793 103.696 104.071 105.438C103.35 107.18 103.157 109.096 103.519 110.947C103.88 112.797 104.779 114.5 106.103 115.843C107.426 117.186 109.116 118.109 110.961 118.497C112.806 118.885 114.724 118.721 116.477 118.026C118.229 117.33 119.737 116.133 120.813 114.585C121.89 113.037 122.486 111.206 122.528 109.322C122.557 108.038 122.327 106.761 121.854 105.568C121.38 104.374 120.671 103.288 119.77 102.373C118.868 101.459 117.793 100.735 116.606 100.243C115.42 99.7522 114.146 99.5041 112.862 99.5139ZM97.4443 84.3039C95.5439 84.304 93.6857 84.8688 92.1064 85.926C90.5273 86.9833 89.2974 88.4864 88.5732 90.2434C87.8492 92.0006 87.6631 93.9341 88.0391 95.7971C88.4151 97.6602 89.3366 99.3692 90.6855 100.708C92.0345 102.047 93.7504 102.955 95.6162 103.318C97.4819 103.68 99.4132 103.479 101.165 102.742C102.917 102.005 104.411 100.765 105.457 99.1779C106.502 97.591 107.053 95.7286 107.039 93.8283C107.002 91.3019 105.977 88.8896 104.184 87.1096C102.39 85.3296 99.9709 84.3224 97.4443 84.3039Z" fill="white"/>
</svg>
