<svg width="289" height="622" viewBox="0 0 289 622" fill="none" xmlns="http://www.w3.org/2000/svg">
<g filter="url(#filter0_d_37_122)">
<path d="M207.196 22.9888V73.5608C207.196 74.9723 207.685 80.0569 207.685 82.1817C207.685 85.8395 204.066 86.5529 203.105 86.5529C200.448 86.5529 200.448 84.5494 200.448 83.7147C200.448 82.7737 200.57 78.6302 200.57 77.8106H177.884C177.884 79.5864 177.884 88.0858 177.762 88.7992C177.273 92.1079 173.777 92.2293 173.182 92.2293C169.93 92.2293 169.93 90.1045 169.93 88.5715C169.93 87.7519 170.052 87.0386 170.541 81.0131C171.503 68.8406 171.503 44.7384 171.503 31.8526C171.503 25.3565 171.503 19.5587 170.174 12.5921L178.495 17.4338H199.731L201.776 14.717C202.265 14.1251 202.616 13.6546 203.227 13.6546C203.837 13.6546 204.311 14.0037 204.921 14.4742L209.501 17.5401C211.196 18.7239 211.791 19.1944 211.791 19.9078C211.791 20.9702 210.829 21.4407 207.211 22.9737L207.196 22.9888ZM200.555 20.272H177.869V45.558H200.555V20.272ZM200.555 48.3962H177.869V74.9875H200.555V48.3962ZM264.278 22.8674V60.2045C264.278 66.5791 264.767 95.0676 264.767 100.85C264.767 109.471 264.4 114.799 250.523 117.272C249.805 115.269 247.989 110.412 237.851 106.997V106.284C242.676 106.754 247.988 107.103 251.011 107.103C257.53 107.103 257.53 106.633 257.53 100.137C257.53 95.8872 257.408 77.2186 257.53 73.4394H226.157C220.127 105.692 193.929 114.677 187.41 116.923L187.044 115.982C196.341 111.839 204.906 102.99 209.379 96.8434C218.432 84.6709 221.684 73.3332 221.684 43.2055C221.684 36.4666 221.44 16.8571 219.989 12.0154L229.287 16.7356H256.202L259.225 13.4269C259.942 12.7136 260.187 12.243 260.797 12.243C261.408 12.243 262.248 12.835 262.843 13.3055L268.4 17.4338C269.011 17.9043 269.362 18.1472 269.362 18.9668C269.362 20.0292 266.339 21.6836 264.293 22.8674H264.278ZM257.515 46.7419H227.943C227.333 63.0427 227.226 67.0648 226.615 70.6163H257.515V46.7419ZM257.515 19.5587H227.943V43.9037H257.515V19.5587Z" fill="white"/>
<path d="M247.988 166.554C247.5 180.73 247.866 222.211 248.355 237.92C248.355 239.225 248.843 244.659 248.843 245.842C248.843 250.092 245.225 250.806 243.775 250.806C240.996 250.806 240.996 248.802 240.996 247.846C240.996 247.497 241.241 243.232 241.241 242.64H193.334C193.456 245.827 193.456 247.011 193.09 247.952C192.845 248.544 191.273 251.018 188.387 251.018C185.975 251.018 185.365 249.364 185.365 247.952C185.365 246.768 185.853 241.805 185.975 240.743C186.693 230.574 186.937 200.917 186.937 192.888C186.937 161.576 186.449 159.087 184.891 154.124L195.151 159.557H239.21L242.706 156.491C242.95 156.249 244.034 155.186 244.996 155.186C245.485 155.186 245.836 155.429 246.935 156.249L251.515 160.149C252.599 160.969 252.965 161.682 252.965 162.396C252.965 163.701 250.553 164.991 248.019 166.524L247.988 166.554ZM241.347 162.426H193.319V198.351H241.347V162.426ZM241.347 201.175H193.319V239.817H241.347V201.175Z" fill="white"/>
<path d="M220.951 370.162C257.041 357.99 258.72 332.583 258.72 326.451C258.72 305.779 238.691 294.669 220.951 294.669C218.416 294.669 217.699 294.912 216.493 295.261C222.401 300.102 222.401 303.654 222.401 304.246C222.401 305.657 222.035 306.143 219.5 311.334C204.783 341.583 203.455 344.543 196.57 354.575C195.959 355.395 192.097 360.95 189.685 361.906C188.967 362.255 188.112 362.376 187.395 362.376C184.616 362.376 183.776 361.071 180.402 356.351C179.563 355.167 178.83 354.575 177.151 353.163C172.448 349.384 170.876 345.241 170.876 337.212C170.876 313.459 191.272 291.132 222.172 291.132C244.263 291.132 266.109 303.426 266.109 327.877C266.109 349.506 248.37 368.872 221.21 371.483L220.966 370.178L220.951 370.162ZM207.302 324.189C210.92 317.572 214.417 308.359 214.417 303.624C214.417 299.601 212.004 297.128 211.043 296.065C197.532 297.128 177.135 314.612 177.135 337.773C177.135 346.758 182.921 354.666 187.639 354.666C188.356 354.666 189.211 354.545 189.929 353.846C192.585 351.251 194.753 347.35 196.936 343.45L207.318 324.189H207.302Z" fill="white"/>
<path d="M142.134 224.047C142.821 224.639 143.493 225.246 144.119 225.853C144.165 225.368 144.241 224.806 144.241 224.214C142.989 224.214 142.562 223.986 142.134 224.047Z" fill="white"/>
<path d="M140.684 220.678C140.684 220.678 140.669 220.723 140.653 220.739C140.653 220.739 140.653 220.739 140.669 220.754C140.669 220.723 140.669 220.693 140.669 220.678H140.684Z" fill="white"/>
<path d="M134.944 22.7002C134.944 22.7155 134.944 22.7308 134.944 22.7462C134.944 22.7308 134.959 22.7155 134.974 22.7002H134.944Z" fill="white"/>
<path d="M61.572 200.112C61.6636 200.051 61.7705 199.991 61.8621 199.93C61.7705 199.93 61.6636 199.96 61.572 200.006C61.572 200.036 61.572 200.067 61.572 200.112Z" fill="white"/>
<path d="M167.553 433.651C167.553 433.651 167.522 433.56 167.507 433.514C167.477 433.56 167.507 433.606 167.553 433.651Z" fill="white"/>
<path d="M147.432 36.9369C147.89 36.8761 147.951 36.7395 147.615 36.5422C147.172 36.6333 147.111 36.7547 147.432 36.9369Z" fill="white"/>
<path d="M114.196 21.0458C114.502 21.3949 114.776 22.5029 114.914 23.8082C115.952 23.7019 116.99 23.5957 118.013 23.5046C118.043 23.3225 118.043 23.11 118.043 22.8672C119.295 22.8672 119.83 22.5636 120.288 23.3073C124.15 22.9734 127.692 22.7306 130.593 22.6243C130.669 21.6681 130.883 20.7119 131.295 19.7709C131.616 20.7119 131.768 21.6529 131.799 22.594C132.318 22.594 132.806 22.5788 133.28 22.5788C133.844 22.5788 134.287 22.6091 134.654 22.6547C134.318 21.911 133.615 20.9396 132.18 19.695C134.989 18.8147 135.905 19.8165 134.944 22.7002C135.997 20.6209 137.478 20.1959 139.386 21.4405C138.486 22.943 139.493 23.5957 139.493 25.2045C142.333 26.6009 140.379 24.7492 140.898 23.4894C141.524 23.8082 142.714 24.7188 143.035 25.4777C142.882 24.3546 143.936 20.1807 144.485 18.2076C143.004 16.5988 141.188 14.823 140.379 14.823C139.844 14.823 139.722 14.9444 138.272 15.8551C137.615 16.1131 135.768 17.0086 133.799 17.4032C133.295 17.4943 131.845 17.6612 129.738 17.8889C129.692 17.9344 129.661 17.98 129.616 18.0255C129.616 17.98 129.661 17.9344 129.677 17.8889C128.547 18.0103 127.234 18.1469 125.753 18.2987C125.814 18.3746 125.768 18.4505 125.6 18.5567C125.31 18.5112 125.188 18.4505 125.219 18.3442C124.761 18.3897 124.288 18.4353 123.799 18.4808C123.372 19.2397 122.303 19.9834 121.616 19.6343C121.616 19.3915 121.769 19.0272 121.982 18.6629C120.975 18.754 119.921 18.8603 118.837 18.9665C118.639 19.2245 118.471 19.4977 118.257 19.7557C117.555 19.6343 117.311 19.3915 117.341 19.1183C116.059 19.2397 114.746 19.3611 113.387 19.4825C111.311 21.2735 111.555 21.8047 114.196 21.0307V21.0458ZM141.157 19.3611C141.463 19.8923 141.371 20.2262 140.867 20.3628C140.776 20.3932 140.424 19.4067 141.157 19.3611ZM139.096 15.9461C139.157 16.0827 139.982 17.9041 140.012 17.7826C139.966 18.0255 139.921 18.2532 139.875 18.496C139.05 17.7068 138.806 16.872 139.111 15.9613L139.096 15.9461ZM138.974 16.5988L138.959 16.6747C138.959 16.6747 138.959 16.6443 138.974 16.5988ZM126.929 19.5281C126.715 20.1655 126.165 19.7709 125.784 19.8772C126.018 19.4724 126.399 19.3561 126.929 19.5281ZM125.723 19.8923C125.723 26.2062 123.387 20.287 125.723 19.8923ZM122.303 22.7913C121.188 22.7913 121.204 23.0796 120.959 21.8351C122.028 21.2583 122.471 21.5771 122.303 22.7913ZM117.921 22.0779C117.189 22.2752 116.456 22.3359 115.708 22.2752C115.708 20.5146 118.059 20.7878 117.921 22.0779Z" fill="white"/>
<path d="M146.394 21.7895C149.02 24.8402 146.821 24.2483 146.394 21.7895C146.134 21.5011 145.829 21.1672 145.478 20.8029C145.417 22.6091 144.317 27.5722 143.096 25.6902C143.096 26.4946 142.745 27.1169 142.073 27.5418C142.119 27.5418 142.15 27.5722 142.18 27.6025C141.692 28.0427 141.356 28.1641 140.959 28.1793C139.539 29.6363 137.905 32.4746 139.493 25.2196C136.058 25.2196 135.035 25.25 134.806 24.992C133.951 26.0696 132.608 27.6177 130.837 29.4997C131.875 29.6971 131.768 30.1069 131.768 31.6246C131.28 31.6853 129.982 32.3531 129.6 32.3683C129.005 32.3987 129.051 31.7916 129.005 31.4121C126.379 34.0834 123.173 37.1493 119.738 40.1241C119.555 40.7768 119.356 41.4597 118.853 42.1731C118.792 41.7937 118.746 41.4142 118.685 41.0348C115.723 43.5543 112.609 45.9827 109.57 48.0165C109.83 47.1058 110.486 45.1783 110.486 44.4042C110.486 42.5222 106.746 39.942 102.777 38.6974C102.731 38.6974 102.7 38.6822 102.67 38.6671C101.25 38.2269 99.7998 37.9537 98.4869 37.9537C96.6396 37.9537 95.0672 38.5912 92.5634 39.6233C92.9909 39.8054 93.571 40.033 94.2428 40.3214C94.2886 40.0179 94.6092 39.6991 95.2198 39.3501C95.5557 39.9268 96.0137 40.5036 96.029 41.1714C98.38 42.4159 100.868 44.2676 100.868 46.9692C100.868 49.9289 100.014 55.6509 98.1358 62.7237C98.1816 62.9058 98.1358 63.1335 97.9678 63.3763C97.7846 64.0289 97.6014 64.7119 97.403 65.3949C97.403 65.3949 97.403 65.3949 97.3877 65.3949C95.861 70.6616 93.8 76.5202 91.1284 82.5002C91.3116 82.3636 91.51 82.2573 91.7238 82.1662C91.8001 82.5609 91.8764 82.9555 91.9375 83.3501C91.5711 83.2742 91.2047 83.2135 90.8383 83.1376C89.9528 85.1107 88.991 87.0838 87.9682 89.0569C88.1514 89.4515 88.2277 89.8461 88.0292 90.3622C87.7392 90.3622 87.5102 90.3318 87.3422 90.2711C83.4645 97.526 78.6555 104.629 72.7931 110.7L73.3274 111.474C74.4266 110.791 76.1976 109.683 78.3654 108.014C78.1059 107.634 78.3807 107.589 78.7471 107.513C78.5792 106.967 78.7471 106.602 79.2356 106.42C79.2204 106.42 79.2051 106.42 79.1898 106.42C79.4341 106.132 79.5715 105.98 79.7089 105.813C80.06 106.268 79.7547 106.299 79.3578 106.375C79.5257 106.921 79.3578 107.285 78.8692 107.467C78.8845 107.467 78.8998 107.467 78.915 107.467C78.8082 107.604 78.7166 107.695 78.6402 107.786C79.373 107.209 80.1516 106.572 80.9608 105.859C80.8386 105.737 80.7012 105.631 80.5791 105.509C81.9226 103.521 82.5485 103.187 82.5332 104.432C83.3576 103.658 84.182 102.853 85.0522 101.943C88.0445 98.7706 90.6246 95.4315 92.8535 92.0773C92.3192 91.4701 92.0444 90.8782 92.5176 90.605C94.487 89.4667 94.029 88.0552 95.2351 88.2525C96.3648 86.3401 97.3724 84.4429 98.2732 82.5912C97.861 83.0162 97.2961 83.3956 96.8076 83.8661C93.7237 83.684 98.5327 81.119 98.8228 80.861C98.8686 81.0279 98.8838 81.1797 98.8838 81.3315C101.525 75.7006 103.204 70.6009 104.166 66.9886C104.273 66.6547 104.426 66.0779 104.624 65.3949C103.678 65.0307 103.616 63.862 104.059 62.8754C104.181 63.2852 104.624 63.7102 104.975 64.1352C105.281 63.012 105.647 61.7068 106.013 60.3559C105.387 60.0372 104.96 59.5363 105.219 59.0203C105.754 59.4756 106.044 59.4301 106.349 59.1873C107.235 55.9544 108.135 52.7216 108.532 51.5225C108.792 51.4163 109.067 51.3101 109.357 51.1886C109.296 51.1431 109.235 51.0976 109.158 51.0217C108.929 50.2324 109.265 49.9289 110.196 50.0807C110.242 50.278 110.242 50.5663 110.196 50.8244C112.044 49.9896 114.334 48.8209 116.318 47.6522C118.807 46.1041 121.509 44.298 125.906 41.2473H125.875C125.387 40.1545 127.433 38.7733 127.997 38.2421C128.12 38.8037 128.165 39.2742 128.15 39.6688C128.807 39.1983 129.494 38.7278 130.226 38.2117C129.921 37.7868 129.921 37.4832 130.226 37.1645C130.745 37.3618 130.73 37.6502 130.501 38.0296C131.203 37.5287 131.951 36.9975 132.745 36.4511C132.318 36.3297 131.936 35.9958 131.799 35.3128C126.822 36.2235 125.799 35.6467 128.73 33.5825C128.7 33.5825 128.684 33.5825 128.654 33.5977C128.898 33.3093 129.035 33.1576 129.173 32.9906C129.524 33.4459 129.219 33.4763 128.822 33.5522C128.837 36.2386 131.31 32.5808 131.799 35.2976C132.974 35.3887 132.287 33.5067 133.722 34.5691C134.074 34.8271 134.241 35.0851 134.303 35.328C134.761 35.0092 135.203 34.6905 135.692 34.3414C141.615 30.2131 142.943 29.3024 145.172 29.181C145.676 29.1507 146.119 29.1203 146.546 29.09C146.577 28.7864 146.668 28.498 146.882 28.2855C147.065 28.5587 147.157 28.8016 147.233 29.0444C150.042 28.8168 150.974 28.4525 150.974 26.8588C150.974 25.4928 148.058 22.2296 146.424 20.3628C146.348 20.894 146.378 21.3797 146.455 21.8047L146.394 21.7895ZM79.6173 105.16C79.3578 104.918 79.3578 104.72 79.6173 104.568C79.8768 104.811 79.8768 105.009 79.6173 105.16ZM83.892 102.686C83.4645 102.322 83.4492 102.322 83.7088 100.865C84.182 101.639 84.1668 102.17 83.892 102.686ZM84.411 99.484C83.9378 98.4974 83.5408 98.3001 84.3194 97.526C84.7774 98.1938 84.579 98.6947 84.411 99.484ZM85.2812 94.7941C85.6476 93.8986 86.0446 93.7316 86.472 94.3084C86.5484 95.0066 85.8308 95.386 85.2812 94.7941ZM86.7926 97.3439C86.8842 97.5412 87.6476 99.317 87.6476 98.7706C87.6476 99.7723 85.8156 98.9224 86.7926 97.3439ZM97.7846 68.1421C98.0289 67.8841 98.2274 67.8841 98.38 68.1421C98.1358 68.4001 97.9373 68.4001 97.7846 68.1421ZM98.6854 69.0376C99.1128 69.4322 99.1128 69.8268 98.6854 70.2214C98.2579 69.8268 98.2579 69.4322 98.6854 69.0376ZM98.6243 73.1204C98.7617 72.6954 98.9907 72.3463 99.3266 72.0427C99.1892 72.4677 98.9602 72.8168 98.6243 73.1204ZM101.754 43.6757C101.846 43.6453 102.197 44.6319 101.464 44.6774C101.159 44.1462 101.25 43.8123 101.754 43.6757ZM104.838 52.2511C105.754 51.3404 105.586 50.961 106.578 52.0841C106.105 52.585 105.464 52.3421 104.838 52.2511ZM107.113 55.3321C106.471 55.0893 106.639 54.7098 107.021 54.1786C107.418 54.6643 107.433 54.9982 107.113 55.3321ZM105.876 45.3149C104.96 46.2862 104.365 47.379 103.754 48.2897C102.945 49.4584 103.189 50.0351 101.357 50.5815C101.357 49.2155 101.357 47.8495 101.357 46.4836C101.647 47.0907 101.937 47.7129 102.212 48.3201C110.609 36.5877 108.899 50.369 105.861 45.3149H105.876ZM114.654 47.6067C113.983 46.9085 114.685 45.1935 115.662 46.2255C115.662 46.8023 115.372 47.4853 114.654 47.6067ZM116.853 42.674C117.25 42.249 117.647 42.249 118.043 42.674C117.647 43.0989 117.25 43.0989 116.853 42.674ZM125.555 38.9099C125.265 38.5912 124.959 38.2724 124.669 37.9689C124.944 37.6653 125.204 37.3618 125.478 37.043C126.089 37.4528 125.707 38.409 125.57 38.9099H125.555ZM134.119 34.6753C134.119 34.2655 133.936 34.0682 133.524 34.0834C133.432 32.7174 134.593 34.0075 134.699 33.9923C134.791 34.4477 134.593 34.6753 134.119 34.6753ZM133.692 28.5739C133.096 27.815 133.386 27.3445 134.547 27.1624C135.142 27.9213 134.852 28.3918 133.692 28.5739ZM136.028 31.913C136.211 31.5943 136.348 31.655 136.425 32.0951C136.226 32.429 136.089 32.3683 136.028 31.913ZM137.997 31.7157C137.57 31.3211 137.57 30.9264 137.997 30.5318C138.424 30.9264 138.424 31.3211 137.997 31.7157ZM143.737 28.2855C144.272 27.982 144.607 28.073 144.745 28.5739C144.775 28.665 143.783 29.0141 143.737 28.2855Z" fill="white"/>
<path d="M61.4347 29.2874C63.4041 31.0936 64.8545 32.1256 66.1827 32.1256C66.717 32.1256 67.3735 32.0042 68.549 31.4882C68.8849 31.3212 69.2055 31.1543 69.5261 31.0025C68.3963 31.0328 68.2742 30.2284 68.7322 28.8776C69.2055 28.8776 69.694 30.3195 69.8925 30.8355C70.6558 30.4713 71.3886 30.1525 72.1672 29.8642C72.2283 29.7427 72.2741 29.6213 72.3657 29.4695C72.5641 29.5151 72.7321 29.5606 72.8695 29.6213C74.0603 29.2267 75.3885 28.8776 77.1289 28.5437C77.2357 28.5133 80.228 28.0732 84.8233 27.4509C84.5943 27.2991 84.6706 27.1777 85.0675 27.1018C85.2813 27.2384 85.3118 27.3295 85.2049 27.4054C91.7849 26.5251 101.479 25.2805 110.807 24.2788C109.418 22.8065 108.319 21.7593 108.945 22.336C111.051 22.7155 111.311 22.2146 109.738 20.8183C109.922 20.4844 110.12 20.1505 110.303 19.8165C109.616 19.8773 108.929 19.938 108.227 19.9987C108.761 20.2415 108.609 20.6058 108.242 21.1218C107.876 20.6665 107.845 20.3478 108.12 20.0139C107.189 20.1049 106.258 20.1808 105.311 20.2719C105.265 20.3174 105.22 20.3629 105.158 20.3933C105.128 20.3629 105.113 20.3174 105.097 20.2871C100.182 20.7272 95.1435 21.1522 90.4261 21.5316C90.304 21.7441 90.0597 21.9566 89.6781 22.1691C89.6781 21.9566 89.617 21.7745 89.5559 21.6075C80.5486 22.336 72.8695 22.8521 69.7703 22.8521C69.0375 22.8521 68.2284 22.8217 67.3735 22.7155C67.5719 25.1287 67.2513 25.2501 66.4117 23.0646C66.4117 22.9735 66.4269 22.7914 66.4575 22.5485C64.5491 22.1539 62.4118 21.2281 60.2745 19.0121C60.2745 19.088 60.1523 19.1487 59.9081 19.1943C59.5722 18.9969 59.6333 18.8604 60.0913 18.7996C58.9615 17.6006 57.8471 16.0677 56.7326 14.0642C56.1983 16.6444 55.9387 18.3291 55.9387 19.9987C55.9387 23.0949 56.9921 25.2805 61.4805 29.2874H61.4347ZM105.449 22.4575C105.357 22.8976 105.235 22.9583 105.052 22.6396C105.113 22.1843 105.25 22.1235 105.449 22.4575ZM103.174 24.3547C103.128 24.6127 103.082 24.8707 103.036 25.1287C102.594 24.9618 102.243 24.7038 101.952 24.3243C102.365 23.8993 102.777 23.9145 103.174 24.3547ZM98.2579 24.7948C98.609 20.7272 96.1816 22.7307 98.2579 24.7948ZM95.9985 23.7172C96.2275 24.5064 95.8916 24.81 94.9603 24.6582C94.8535 24.0966 95.0214 22.7003 95.9985 23.7172ZM92.2276 24.127C92.5482 24.3091 92.4871 24.4457 92.0444 24.5216C91.7085 24.3243 91.7696 24.1877 92.2276 24.127ZM87.0675 23.1405C86.6705 23.3226 86.2583 23.5047 85.8614 23.6868C85.8614 25.1287 86.0904 25.3109 84.9454 26.3429C84.5332 25.7965 84.121 25.235 83.7088 24.6886C85.3118 24.3698 84.9454 21.0308 87.0675 23.1253V23.1405ZM79.2051 23.6261C79.1441 24.0815 79.0067 24.1422 78.8082 23.8083C78.8998 23.3681 79.0219 23.3074 79.2051 23.6261ZM78.2433 26.4795C78.6861 26.6465 79.0372 26.9045 79.3273 27.284C78.1823 27.6482 77.8159 27.375 78.2433 26.4795ZM66.7017 28.9535C66.6407 29.4088 66.5033 29.4695 66.3048 29.1356C66.3964 28.6955 66.5185 28.6348 66.7017 28.9535ZM61.8622 26.9197C62.4423 27.9821 62.1217 28.4223 60.9004 28.2553C60.9004 27.1474 60.6103 27.1625 61.8622 26.9197Z" fill="white"/>
<path d="M141.218 27.9214C141.539 27.8152 141.829 27.6937 142.073 27.542C141.844 27.4661 141.539 27.633 141.218 27.9214Z" fill="white"/>
<path d="M140.089 28.1643C140.455 28.1643 140.73 28.1643 140.974 28.1643C141.066 28.0732 141.157 27.9973 141.234 27.9062C140.898 28.0125 140.531 28.1036 140.104 28.1491L140.089 28.1643Z" fill="white"/>
<path d="M136.898 24.7036C136.455 24.7947 136.394 24.9161 136.715 25.0982C137.173 25.0375 137.234 24.9009 136.898 24.7036Z" fill="white"/>
<path d="M136.745 21.6531C136.257 22.8976 136.653 22.7459 137.676 23.4744C137.417 22.5486 138.195 21.6531 136.745 21.6531Z" fill="white"/>
<path d="M97.9372 178.089C97.1892 177.163 96.6396 176.207 97.8151 176.222C98.2426 176.222 98.6548 176.526 98.9907 176.951C101.922 173.718 104.303 170.804 106.12 168.527C118.211 176.313 126.287 185.268 133.509 195.801C133.539 195.604 133.615 195.392 133.783 195.164C133.921 195.316 134.028 195.437 134.135 195.543C134.15 194.132 134.531 193.919 135.646 192.857C134.257 194.102 133.86 195.513 134.455 197.061C134.394 197.031 134.364 197.001 134.318 196.97C135.218 198.306 136.104 199.672 136.989 201.053C137.188 200.871 137.417 200.704 137.707 200.522C137.707 199.945 138.302 199.505 139.478 199.186C139.402 199.019 139.096 201.22 139.371 200.689C139.203 201.007 138.959 201.736 138.318 201.706C138.318 201.706 138.302 201.69 138.287 201.675C138.592 202.419 138.776 203.208 138.852 204.028C139.722 205.439 140.653 206.578 142.501 206.578C143.936 206.578 144.852 206.031 145.432 205.287C144.165 205.561 142.241 204.134 142.424 202.935C142.653 201.523 144.943 203.785 145.798 204.726C146.455 203.497 146.455 202.024 146.455 201.539C146.455 201.432 146.455 201.326 146.439 201.205C145.768 201.539 145.111 201.873 144.44 202.222C143.859 200.203 144.882 199.444 146.226 199.232C145.783 196.909 144.684 194.542 143.081 192.189C142.974 192.386 142.867 192.584 142.714 192.751C142.363 192.295 142.669 192.265 143.066 192.189C143.066 192.189 143.066 192.189 143.066 192.174C142.272 190.99 141.34 189.821 140.302 188.653C137.829 188.774 138.348 189.639 141.875 191.248C139.768 195.027 139.295 190.292 138.028 190.474C137.829 189.973 137.661 189.897 137.524 189.973C137.264 190.11 137.173 190.793 137.524 189.973C138.211 188.364 138.745 187.666 139.188 187.439C138.913 187.15 138.623 186.862 138.348 186.573C136.012 189.321 134.806 187.575 134.806 184.661C135.173 185.116 135.402 185.617 135.509 186.194C137.218 186.057 136.638 185.116 137.982 186.194C137.005 185.238 135.967 184.282 134.867 183.341C134.623 183.295 134.348 183.204 134.058 183.022C134.15 182.976 134.226 182.916 134.302 182.855C134.18 182.749 134.058 182.658 133.936 182.551C133.615 183.325 133.005 183.583 132.058 183.295C132.608 183.083 129.799 183.234 130.608 183.31C129.585 183.811 128.776 183.416 128.211 182.157C128.211 182.324 129.249 181.125 130.364 179.743C128.318 178.226 126.15 176.753 123.936 175.327C123.875 175.448 123.768 175.539 123.555 175.554C123.417 175.327 123.387 175.145 123.387 174.993C122.975 174.735 122.578 174.477 122.165 174.234C122.135 174.462 122.089 174.765 121.998 175.221C121.692 174.689 121.616 174.295 121.662 173.93C120.471 173.202 119.265 172.504 118.059 171.806C117.662 172.215 117.265 172.215 116.883 171.806C117.082 171.593 117.28 171.487 117.479 171.487C114.196 169.635 110.883 167.95 107.723 166.463C109.799 163.746 112.807 159.724 116.257 154.199C115.265 154.7 114.837 154.382 115.005 153.198C116.089 153.198 116.105 152.94 116.334 154.078C117.616 152.029 118.944 149.768 120.318 147.294C120.288 146.808 120.501 146.429 120.929 146.201C122.303 143.666 123.723 140.919 125.142 137.944C124.7 138.081 124.226 138.202 123.631 138.248C123.768 137.383 123.509 136.715 122.837 136.244C124.486 134.727 125.845 134.514 126.608 134.878C126.913 134.302 127.249 133.786 127.738 133.679C131.493 132.526 132.532 132.192 132.715 131.038C132.333 130.978 131.829 130.856 131.295 131.281C130.959 129.308 131.768 129.794 132.562 130.006C131.921 128.686 129.509 126.485 127.173 124.694C127.28 125.195 126.974 125.59 126.104 126.485C124.196 125.59 124.715 124.482 125.662 123.586C124.165 122.539 122.898 121.795 122.456 121.795C122.059 121.795 121.662 121.795 120.608 122.569C118.547 123.875 117.585 124.482 116.685 124.937C116.99 125.119 117.25 125.347 117.418 125.711C116.318 126.03 116.089 126.348 115.28 127.123C115.082 126.531 114.67 126.197 114.288 125.878C111.815 126.546 106.624 127.426 100.914 128.261C100.38 128.959 99.7692 129.596 99.1891 130.067C98.9754 129.43 99.2196 128.944 99.4944 128.473C98.1662 128.655 96.838 128.853 95.5098 129.02C95.9068 129.779 96.09 131.463 94.7923 130.371C94.7923 129.779 94.8228 129.369 94.8839 129.096C87.9528 130.006 81.3576 130.704 78.8234 130.704C77.144 130.704 76.0296 130.446 74.9914 129.794C74.9151 129.885 74.8235 129.946 74.6556 129.946C74.5487 129.748 74.5029 129.596 74.5029 129.445C73.8464 128.944 73.1747 128.261 72.3808 127.335C72.0602 126.971 71.8007 126.637 71.5564 126.303C71.6328 126.561 71.5564 126.804 71.2816 127.062C70.8694 126.667 70.8542 126.288 71.2664 125.893C70.503 124.8 70.0908 123.905 69.6176 123.07C69.0832 124.876 68.4268 126.94 68.4268 128.747C68.4268 131.19 69.4802 133.133 70.7931 134.939C72.3808 137.14 74.6098 140.236 76.3349 140.236C77.1288 140.236 77.6478 139.978 79.4951 138.946C83.8461 136.624 89.3726 135.197 94.6549 133.907C96.4411 133.512 101.784 132.571 107.174 131.63C107.174 131.509 107.219 131.372 107.357 131.19C107.952 130.401 109.387 130.446 109.937 131.145C110.731 131.008 111.525 130.871 112.288 130.735C112.441 130.295 112.746 129.627 113.021 129.005C112.746 128.868 112.425 128.731 112.089 128.58C113.952 126.5 113.586 127.639 113.021 129.005C114.471 129.688 115.005 130.143 112.792 130.644C115.967 130.097 118.669 129.612 119.967 129.369C118.929 132.177 117.753 134.985 116.456 137.777C116.578 137.853 116.685 137.929 116.837 138.02C116.608 138.46 116.303 138.733 115.952 138.87C115.128 140.6 114.257 142.315 113.357 144.015C113.357 144.015 113.357 144.015 113.357 144.046C113.357 144.046 113.357 144.046 113.341 144.046C107.967 154.139 101.097 163.928 93.3114 172.792C96.4869 171.745 93.1893 176.814 93.0519 173.08C86.0903 180.973 78.4112 188.106 70.442 194.041C70.442 194.678 70.4114 195.437 70.1061 195.741C69.8008 195.407 69.5565 195.103 69.4038 194.815C67.2054 196.424 64.9918 197.926 62.7476 199.338C62.9155 199.368 63.0987 199.383 63.2361 199.399C62.9613 200.127 62.4117 199.808 61.8926 199.869C61.801 199.93 61.6942 199.99 61.6026 200.051C61.5568 200.81 61.4346 201.569 61.2667 202.313C60.9003 201.979 60.8087 201.265 60.7018 200.598C56.4882 203.132 52.2594 205.303 48.0458 207.033L48.3053 208.065C71.1595 203.314 87.6933 189.123 97.9678 178.028L97.9372 178.089ZM144.256 197.85C144.012 198.108 143.814 198.108 143.661 197.85C143.905 197.592 144.104 197.592 144.256 197.85ZM141.661 193.494C141.997 193.692 141.936 193.828 141.478 193.889C141.157 193.707 141.218 193.57 141.661 193.494ZM141.066 200.006C141.401 200.203 141.34 200.34 140.882 200.4C140.562 200.218 140.623 200.082 141.066 200.006ZM141.89 202.571C141.524 203.481 141.111 203.648 140.684 203.072C140.592 202.343 141.325 202.055 141.89 202.571ZM137.096 194.891C140.638 198.093 139.432 192.69 137.096 194.891ZM134.608 189.503C134.699 190.004 134.928 190.413 135.325 190.747C133.722 191.81 132.699 191.172 134.608 189.503ZM132.73 185.799C133.066 186.558 132.791 187.241 131.951 187.848C131.722 186.695 131.57 186.406 132.73 185.799ZM131.524 184.024C131.86 184.221 131.799 184.357 131.341 184.418C131.02 184.236 131.081 184.099 131.524 184.024ZM128.165 182.157C128.058 182.536 128.455 183.067 127.814 183.295C127.641 182.769 127.758 182.389 128.165 182.157ZM128.165 184.221C127.921 184.479 127.723 184.479 127.57 184.221C127.814 183.963 128.013 183.963 128.165 184.221ZM124.379 178.681C124.715 178.878 124.654 179.015 124.196 179.076C123.875 178.894 123.936 178.757 124.379 178.681ZM123.891 181.959C123.707 182.278 123.57 182.217 123.494 181.777C123.692 181.443 123.83 181.504 123.891 181.959ZM120.959 177.77C120.333 177.178 119.662 177.254 118.914 177.998C119.708 177.072 120.395 176.996 120.959 177.77ZM114.059 169.832C114.517 169.893 114.578 170.03 114.242 170.227C113.799 170.151 113.738 170.015 114.059 169.832ZM124.593 132.116C124.196 132.541 123.799 132.541 123.402 132.116C123.799 131.691 124.196 131.691 124.593 132.116ZM123.295 125.104C123.112 125.423 122.975 125.362 122.898 124.922C123.097 124.588 123.234 124.649 123.295 125.104ZM121.906 126.485C122.944 127.517 123.143 128.625 122.623 130.128C122.074 129.718 121.265 126.971 121.906 126.485ZM70.213 129.338C69.6023 128.716 70.0603 127.881 70.274 127.153C70.3504 127.684 70.6099 128.853 70.213 129.338ZM75.4494 133.588C75.022 133.194 75.022 132.799 75.4494 132.404C75.8769 132.799 75.8769 133.194 75.4494 133.588ZM81.5103 131.114C81.0523 131.054 80.9912 130.917 81.3271 130.72C81.7698 130.811 81.8309 130.932 81.5103 131.114ZM83.5713 133.209C83.7698 132.875 83.9072 132.936 83.9682 133.391C83.785 133.71 83.6476 133.649 83.5713 133.209ZM90.5176 130.113C90.823 130.644 90.7314 130.978 90.2276 131.114C90.136 131.145 89.7848 130.158 90.5176 130.113ZM90.884 134.226C90.1818 133.376 90.426 132.799 91.6168 132.495C92.487 133.33 91.5558 134.104 90.884 134.226ZM93.9068 130.629C93.6473 130.386 93.6473 130.188 93.9068 130.037C94.1664 130.279 94.1664 130.477 93.9068 130.629ZM101.159 132.298C100.701 132.237 100.639 132.101 100.975 131.903C101.418 131.995 101.479 132.116 101.159 132.298ZM105.235 128.853C104.807 128.458 104.807 128.064 105.235 127.669C105.662 128.064 105.662 128.458 105.235 128.853ZM119.494 133.619C119.921 133.846 120.41 136.472 120.425 136.867C118.181 138.931 118.379 134.742 119.494 133.619ZM113.952 156.476C114.044 156.036 114.166 155.975 114.349 156.294C114.288 156.749 114.15 156.81 113.952 156.476ZM114.578 146.535C114.273 146.004 114.364 145.67 114.868 145.533C114.96 145.503 115.311 146.489 114.578 146.535ZM115.54 150.572C115.357 150.891 115.219 150.83 115.143 150.39C115.341 150.056 115.479 150.117 115.54 150.572ZM115.066 142.877C115.158 143.605 114.425 143.894 113.86 143.378C114.227 142.467 114.639 142.3 115.066 142.877ZM112.425 152.955C112.853 153.38 113.265 153.79 113.692 154.215C112.166 154.761 111.448 153.729 111.54 151.118C113.983 148.72 114.563 151.27 112.425 152.955ZM111.677 159.163C112.135 159.223 112.196 159.36 111.86 159.557C111.418 159.466 111.357 159.345 111.677 159.163ZM110.288 152.242C110.044 152.5 109.845 152.5 109.693 152.242C109.937 151.984 110.135 151.984 110.288 152.242ZM109.097 154.275C109.525 154.336 109.967 154.412 110.395 154.473C110.12 154.898 109.754 155.216 109.296 155.399C109.067 154.837 109.097 154.852 109.097 154.26V154.275ZM108.807 157.281C109.235 157.675 109.235 158.07 108.807 158.464C108.38 158.07 108.38 157.675 108.807 157.281ZM103.387 166.584C103.845 167.374 103.845 167.905 103.54 168.436C103.128 168.026 103.113 168.026 103.387 166.584ZM98.1662 170.394C98.5021 170.591 98.4411 170.728 97.9831 170.789C97.6625 170.607 97.7235 170.47 98.1662 170.394ZM66.2894 198.943C66.4879 198.609 66.6253 198.67 66.6864 199.125C66.5032 199.444 66.3658 199.383 66.2894 198.943ZM80.1821 193.586C79.6936 192.538 78.4264 190.322 79.6478 189.199C80.1363 190.095 80.8386 192.614 80.1821 193.586ZM82.4874 184.024C85.556 184.661 80.7317 187.15 82.4874 184.024ZM88.075 181.474C87.617 181.261 87.2506 180.958 86.9452 180.563C87.388 180.487 88.9757 180.411 88.075 181.474ZM92.716 176.237C92.2886 175.843 92.2886 175.448 92.716 175.054C93.1435 175.448 93.1435 175.843 92.716 176.237Z" fill="white"/>
<path d="M63.3582 232.85C63.4346 232.531 63.4651 232.182 63.4193 231.788C64.2742 232.622 64.2132 233.138 63.8315 233.488C65.9078 236.28 68.4268 238.299 70.0145 238.299C70.671 238.299 71.3274 237.919 71.4648 237.783C73.4342 236.493 73.8312 236.235 76.3349 235.582C78.0142 235.127 82.5637 234.353 88.4261 233.472C88.5177 232.714 88.8383 231.909 89.449 232.182C89.449 232.668 89.4948 233.017 89.4948 233.305C91.2962 233.032 93.2046 232.759 95.174 232.486C94.7618 231.939 94.4717 231.272 95.1129 230.695C95.8762 231.135 96.1663 231.697 95.9984 232.38C96.4106 232.319 96.8228 232.258 97.2502 232.213C97.0823 231.909 97.1586 231.606 97.4792 231.317C97.7846 231.59 97.8609 231.879 97.7388 232.152C107.83 230.756 119.25 229.359 127.066 228.676C127.127 228.555 127.234 228.449 127.448 228.449C127.494 228.524 127.509 228.57 127.524 228.646C129.799 228.449 131.753 228.312 133.249 228.266C133.188 228.585 133.112 228.904 133.035 229.223C133.081 229.132 133.142 229.056 133.219 228.965C133.142 228.798 135.997 231.074 134.211 230.771C133.6 230.665 132.959 230.133 132.944 229.572C132.455 231.803 131.906 233.988 131.31 236.144C131.478 236.174 131.661 236.204 131.829 236.22C131.631 236.523 131.371 236.751 131.081 236.948C129.097 243.793 126.562 250.244 123.585 256.269C123.723 256.133 123.814 256.239 123.86 256.603C123.692 256.907 123.555 256.846 123.478 256.467C120.12 263.251 116.211 269.474 111.967 275.105C111.922 275.287 111.876 275.454 111.86 275.651C111.784 275.606 111.754 275.545 111.677 275.484C100.319 290.419 86.6094 301.089 74.335 306.447L74.4724 307.479C77.0524 306.872 79.5867 306.128 82.0599 305.263C82.2431 304.929 82.4263 304.61 82.6095 304.276C82.64 304.428 82.7011 304.716 82.7316 305.02C83.0675 304.898 83.4034 304.792 83.724 304.671C83.6324 304.625 83.556 304.549 83.4644 304.458C83.8156 304.079 84.1667 304.064 84.5178 304.352C86.4567 303.608 88.3498 302.774 90.197 301.863C90.1818 301.104 90.594 300.618 91.4489 301.241C101.006 296.353 109.433 289.463 116.105 281.024C117.57 279.203 118.959 277.351 120.257 275.515C119.219 275.833 118.196 276.531 119.204 273.739C119.204 273.283 119.204 272.813 119.219 272.342C120.517 272.585 121.188 272.084 121.249 270.855C121.799 271.295 122.211 271.735 122.547 272.16C126.807 265.74 130.135 259.472 132.654 254.099C130.822 254.22 130.669 253.416 132.196 251.67C132.333 252.217 132.837 252.414 133.356 252.581C134.104 250.927 134.791 249.363 135.386 247.922C135.218 247.982 135.005 247.922 134.699 247.588C134.47 246.798 134.806 246.495 135.738 246.647C135.753 246.738 135.768 246.859 135.768 246.981C137.615 242.397 138.623 239.194 138.898 238.284C138.989 238.026 139.066 237.798 139.157 237.57C138.898 237.282 138.76 236.751 139.035 236.144C139.234 236.22 139.417 236.326 139.585 236.447C140.547 234.095 141.463 233.26 144.043 232.091C146.806 230.801 147.203 230.422 147.203 229.769C147.203 229.344 146.684 228.585 145.905 227.675C145.768 227.69 145.6 227.69 145.401 227.675C144.088 227.523 144.012 226.809 144.104 225.823C143.478 225.216 142.806 224.609 142.119 224.017C141.768 224.077 141.432 224.32 140.653 225.064C142.592 226.992 142.333 226.415 141.463 229.147C141.34 228.494 141.218 227.841 141.111 227.204C138.837 228.069 139.493 224.639 140.119 222.393C138.592 221.209 137.279 220.359 136.791 220.359C136.257 220.359 135.997 220.48 135.081 221.27C134.135 222.195 133.249 222.787 131.631 223.273C131.493 223.986 131.234 223.85 131.005 223.455C130.501 223.592 129.936 223.728 129.28 223.85C126.12 224.366 74.0602 229.01 73.0068 229.01C71.2206 229.01 69.2206 228.798 67.1138 227.69C67.1138 227.69 67.0986 227.72 67.0833 227.735C67.0222 227.69 66.9917 227.644 66.9459 227.599C66.4879 227.356 66.0299 227.067 65.5719 226.718C65.5414 226.825 65.5414 226.931 65.4803 227.052C64.6864 226.931 64.4727 226.415 64.488 225.838C63.7857 225.201 63.0682 224.442 62.3659 223.546C62.3506 223.561 62.3506 223.577 62.3201 223.592C62.1522 223.44 62.0758 223.288 62.03 223.136C61.74 222.757 61.4499 222.347 61.1598 221.907C60.9003 222.56 60.366 223.455 60.366 224.745C60.366 227.416 61.6484 230.361 63.343 232.82L63.3582 232.85ZM96.838 297.583C95.7236 297.112 95.403 295.534 95.693 294.578C95.8152 294.729 97.6624 297.932 96.838 297.583ZM99.8761 291.132C99.6166 290.89 99.6166 290.692 99.8761 290.54C100.136 290.783 100.136 290.981 99.8761 291.132ZM106.929 281.722C107.57 281.965 107.403 282.344 107.021 282.876C106.624 282.39 106.609 282.056 106.929 281.722ZM102.136 288.264C102.594 288.476 102.96 288.78 103.265 289.174C102.823 289.25 101.235 289.326 102.136 288.264ZM102.563 291.451C102.929 290.996 103.235 290.51 103.494 290.009C104.349 290.783 103.678 292.574 102.563 291.451ZM104.853 286.503C104.945 286.033 105.036 285.577 105.113 285.107C105.51 285.486 105.891 285.851 106.273 286.23C105.8 286.321 105.326 286.397 104.838 286.488L104.853 286.503ZM106.838 288.097C106.777 287.808 106.716 287.52 106.654 287.232C107.799 286.852 108.944 284.985 109.799 286.655C109.036 289.402 108.044 289.888 106.838 288.097ZM111.189 285.851C110.792 285.365 110.777 285.031 111.097 284.697C111.738 284.94 111.57 285.319 111.189 285.851ZM113.387 278.884C113.57 278.565 113.708 278.626 113.784 279.066C113.586 279.4 113.448 279.339 113.387 278.884ZM117.143 273.951C116.883 273.708 116.883 273.511 117.143 273.359C117.402 273.602 117.402 273.799 117.143 273.951ZM117.83 275.651C117.387 275.56 117.326 275.439 117.646 275.256C118.104 275.317 118.166 275.454 117.83 275.651ZM118.73 275.408C118.73 275.408 118.73 275.408 118.73 275.423C118.73 275.423 118.73 275.423 118.73 275.408ZM121.219 268.518C120.517 269.018 119.097 268.032 118.166 268.032C117.967 266.787 118.761 266.636 119.738 265.892C119.814 266.393 119.875 266.878 119.952 267.379C120.532 267.243 123.539 266.848 121.219 268.518ZM121.906 260.929C121.646 260.686 121.646 260.489 121.906 260.337C122.165 260.58 122.165 260.777 121.906 260.929ZM132.333 241.243C131.906 241.152 131.509 240.985 131.142 240.743C131.142 236.918 132.333 237.358 132.333 241.243ZM124.898 263.297C123.158 263.297 124.226 261.627 125.677 262.28C125.509 262.689 125.249 263.023 124.898 263.297ZM127.31 249.773C127.417 250.274 127.814 252.278 126.486 251.261C126.776 250.76 127.051 250.274 127.31 249.773ZM126.684 264.48C126.425 264.238 126.425 264.04 126.684 263.888C126.944 264.131 126.944 264.329 126.684 264.48ZM127.356 259.062C126.913 258.971 126.852 258.849 127.173 258.667C127.631 258.728 127.692 258.865 127.356 259.062ZM128.028 257.241C127.127 256.679 126.394 255.465 128.058 255.617C128.287 256.178 128.287 256.709 128.028 257.241ZM129.493 247.967C130.394 248.058 129.432 250.32 128.959 250.76C128.272 250.168 128.791 247.891 129.493 247.967ZM129.555 257.256C129.234 257.074 129.295 256.937 129.738 256.861C130.074 257.058 130.013 257.195 129.555 257.256ZM130.745 243.869C131.203 243.93 131.264 244.066 130.929 244.264C130.486 244.173 130.425 244.051 130.745 243.869ZM132.333 248.498C132.333 248.498 132.333 248.498 132.333 248.483C132.165 249.06 131.799 249.47 131.219 249.682C130.761 248.574 131.142 248.164 132.333 248.468C132.379 235.552 135.463 248.513 132.333 248.498ZM146.516 228.449C146.638 229.253 146.302 230.042 145.355 229.177C145.737 228.934 146.134 228.691 146.516 228.449ZM138.669 231.803C137.966 234.353 137.066 230.528 137.005 230.376C138.287 229.769 138.944 230.847 138.669 231.803ZM135.554 221.239C139.753 221.239 134.073 224.943 135.554 221.239ZM137.035 229.314C136.012 229.754 135.295 228.874 135.295 227.811C136.608 227.811 136.47 228.221 137.035 229.314ZM136.501 232.182C134.73 233.488 134.211 233.23 134.913 231.408C135.447 231.666 135.982 231.924 136.501 232.182ZM133.417 223.804C133.356 224.26 133.219 224.32 133.02 223.986C133.112 223.546 133.234 223.485 133.417 223.804ZM131.096 228.236C130.058 228.433 129.875 228.191 129.402 227.295C130.44 227.098 130.623 227.341 131.096 228.236ZM125.997 226.658C126.44 226.733 126.501 226.87 126.181 227.052C125.723 226.992 125.662 226.855 125.997 226.658ZM123.768 228.858C122.852 229.025 122.715 228.555 122.059 227.917C123.02 227.735 123.097 228.145 123.768 228.858ZM111.326 226.43C111.418 226.9 111.494 227.371 111.586 227.857C111.112 227.766 110.654 227.675 110.181 227.599C110.563 227.204 110.929 226.825 111.311 226.445L111.326 226.43ZM100.472 230.118C100.09 229.845 99.815 229.496 99.6471 229.056C100.243 228.949 101.388 229.238 100.472 230.118ZM81.5866 232.364C82.7774 230.589 83.2202 231.014 82.9148 233.624C80.4111 234.231 79.9684 233.806 81.5866 232.364ZM78.9302 229.01C79.5714 229.253 79.4035 229.632 79.0218 230.164C78.6249 229.678 78.6096 229.344 78.9302 229.01ZM74.2128 230.634C74.5029 231.181 74.793 231.727 75.0678 232.273C73.0526 234.277 73.8464 231.651 74.2128 230.634ZM70.4572 234.292C71.816 234.489 72.045 235.946 70.4572 236.037V234.292ZM70.442 234.444C70.1519 234.201 69.9992 234.064 69.8313 233.928C70.3504 233.533 70.3046 233.988 70.442 234.444ZM61.4499 228.084C63.7094 229.982 61.4499 223.425 61.4499 228.084Z" fill="white"/>
<path d="M100.716 388.983C100.716 388.831 100.746 388.634 100.884 388.361C100.991 388.406 101.082 388.467 101.189 388.528C102.12 387.602 102.991 386.645 103.8 385.689C103.723 385.613 103.769 385.537 103.952 385.431C103.983 385.431 103.983 385.431 104.013 385.431C108.242 380.392 110.975 375.141 112.853 370.754C112.502 370.451 112.196 370.178 112.166 370.147C112.227 370.102 112.563 370.345 112.914 370.633C112.944 370.572 112.975 370.496 112.99 370.436C113.891 368.265 114.731 366.08 115.509 363.894C115.357 363.758 115.204 363.621 115.066 363.469C115.219 363.591 115.372 363.727 115.524 363.849C115.876 362.862 116.211 361.876 116.547 360.889C115.57 360.98 114.547 359.993 115.082 358.931C115.876 357.353 116.502 359.083 116.792 360.13C118.074 356.154 119.127 352.131 119.83 347.988C120.532 347.654 121.616 347.062 122.944 346.288C121.814 346.44 121.341 344.785 122.822 344.436C123.448 344.861 124.12 345.271 123.982 345.681C124.44 345.408 124.913 345.119 125.417 344.816C125.356 344.77 125.31 344.725 125.249 344.679C125.31 344.725 125.387 344.755 125.448 344.801C127.066 343.814 128.898 342.676 130.852 341.431C130.058 340.824 129.738 339.853 129.371 338.972C129.585 337.713 131.585 340.05 130.99 341.34C131.448 341.052 131.921 340.748 132.394 340.445C131.967 339.792 131.081 338.578 131.035 338.472C131.524 337.864 132.058 337.288 132.638 336.741C132.76 336.863 132.837 339.079 132.76 340.217C133.28 339.883 133.799 339.549 134.318 339.2C134.348 339.17 134.379 339.139 134.425 339.109C137.676 336.999 141.096 334.723 144.317 332.492C145.63 331.596 146.027 331.596 148.271 331.459C150.027 331.384 151.111 331.338 151.752 331.019C150.897 330.594 149.874 330.701 148.668 331.353C146.272 329.335 149.554 325.464 151.645 327.149C150.867 325.783 149.584 324.129 147.997 322.034C145.89 319.317 145.355 319.059 144.577 319.059C144.043 319.059 143.523 319.317 142.073 319.833C140.623 320.607 140.104 320.865 137.982 321.382C137.661 321.473 137.081 321.564 136.333 321.685C136.272 321.943 136.15 321.958 135.997 321.731C135.753 321.761 135.509 321.791 135.234 321.837C136.119 322.323 136.241 323.127 135.6 324.265C135.188 323.537 134.776 323.537 134.348 324.265C133.997 323.567 134.043 322.763 134.073 321.989C130.623 322.398 125.402 322.914 119.646 323.431C119.57 323.749 119.463 323.78 119.28 323.491C119.28 323.491 119.28 323.476 119.28 323.461C113.723 323.962 107.723 324.447 102.426 324.888C102.624 324.933 102.853 325.009 103.128 325.146C102.533 325.479 101.952 325.798 101.357 326.132C101.357 325.525 101.51 325.115 101.815 324.948C99.5708 325.13 97.4792 325.297 95.6014 325.434C95.6014 325.98 95.3419 326.663 95.1129 327.24C94.7465 326.921 94.1358 326.238 93.8152 325.571C91.3878 325.753 89.4642 325.904 88.304 325.98C88.533 327.119 88.0444 328.029 86.7162 328.97C85.2048 327.346 84.2888 326.178 83.9377 325.404C82.0752 324.538 80.3653 322.687 78.6402 319.075C78.6096 319.181 78.5791 319.333 78.5486 319.454C78.7012 319.682 78.8386 319.909 78.9608 320.137C79.8462 321.822 79.2203 321.017 78.4264 319.94C78.1669 320.957 77.8616 322.323 77.8616 323.992C77.8616 324.265 77.9074 324.569 77.9684 324.872C78.228 324.948 78.5028 325.039 78.7928 325.146C78.5486 325.267 78.3501 325.449 78.1822 325.631C79.373 329.122 83.6476 333.66 85.9071 333.66C86.7468 333.66 90.3802 332.249 92.4718 331.566C92.2886 330.852 92.3496 330.215 92.6702 329.456C92.9756 330.154 93.0519 330.776 92.9145 331.429C93.2351 331.323 93.4946 331.262 93.6778 331.217C94.0748 331.126 94.487 331.05 94.9144 330.959C94.945 330.913 94.9602 330.868 95.006 330.807C95.1434 330.807 95.2656 330.837 95.3724 330.868C98.2273 330.306 101.769 329.744 105.662 329.198C105.677 329.168 105.693 329.152 105.708 329.122C105.769 329.122 105.784 329.152 105.845 329.168C114.074 328.014 123.723 326.982 131.28 326.405C131.402 326.117 131.845 326.026 131.845 326.087C132.547 325.813 132.715 325.313 132.318 324.584C133.493 321.488 133.295 324.523 132.913 326.299C134.333 326.193 135.661 326.117 136.883 326.056C137.218 325.495 137.661 324.781 138.195 323.947C138.302 324.356 138.333 324.766 138.256 325.191C138.012 325.51 137.783 325.783 137.585 326.041C138.898 325.98 140.043 325.95 141.005 325.95C140.791 326.238 140.531 326.557 140.272 326.891C140.714 326.694 141.188 326.587 141.691 326.648C141.982 327.27 141.936 327.878 141.569 328.439C141.066 327.999 140.592 327.528 140.134 327.058C138.226 329.365 135.081 332.522 131.509 335.815C131.89 336.878 130.959 337.257 129.814 337.348C128.562 338.456 127.295 339.564 126.013 340.642C126.745 341.583 127.234 343.495 126.074 343.844C126.135 343.829 124.959 342.22 124.623 341.795C123.921 342.372 123.219 342.949 122.517 343.495C122.517 343.495 122.517 343.511 122.517 343.526C122.517 343.526 122.517 343.526 122.517 343.511C122.135 343.814 121.753 344.118 121.387 344.406C121.646 341.386 116.12 338.001 112.059 337.834C112.212 338.274 112.135 338.714 111.769 339.139C111.494 338.851 111.219 338.547 110.944 338.259C111.067 338.122 111.189 337.971 111.311 337.834C108.868 337.91 107.738 338.639 106.487 339.367C108.578 340.247 110.059 341.006 111.097 341.689C111.067 341.325 111.097 341.006 111.158 340.9C112.059 340.9 112.166 341.629 112.059 342.403C113.448 343.586 113.586 344.573 113.586 345.681C113.586 349.809 110.257 363.758 103.174 377.417C103.418 377.584 103.632 377.782 103.83 378.025C103.632 378.055 103.189 378.085 102.868 378.025C102.059 379.558 101.22 381.075 100.319 382.578C100.731 382.548 101.006 382.639 101.036 382.942C100.746 387.495 99.9677 388.3 98.7158 385.325C98.6395 385.386 98.5632 385.431 98.4868 385.477C97.0976 387.586 95.6167 389.651 94.029 391.593C94.5786 392.094 95.1282 392.58 95.3114 392.747C94.9144 393.05 94.8534 392.868 94.777 392.565C94.777 392.625 94.777 392.671 94.777 392.701C94.4259 392.337 94.1358 392.049 93.8763 391.776C93.174 392.625 92.4565 393.475 91.7237 394.28L92.6397 395.312C95.7236 393.369 98.3647 391.214 100.67 388.952L100.716 388.983ZM144.073 331.308C143.615 331.095 143.249 330.792 142.943 330.397C143.386 330.321 144.974 330.245 144.073 331.308ZM143.737 328.652C143.936 328.318 144.073 328.378 144.134 328.834C143.951 329.152 143.814 329.092 143.737 328.652ZM145.844 330.109C145.386 330.048 145.325 329.911 145.661 329.714C146.104 329.805 146.165 329.927 145.844 330.109ZM148.424 324.007C148.18 324.265 147.981 324.265 147.829 324.007C148.073 323.749 148.271 323.749 148.424 324.007ZM143.859 322.702C143.569 323.066 148.134 322.019 146.333 323.719C145.844 323.719 142.104 324.872 143.859 322.702ZM142.684 325.571C143.127 325.662 143.188 325.783 142.867 325.965C142.409 325.904 142.348 325.768 142.684 325.571ZM79.2356 324.356C80.35 324.356 80.3348 324.068 80.579 325.313C79.5104 325.889 79.0676 325.571 79.2356 324.356ZM85.2812 332.583C82.9148 331.475 82.8538 330.503 85.1132 329.653C86.3651 330.078 85.2812 331.323 85.2812 332.583ZM98.2273 328.606C99.1891 328.424 99.2654 328.834 99.9372 329.547C99.0212 329.714 98.8838 329.244 98.2273 328.606ZM101.754 327.741C101.296 327.68 101.235 327.544 101.571 327.346C102.013 327.437 102.075 327.559 101.754 327.741ZM129.249 323.309C129.188 323.764 129.051 323.825 128.852 323.491C128.944 323.051 129.066 322.99 129.249 323.309ZM124.104 324.493C124.288 324.174 124.425 324.235 124.501 324.675C124.303 325.009 124.165 324.948 124.104 324.493ZM125.142 325.191C125.631 324.796 125.967 324.781 126.303 325.1C126.058 325.737 125.677 325.571 125.142 325.191ZM128.181 325.206C128.455 324.827 128.806 324.554 129.249 324.387C129.356 324.979 129.066 326.117 128.181 325.206ZM139.646 332.006C143.814 332.006 138.211 335.36 139.646 332.006ZM139.386 335.299C138.882 335.406 136.867 335.8 137.89 334.48C138.394 334.768 138.882 335.041 139.386 335.299ZM137.707 333.478C137.463 333.736 137.264 333.736 137.111 333.478C137.356 333.22 137.554 333.22 137.707 333.478ZM120.257 344.968C120.837 346.03 120.517 346.47 119.295 346.303C119.295 345.195 119.005 345.21 120.257 344.968ZM119.83 341.765C119.585 342.023 119.387 342.023 119.234 341.765C119.479 341.507 119.677 341.507 119.83 341.765ZM118.334 352.131C117.906 351.737 117.906 351.342 118.334 350.948C118.761 351.342 118.761 351.737 118.334 352.131ZM117.646 339.807C118.104 339.868 118.166 340.005 117.83 340.202C117.387 340.111 117.326 339.989 117.646 339.807ZM116.105 348.656C117.341 348.595 116.288 349.87 117.219 350.28C116.105 350.447 114.899 348.716 116.105 348.656ZM113.067 362.134C112.425 361.891 112.593 361.511 112.975 360.98C113.372 361.466 113.387 361.8 113.067 362.134ZM113.463 358.172C113.921 358.233 113.983 358.369 113.647 358.567C113.204 358.476 113.143 358.354 113.463 358.172ZM113.204 359.447C112.96 360.085 112.578 359.918 112.044 359.538C112.532 359.144 112.868 359.128 113.204 359.447ZM110.899 369.601C110.502 370.026 110.105 370.026 109.708 369.601C110.105 369.176 110.502 369.176 110.899 369.601ZM110.227 367.264C109.861 366.839 109.509 366.429 109.143 366.004C109.143 363.029 110.212 365.64 110.227 367.264ZM105.739 377.099C105.739 377.099 107.509 379.117 107.418 379.026C105.708 380.165 104.792 379.406 105.739 377.099ZM104.029 381.758C104.7 383.064 104.929 383.064 104.013 384.126C103.678 383.61 103.54 382.244 104.029 381.758Z" fill="white"/>
<path d="M87.0064 326.056C86.9148 326.056 86.8079 326.056 86.7163 326.056C86.7621 326.147 86.7926 326.223 86.8384 326.314C86.8995 326.238 86.9606 326.147 87.0064 326.071V326.056Z" fill="white"/>
<path d="M148.745 450.058C150.775 447.341 152.622 444.503 154.287 441.573C153.523 441.088 152.851 440.344 153.401 439.904C153.752 439.616 154.332 440.071 154.806 440.648C155.523 439.327 156.21 437.992 156.836 436.641C156.729 436.534 156.775 436.459 156.958 436.398C157.477 435.244 157.981 434.091 158.439 432.907L157.523 432.133C154.439 436.276 151.325 440.056 148.256 443.531C148.638 443.456 148.806 443.85 149.05 444.913C148.088 445.914 147.264 446.081 146.577 445.413C143.646 448.616 140.776 451.53 137.982 454.156C138.623 454.778 138.791 456.311 138.379 456.842C137.615 457.814 137.173 456.296 136.883 455.188C134.745 457.176 132.654 458.982 130.654 460.652C131.799 460.773 132.257 461.137 130.196 462.23C129.982 461.912 129.875 461.638 129.753 461.395C128.287 462.579 126.883 463.687 125.524 464.704C125.906 465.038 126.303 465.372 126.471 465.873C126.455 465.873 126.425 465.873 126.394 465.873C126.974 466.04 127.387 466.404 127.616 466.981C126.501 467.436 126.089 467.057 126.394 465.873C125.967 465.858 125.081 465.706 124.654 465.357C119.601 469.091 115.372 471.625 112.517 473.128C112.883 473.674 112.868 474.221 112.425 474.782C112.151 474.494 111.876 474.19 111.601 473.902C111.754 473.72 111.906 473.553 112.074 473.371C110.105 474.372 108.868 474.858 108.548 474.858C108.151 474.858 108.151 474.6 108.151 472.657C108.151 463.247 108.41 435.017 108.807 426.487C108.716 426.669 108.563 426.806 108.258 426.836C109.006 426.76 106.746 425.546 106.975 425.728C106.38 426.472 106.029 426.244 105.891 425.015C104.242 419.93 108.487 423.983 108.853 425.925C109.143 422.131 109.754 418.64 110.257 416.91C110.395 416.272 111.448 413.176 111.448 412.387C111.448 411.233 110.792 410.323 110.135 409.807C109.036 408.85 107.342 407.697 105.51 406.695C105.708 407.53 105.616 408.35 105.25 409.139C105.281 408.183 104.838 407.682 103.907 407.651C104.029 406.832 104.777 406.665 105.418 406.65C103.097 405.39 100.563 404.388 98.6701 404.388C96.0289 404.388 93.8 405.936 92.4718 406.71C100.243 409.807 100.899 411.491 101.296 414.33C101.861 418.078 101.937 433.059 101.952 440.708C102.075 440.86 102.059 441.042 101.952 441.255C101.952 442.302 101.952 443.197 101.952 443.88C101.952 461.168 101.815 468.134 100.899 472.779C100.762 473.431 99.5861 477.044 99.5861 477.818C99.5861 479.108 104.594 488.397 107.097 488.397C108.41 488.397 108.807 487.881 112.105 483.616C113.158 482.326 120.272 477.681 121.723 476.528C124.303 474.509 126.868 472.43 129.402 470.274C129.402 470.001 129.417 469.683 129.402 469.288C129.6 469.44 129.799 469.591 129.997 469.758C131.066 468.848 132.119 467.907 133.157 466.966C133.112 466.92 133.081 466.875 133.02 466.829C133.096 466.829 133.188 466.844 133.264 466.859C133.86 466.328 134.455 465.782 135.035 465.235C134.776 465.099 134.531 464.962 134.226 464.765C133.692 463.794 134.822 461.638 135.676 461.198C136.18 462.154 136.531 462.913 136.776 463.581C140.989 459.513 144.928 455.203 148.409 450.589C148.439 450.392 148.5 450.21 148.638 450.027C148.684 450.058 148.714 450.088 148.76 450.103L148.745 450.058ZM110.013 410.748C111.311 412.22 110.196 412.797 109.143 411.613C109.433 411.324 109.723 411.036 110.013 410.748ZM109.067 414.087C107.403 417.046 106.807 416.591 107.28 412.736C108.67 412.387 108.319 412.994 109.067 414.087ZM107.265 408.759C106.853 409.078 106.792 408.85 106.716 408.517C106.487 408.319 106.319 408.183 106.181 408.061C106.609 408.198 106.96 408.425 107.265 408.759ZM97.2961 405.041C97.4793 404.722 97.6167 404.783 97.693 405.223C97.4945 405.557 97.3571 405.496 97.2961 405.041ZM107.693 440.299C108.593 440.663 108.471 442.393 107.723 443.243C105.769 442.939 107.158 441.012 107.693 440.299ZM106.517 471.094C106.105 470.624 106.105 470.624 106.38 469.227C106.807 470.047 106.838 470.578 106.517 471.094ZM106.532 430.873C107.174 431.905 106.914 432.315 105.723 432.087C105.433 431.268 106.532 431.556 106.532 430.873ZM105.784 429.78C106.426 429.993 106.029 430.539 106.135 430.919C105.728 430.686 105.611 430.307 105.784 429.78ZM104.716 431.587C105.052 431.784 104.99 431.92 104.532 431.981C104.212 431.799 104.273 431.662 104.716 431.587ZM102.242 436.808C102.7 437.278 102.578 437.597 102.41 437.976C101.693 437.703 101.876 437.324 102.242 436.808ZM101.662 472.961C101.235 472.566 101.235 472.172 101.662 471.777C102.09 472.172 102.09 472.566 101.662 472.961ZM101.922 445.171C104.181 445.171 102.502 450.073 101.922 445.171ZM103.143 473.841C103.387 473.583 103.586 473.583 103.739 473.841C103.494 474.099 103.296 474.099 103.143 473.841ZM101.952 428.839C102.563 428.339 103.158 428.339 103.754 428.839C103.143 429.34 102.548 429.34 101.952 428.839ZM104.716 440.465C105.265 440.344 105.525 441.877 105.479 442.105C103.876 442.105 102.945 441.847 104.716 440.465ZM105.296 454.596C104.41 454.596 103.907 453.776 104.548 452.911C105.708 453.2 105.952 453.761 105.296 454.596ZM103.815 460.879C104.487 460.424 104.99 460.621 105.784 460.788C104.792 461.259 104.594 461.654 103.815 460.879ZM104.884 477.362C105.739 476.664 106.319 476.907 106.624 478.091C105.784 478.956 105.006 478.03 104.884 477.362ZM106.945 483.13C105.906 482.417 105.922 481.794 107.021 481.248C108.151 482.371 107.876 482.128 106.945 483.13ZM110.41 482.826C110.471 482.371 110.609 482.31 110.807 482.644C110.715 483.084 110.593 483.145 110.41 482.826ZM112.196 478.804C111.891 478.273 111.983 477.939 112.486 477.803C112.578 477.772 112.929 478.774 112.196 478.804ZM115.066 477.393C115.311 477.135 115.509 477.135 115.662 477.393C115.418 477.651 115.219 477.651 115.066 477.393ZM120.12 475.329C119.86 475.086 119.86 474.888 120.12 474.737C120.379 474.98 120.379 475.177 120.12 475.329ZM129.066 464.674C128.639 464.279 128.639 463.885 129.066 463.49C129.493 463.885 129.493 464.279 129.066 464.674ZM140.272 453.898C139.951 453.716 140.012 453.579 140.455 453.503C140.791 453.7 140.73 453.837 140.272 453.898ZM141.478 456.857C141.386 456.888 141.035 455.886 141.768 455.856C142.073 456.387 141.982 456.721 141.478 456.857Z" fill="white"/>
<path d="M68.7321 480.702C68.4726 480.155 68.4115 479.563 68.839 478.895C69.1138 479.108 69.3886 479.336 69.6328 479.563C69.7855 479.366 69.9687 479.153 70.1214 478.956C72.3656 476.042 74.2128 473.082 75.77 470.123C75.5563 470.001 75.3578 469.85 75.1899 469.652C75.4342 469.728 75.6479 469.85 75.8464 469.986C81.7698 458.618 83.0675 447.189 83.6934 437.278C83.8308 435.609 83.953 426.957 84.0904 425.015C84.2278 424.241 85.1438 420.886 85.1438 420.112C85.1438 419.171 84.3346 418.185 83.098 417.274C84.411 419.126 79.2814 417.547 82.4874 416.849C79.9684 415.21 76.1975 413.935 73.6785 413.935C70.5183 413.935 68.4115 415.878 67.0833 417.153C76.4418 419.217 76.4418 420.128 76.4418 431.086C76.4418 439.418 76.2586 448.707 72.9762 459.286C73.0526 459.286 73.0984 459.286 73.19 459.286C73.2816 459.741 73.1747 460.758 72.5793 460.53C71.7702 462.989 70.7778 465.509 69.587 468.104C67.297 473.007 64.5032 477.727 61.2056 482.083C61.5262 482.235 61.6484 482.523 61.114 483.024C60.824 483.115 60.6255 483.084 60.4728 483.024C57.7096 486.56 54.6104 489.839 51.1296 492.753L51.7861 493.648C59.1752 490.658 64.778 485.437 68.7016 480.686L68.7321 480.702ZM83.2812 424.484C83.6171 424.681 83.556 424.817 83.098 424.878C82.7774 424.696 82.8385 424.559 83.2812 424.484ZM78.1211 422.313C77.7242 422.738 77.3272 422.738 76.9303 422.313C77.3272 421.888 77.7242 421.888 78.1211 422.313ZM77.144 446.992C77.5562 447.463 77.5562 447.462 77.2814 448.859C76.854 448.039 76.8234 447.508 77.144 446.992ZM75.0983 461.851C75.6632 461.745 77.0677 461.912 76.0448 462.883C75.251 463.111 74.9456 462.777 75.0983 461.851ZM70.3962 469.925C70.3962 471.14 70.1366 471.823 70.9916 472.673C69.5107 473.401 67.2512 470.624 70.3962 469.925ZM59.1141 489.034C59.1141 488.958 58.8698 486.682 59.3584 486.591C59.6637 486.545 61.0835 488.655 59.1141 489.034ZM67.2818 480.732C67.5871 481.263 67.4955 481.597 66.9917 481.734C66.9001 481.764 66.549 480.762 67.2818 480.732ZM66.5948 474.813C66.9306 475.01 66.8696 475.147 66.4116 475.207C66.091 475.025 66.152 474.889 66.5948 474.813ZM64.717 480.064C64.9765 480.307 64.9765 480.504 64.717 480.656C64.4574 480.413 64.4574 480.216 64.717 480.064Z" fill="white"/>
<path d="M96.5785 599.133C95.5251 599.042 94.8534 598.419 95.7541 597.251C96.4564 597.736 96.7312 598.359 96.5938 599.118C98.4716 597.964 98.0899 602.244 98.38 602.533C98.4563 601.03 98.4716 599.376 98.4716 597.661C98.4716 597.296 98.4716 596.674 98.4411 595.915C98.4105 595.915 98.38 595.9 98.3495 595.885C98.38 595.854 98.4105 595.824 98.4411 595.794C98.3495 591.65 98.0747 583.029 98.0747 580.768C98.0747 569.02 98.2121 557.03 98.3342 545.282C103.342 547.665 108.364 550.428 113.372 553.873C113.173 553.554 113.234 553.251 113.57 552.932C113.967 553.311 113.983 553.676 113.631 554.055C118.303 557.288 122.929 561.113 127.463 565.818C130.364 568.793 131.677 570.068 133.386 570.068C135.234 570.068 136.425 568.261 136.425 565.165C136.425 562.327 135.234 559.61 133.264 557.819C132.898 557.485 132.501 557.151 132.119 556.817C132.012 557.151 131.6 557.516 130.608 557.728C130.608 556.726 130.929 556.256 131.264 556.119C122.425 549.183 107.632 544.493 98.4716 542.459C98.609 536.783 98.7311 521.302 100.181 516.915C100.67 515.276 101.525 512.711 101.937 511.254C101.082 510.875 101.54 510.01 102.029 509.387C101.907 509.038 101.708 508.704 101.464 508.386C100.12 508.81 99.5097 509.6 98.3953 507.961C98.3953 507.02 99.7082 507.247 100.746 507.627C99.525 506.534 97.6625 505.638 95.7541 504.955C95.7083 504.986 95.6625 504.955 95.6167 504.91C92.7771 503.908 89.907 503.392 88.991 503.392C88.7315 503.392 85.0369 503.513 80.4264 506.367C86.3804 508.067 89.8459 509.327 91.0062 512.271C91.0367 512.256 91.0825 512.225 91.1131 512.21C91.1283 512.332 91.1436 512.453 91.1283 512.575C91.1589 512.666 91.2047 512.726 91.2199 512.817C92.1359 516.05 92.1359 529.331 92.1359 533.338C92.1359 535.508 91.9527 545.92 91.6627 557.455C91.8001 557.334 91.9527 557.212 92.1512 557.106C92.426 557.804 92.1207 558.487 91.6321 559.064C91.5558 562.251 91.4642 565.499 91.3573 568.656C91.6474 568.55 92.0749 568.444 92.7008 568.368C93.6321 569.233 94.2733 569.127 95.2198 568.322C95.6473 570.159 92.4871 569.977 91.3268 569.415C91.281 570.766 91.2352 572.086 91.1894 573.391C93.2351 574.575 91.9222 574.985 91.1589 574.378C90.9909 579.341 90.7925 583.803 90.594 587.142C90.6551 586.991 90.7925 586.884 91.0215 586.824C91.1131 586.793 91.4642 587.795 90.7314 587.825C90.6398 587.659 90.594 587.522 90.5787 587.385C90.4413 589.616 90.3039 591.331 90.1513 592.272C90.0597 592.804 89.5406 596.021 89.22 598.055C89.8154 598.055 90.5177 598.389 89.7391 599.133C89.4948 598.951 89.3116 598.738 89.1437 598.495C89.0368 599.194 88.9605 599.694 88.9605 599.755C88.9605 601.167 90.0139 609.438 94.5023 609.438C97.1281 609.438 98.0136 606.98 98.3037 603.519C94.5023 603.808 90.5329 603.307 96.5633 599.178L96.5785 599.133ZM133.829 561.204C134.257 561.598 134.257 561.993 133.829 562.388C133.402 561.993 133.402 561.598 133.829 561.204ZM129.661 558.669C130.074 559.625 130.074 560.415 129.661 561.371C129.249 560.415 129.249 559.625 129.661 558.669ZM129.646 562.357C130.104 562.828 129.982 563.147 129.814 563.526C129.097 563.253 129.28 562.873 129.646 562.357ZM124.043 557.956C126.379 555.436 125.829 559.838 124.043 557.956ZM121.921 559.458C121.463 558.988 121.585 558.669 121.753 558.29C122.471 558.563 122.288 558.942 121.921 559.458ZM120.608 553.023C122.425 553.236 121.662 556.848 120.425 555.573C120.425 554.996 120.196 553.539 120.608 553.023ZM107.372 547.665C109.662 547.225 107.372 544.144 107.372 547.665ZM96.2885 594.367C95.861 593.972 95.861 593.578 96.2885 593.183C96.7159 593.578 96.7159 593.972 96.2885 594.367ZM97.5251 592.136C96.3495 590.618 95.1129 589.859 96.9755 588.539C98.5479 590.102 98.2273 590.254 97.5251 592.136ZM96.6701 568.11C96.9144 567.472 97.2961 567.639 97.8304 568.019C97.3419 568.413 97.006 568.428 96.6701 568.11ZM97.4487 532.214C97.0671 531.562 97.0823 530.924 97.5098 530.287C98.2121 531.774 98.3189 531.334 97.4487 532.214ZM98.3189 511.209C97.9067 511.527 97.8457 511.3 97.7693 510.966C97.5403 510.768 97.3724 510.632 97.235 510.51C97.6625 510.647 98.0136 510.875 98.3189 511.209ZM97.0976 512.696C98.2121 512.696 98.1968 512.408 98.4411 513.652C97.3724 514.229 96.9297 513.91 97.0976 512.696ZM96.8839 522.121C98.2884 522.121 97.6777 523.867 97.7388 524.838C97.2045 524.216 95.8305 523.017 96.8839 522.121ZM96.2885 543.446C95.7847 542.839 95.7847 542.247 96.2885 541.655C96.7923 542.262 96.7923 542.854 96.2885 543.446ZM96.1511 548.014C95.6778 548.105 95.2045 548.181 94.716 548.272C94.8076 547.802 94.8992 547.347 94.9755 546.876C95.3725 547.256 95.7541 547.62 96.1358 547.999L96.1511 548.014ZM95.9526 534.552C95.9526 538.27 92.9603 534.552 95.9526 534.552ZM94.2122 554.389C93.9679 554.647 93.7695 554.647 93.6168 554.389C93.8611 554.131 94.0595 554.131 94.2122 554.389ZM93.5405 564.528C93.8763 564.194 94.2122 563.86 94.5633 563.511C94.6702 563.693 95.403 565.12 95.403 564.831C95.403 566.243 93.8305 564.588 93.5557 564.513L93.5405 564.528ZM94.8076 572.162C97.922 569.066 95.4183 577.747 94.8076 572.162ZM91.6321 571.767C91.2199 571.358 91.2047 571.358 91.4795 569.916C91.9375 570.705 91.9375 571.236 91.6321 571.767ZM91.8306 591.711C91.5863 591.969 91.3879 591.969 91.2352 591.711C91.4795 591.453 91.6779 591.453 91.8306 591.711ZM91.6016 603.261C90.3955 603.261 89.0826 600.377 90.7925 599.831C93.1893 599.072 91.7695 602.745 91.6016 603.261ZM93.9069 574.833C94.3343 575.228 94.3343 575.623 93.9069 576.017C93.4794 575.623 93.4794 575.228 93.9069 574.833ZM92.3191 590.967C93.8 590.755 93.9985 591.665 93.4489 593.138C92.9756 592.971 92.7466 591.423 92.3191 590.967Z" fill="white"/>
<path d="M25.3399 424.709C25.1666 424.709 25.0799 424.629 25.0799 424.469C25.0799 424.309 25.2533 424.196 25.5999 424.129C25.8399 424.102 26.0799 424.076 26.3199 424.049C26.7999 423.956 27.2066 423.802 27.5399 423.589C27.9799 423.309 28.2599 422.849 28.3799 422.209C28.4599 421.796 28.4933 421.463 28.4799 421.209C28.4533 420.583 28.4333 420.202 28.4199 420.069L16.3599 420.069C15.8799 420.069 15.5799 420.196 15.4599 420.449C15.3933 420.582 15.3533 420.956 15.3399 421.569C15.3266 421.729 15.2666 421.809 15.1599 421.809C15.0399 421.809 14.9799 421.702 14.9799 421.489C14.9799 421.382 14.9866 421.289 14.9999 421.209C15.0266 420.409 15.0399 419.842 15.0399 419.509C15.0399 419.069 15.0333 418.656 15.0199 418.269C15.0066 417.882 14.9999 417.389 14.9999 416.789C14.9999 416.482 15.0533 416.329 15.1599 416.329C15.2799 416.329 15.3466 416.616 15.3599 417.189C15.3599 417.602 15.4466 417.869 15.6199 417.989C15.7266 418.056 15.9999 418.089 16.4399 418.089L28.4199 418.089C28.4066 416.769 28.3399 415.949 28.2199 415.629C27.9133 414.789 27.0933 414.296 25.7599 414.149C25.3599 414.109 25.1599 414.016 25.1599 413.869C25.1599 413.709 25.2999 413.629 25.5799 413.629C25.7266 413.629 25.8733 413.636 26.0199 413.649L26.4799 413.689C27.0933 413.729 27.8999 413.789 28.8999 413.869L28.8999 414.769L28.8399 418.849C28.8266 419.329 28.8333 420.076 28.8599 421.089L28.9199 424.409C28.1733 424.436 27.0666 424.522 25.5999 424.669C25.5599 424.669 25.5066 424.676 25.4399 424.689C25.3866 424.702 25.3533 424.709 25.3399 424.709Z" fill="#EE562B"/>
<path d="M19.46 408.383C19.4866 408.383 19.3066 408.369 18.92 408.343C18.1466 408.289 17.4 408.263 16.68 408.263C16.6 408.263 16.4333 408.276 16.18 408.303C15.94 408.329 15.6466 408.343 15.3 408.343L15.12 408.343C14.9466 408.343 14.86 408.289 14.86 408.183C14.86 408.076 14.96 407.983 15.16 407.903C15.6 407.716 15.8866 407.529 16.02 407.343C15.18 406.383 14.76 405.229 14.76 403.883C14.76 401.923 15.44 400.296 16.8 399.003C18.1733 397.723 19.9 397.083 21.98 397.083C24.0733 397.083 25.78 397.669 27.1 398.843C28.4333 400.029 29.1 401.556 29.1 403.423C29.1 404.103 29.04 404.643 28.92 405.043C28.8133 405.456 28.5866 405.963 28.24 406.563C28.0666 406.856 27.98 407.076 27.98 407.223C27.98 407.343 28.0866 407.456 28.3 407.563C28.6733 407.736 28.86 407.876 28.86 407.983C28.86 408.089 28.8066 408.143 28.7 408.143C28.6466 408.143 28.56 408.129 28.44 408.103C27.8 407.956 26.6 407.883 24.84 407.883C24.5866 407.883 24.44 407.863 24.4 407.823C24.36 407.783 24.34 407.729 24.34 407.663C24.34 407.529 24.4666 407.443 24.72 407.403C25.7866 407.229 26.58 406.983 27.1 406.663C28.1666 406.009 28.7 404.983 28.7 403.583C28.7 402.503 28.34 401.649 27.62 401.023C26.3266 399.889 24.4333 399.323 21.94 399.323C19.7133 399.323 17.9866 399.789 16.76 400.723C15.6933 401.536 15.16 402.616 15.16 403.963C15.16 404.656 15.3266 405.289 15.66 405.863C16.0066 406.436 16.4733 406.876 17.06 407.183C17.74 407.529 18.48 407.776 19.28 407.923C19.6 407.976 19.76 408.063 19.76 408.183C19.76 408.316 19.66 408.383 19.46 408.383Z" fill="#EE562B"/>
<path d="M18.24 391.822C18.1866 391.822 17.86 391.809 17.26 391.782C16.66 391.755 16.0866 391.742 15.54 391.742L14.88 391.742C14.9466 390.435 14.98 387.849 14.98 383.982C14.98 383.515 14.9733 383.055 14.96 382.602C14.96 382.149 14.96 381.842 14.96 381.682L14.96 381.482C14.96 381.229 15.02 381.102 15.14 381.102C15.22 381.102 15.2666 381.142 15.28 381.222C15.28 381.262 15.3 381.515 15.34 381.982C15.3666 382.329 15.44 382.535 15.56 382.602C15.68 382.682 15.9933 382.722 16.5 382.722L27.74 382.722C28.1266 382.722 28.3533 382.662 28.42 382.542C28.5 382.435 28.54 382.075 28.54 381.462C28.54 381.249 28.6 381.142 28.72 381.142C28.84 381.142 28.9 381.289 28.9 381.582L28.88 385.002C28.88 385.122 28.8866 385.875 28.9 387.262C28.9 388.649 28.9 389.582 28.9 390.062C28.9 390.462 28.9266 390.829 28.98 391.162C28.4066 391.189 27.6133 391.249 26.6 391.342L25.74 391.422C25.6733 391.435 25.5866 391.442 25.48 391.442C25.3466 391.442 25.28 391.382 25.28 391.262C25.28 391.115 25.4466 391.009 25.78 390.942C26.98 390.689 27.74 390.275 28.06 389.702C28.3 389.275 28.42 388.155 28.42 386.342L28.42 384.702L22.56 384.702L22.56 385.182C22.56 386.675 22.6733 387.582 22.9 387.902C23.1266 388.235 23.7866 388.462 24.88 388.582C25.16 388.609 25.3 388.682 25.3 388.802C25.3 388.949 25.18 389.022 24.94 389.022C24.7 389.022 24.3466 389.009 23.88 388.982C23.4133 388.955 23.06 388.942 22.82 388.942C21.3933 388.942 20.4133 388.969 19.88 389.022C19.7466 389.035 19.6333 389.042 19.54 389.042C19.3666 389.042 19.28 388.969 19.28 388.822C19.28 388.729 19.3333 388.662 19.44 388.622C19.56 388.595 19.9333 388.542 20.56 388.462C21.3466 388.355 21.8333 388.029 22.02 387.482C22.1 387.242 22.14 386.615 22.14 385.602L22.14 384.702L15.42 384.702C15.42 387.635 15.48 389.355 15.6 389.862C15.8 390.742 16.6533 391.242 18.16 391.362C18.4933 391.389 18.66 391.475 18.66 391.622C18.66 391.755 18.52 391.822 18.24 391.822Z" fill="#EE562B"/>
<path d="M28.6999 376.24C28.5932 376.24 28.5399 376.1 28.5399 375.82C28.5399 375.313 28.5199 375 28.4799 374.88C28.4532 374.76 28.3999 374.686 28.3199 374.66C28.2399 374.646 27.9799 374.64 27.5399 374.64L21.1199 374.64C21.1199 374.64 20.4999 374.646 19.2599 374.66C18.3399 374.673 17.5866 374.673 16.9999 374.66C16.1732 374.633 15.5532 374.573 15.1399 374.48C14.4466 374.32 13.8532 373.926 13.3599 373.3C12.8532 372.673 12.5999 372.006 12.5999 371.3C12.5999 370.78 12.7399 370.36 13.0199 370.04C13.2866 369.72 13.6399 369.56 14.0799 369.56C14.8399 369.56 15.2199 369.933 15.2199 370.68C15.2199 370.986 15.1266 371.24 14.9399 371.44C14.7532 371.653 14.5132 371.76 14.2199 371.76C13.9666 371.76 13.7399 371.673 13.5399 371.5C13.3932 371.38 13.2799 371.32 13.1999 371.32C13.0799 371.32 13.0199 371.42 13.0199 371.62C13.0199 372.046 13.2799 372.346 13.7999 372.52C14.0799 372.613 14.8999 372.66 16.2599 372.66L27.6799 372.66C28.1066 372.66 28.3732 372.533 28.4799 372.28C28.5199 372.16 28.5399 371.84 28.5399 371.32C28.5399 371.08 28.5532 370.926 28.5799 370.86C28.6066 370.806 28.6466 370.78 28.6999 370.78C28.8332 370.78 28.8999 370.886 28.8999 371.1C28.8999 371.14 28.8932 371.32 28.8799 371.64C28.8666 372.053 28.8599 372.393 28.8599 372.66L28.8999 375.6C28.8999 376.026 28.8332 376.24 28.6999 376.24Z" fill="#EE562B"/>
<path d="M21.86 365.185C19.8733 365.185 18.1933 364.585 16.82 363.385C15.4466 362.198 14.76 360.738 14.76 359.005C14.76 357.165 15.4533 355.618 16.84 354.365C18.24 353.112 19.96 352.485 22 352.485C24.08 352.485 25.78 353.085 27.1 354.285C28.4333 355.498 29.1 357.045 29.1 358.925C29.1 360.698 28.4066 362.185 27.02 363.385C25.6333 364.585 23.9133 365.185 21.86 365.185ZM21.76 362.945C24.2 362.945 26.1 362.445 27.46 361.445C28.3133 360.818 28.74 359.945 28.74 358.825C28.74 357.758 28.4133 356.932 27.76 356.345C26.56 355.265 24.6066 354.725 21.9 354.725C19.7533 354.725 18.0866 355.098 16.9 355.845C15.7133 356.605 15.12 357.665 15.12 359.025C15.12 360.292 15.68 361.245 16.8 361.885C18.04 362.592 19.6933 362.945 21.76 362.945Z" fill="#EE562B"/>
<path d="M15.5999 347.747C15.0399 347.747 14.7599 347.28 14.7599 346.347C14.7599 345.307 15.1932 344.494 16.0599 343.907C16.4332 343.654 16.7932 343.487 17.1399 343.407C17.4866 343.34 18.3666 343.234 19.7799 343.087C20.6332 343.007 21.2332 342.734 21.5799 342.267C21.9399 341.8 22.1332 341.04 22.1599 339.987L15.8599 339.987C15.5932 339.987 15.4266 340.2 15.3599 340.627C15.3466 340.747 15.3332 341.054 15.3199 341.547C15.3199 341.72 15.2666 341.807 15.1599 341.807C15.0399 341.807 14.9799 341.694 14.9799 341.467L14.9799 341.227C14.9932 341.107 14.9999 340.527 14.9999 339.487C14.9999 339.287 14.9932 338.947 14.9799 338.467C14.9799 338 14.9799 337.694 14.9799 337.547L14.9799 336.767C14.9799 336.474 15.0399 336.327 15.1599 336.327C15.2532 336.327 15.3066 336.52 15.3199 336.907C15.3332 337.534 15.4132 337.874 15.5599 337.927C15.6266 337.98 15.8866 338.007 16.3399 338.007L27.3799 338.007C27.9132 338.007 28.2332 337.947 28.3399 337.827C28.4466 337.72 28.5066 337.38 28.5199 336.807C28.5199 336.474 28.5799 336.307 28.6999 336.307C28.8332 336.307 28.8999 336.414 28.8999 336.627C28.8999 336.667 28.8932 336.727 28.8799 336.807L28.8199 339.467C28.8199 339.734 28.8266 340.107 28.8399 340.587C28.8666 341.12 28.8799 341.494 28.8799 341.707C28.8799 342.947 28.5999 343.927 28.0399 344.647C27.4932 345.38 26.7466 345.747 25.7999 345.747C24.8666 345.747 24.0932 345.374 23.4799 344.627C22.8799 343.88 22.5266 342.867 22.4199 341.587C22.4066 341.467 22.3866 341.4 22.3599 341.387C22.3066 341.387 22.2799 341.454 22.2799 341.587C22.0399 342.987 21.5466 343.947 20.7999 344.467C20.0666 345 18.7332 345.354 16.7999 345.527C15.7066 345.634 15.1599 346.007 15.1599 346.647C15.1599 346.847 15.1999 346.947 15.2799 346.947C15.2932 346.947 15.3066 346.94 15.3199 346.927C15.4666 346.86 15.5866 346.827 15.6799 346.827C15.9599 346.827 16.0999 346.974 16.0999 347.267C16.0999 347.587 15.9332 347.747 15.5999 347.747ZM25.6199 343.607C27.5266 343.607 28.4799 342.78 28.4799 341.127C28.4799 340.687 28.4199 340.387 28.2999 340.227C28.1799 340.067 27.9666 339.987 27.6599 339.987L22.5799 339.987C22.5666 341.267 22.7999 342.187 23.2799 342.747C23.7599 343.32 24.5399 343.607 25.6199 343.607Z" fill="#EE562B"/>
<path d="M25.5599 331.749C24.2666 331.749 23.2599 331.196 22.5399 330.089C22.0866 329.396 21.8599 328.516 21.8599 327.449C21.8599 326.996 21.9066 326.482 21.9999 325.909L16.3199 325.909C16.0132 325.909 15.8199 325.922 15.7399 325.949C15.5532 326.016 15.4399 326.162 15.3999 326.389C15.3466 326.776 15.3199 327.149 15.3199 327.509C15.3199 327.656 15.2732 327.729 15.1799 327.729C15.0466 327.729 14.9799 327.636 14.9799 327.449C14.9799 327.369 14.9866 327.302 14.9999 327.249C14.9866 326.516 14.9799 325.136 14.9799 323.109L14.9799 322.849C14.9799 322.449 15.0466 322.249 15.1799 322.249C15.2732 322.249 15.3199 322.389 15.3199 322.669C15.3199 323.296 15.3799 323.656 15.4999 323.749C15.5532 323.856 15.6866 323.916 15.8999 323.929L27.6999 323.929C28.1132 323.929 28.3666 323.816 28.4599 323.589C28.5132 323.456 28.5399 323.222 28.5399 322.889L28.5399 322.689C28.5266 322.649 28.5199 322.602 28.5199 322.549C28.5199 322.349 28.5799 322.249 28.6999 322.249C28.8332 322.249 28.8999 322.436 28.8999 322.809L28.8999 327.209C28.8999 328.729 28.6332 329.842 28.0999 330.549C27.4999 331.349 26.6532 331.749 25.5599 331.749ZM25.5199 329.649C27.5199 329.649 28.5199 328.809 28.5199 327.129C28.5199 326.569 28.4266 326.202 28.2399 326.029C28.1599 325.949 27.9532 325.909 27.6199 325.909L22.2999 325.909C22.2866 326.016 22.2799 326.136 22.2799 326.269C22.2799 327.149 22.4732 327.896 22.8599 328.509C23.3399 329.269 24.2266 329.649 25.5199 329.649Z" fill="#EE562B"/>
<path d="M19.22 310.517C19.1 310.517 19.04 310.457 19.04 310.337L19.06 309.877C19.0866 309.264 18.98 308.917 18.74 308.837C18.58 308.784 18 308.757 17 308.757L16.36 308.757C15.7733 308.077 15.36 307.417 15.12 306.777C14.88 306.151 14.76 305.397 14.76 304.517C14.76 302.411 15.3866 300.737 16.64 299.497C17.9066 298.257 19.62 297.637 21.78 297.637C23.9666 297.637 25.7333 298.244 27.08 299.457C28.4266 300.671 29.1 302.271 29.1 304.257C29.1 305.124 28.86 306.071 28.38 307.097C28.2333 307.404 28.16 307.657 28.16 307.857C28.16 308.111 28.32 308.277 28.64 308.357C28.8266 308.424 28.92 308.504 28.92 308.597C28.92 308.704 28.8666 308.757 28.76 308.757C28.72 308.757 28.58 308.744 28.34 308.717C27.58 308.637 27.0333 308.597 26.7 308.597L25.4 308.617C24.9333 308.631 24.7266 308.637 24.78 308.637C24.46 308.611 24.3 308.524 24.3 308.377C24.3 308.257 24.3933 308.191 24.58 308.177C25.8733 308.111 26.8866 307.737 27.62 307.057C28.3666 306.377 28.74 305.484 28.74 304.377C28.74 302.991 28.12 301.891 26.88 301.077C25.64 300.277 23.9533 299.877 21.82 299.877C19.7666 299.877 18.1333 300.284 16.92 301.097C15.72 301.924 15.12 303.037 15.12 304.437C15.12 305.504 15.4266 306.237 16.04 306.637C16.3466 306.837 16.9 306.937 17.7 306.937C18.3666 306.937 18.76 306.871 18.88 306.737C19 306.617 19.0533 306.184 19.04 305.437C19.04 305.251 19.0466 305.131 19.06 305.077C19.0866 305.024 19.1333 304.997 19.2 304.997C19.3466 304.997 19.42 305.144 19.42 305.437L19.42 305.797C19.38 305.997 19.3666 306.704 19.38 307.917L19.4 309.597C19.4 309.691 19.4066 309.791 19.42 309.897C19.42 310.004 19.42 310.077 19.42 310.117C19.42 310.384 19.3533 310.517 19.22 310.517Z" fill="#EE562B"/>
<path d="M28.6999 292.492C28.5666 292.492 28.5066 292.326 28.5199 291.992L28.5399 291.552L28.5399 291.192C28.5399 290.979 28.4999 290.852 28.4199 290.812C28.3532 290.772 28.1332 290.752 27.7599 290.752L16.2399 290.752C15.5332 290.752 15.1199 290.746 14.9999 290.732C14.8799 290.719 14.8199 290.679 14.8199 290.612C14.8199 290.532 14.8932 290.439 15.0399 290.332L18.7799 287.772C20.9532 286.292 23.6666 284.492 26.9199 282.372L15.7599 282.392C15.5866 282.406 15.4732 282.506 15.4199 282.692C15.3799 282.879 15.3532 283.326 15.3399 284.032C15.3399 284.206 15.2866 284.292 15.1799 284.292C15.0466 284.292 14.9799 284.119 14.9799 283.772C14.9799 283.652 14.9999 283.272 15.0399 282.632C15.0532 282.419 15.0599 282.212 15.0599 282.012C15.0599 282.026 15.0466 281.906 15.0199 281.652C14.9932 281.412 14.9799 281.039 14.9799 280.532L14.9799 280.332C14.9799 280.026 15.0399 279.872 15.1599 279.872C15.2799 279.872 15.3399 280.006 15.3399 280.272C15.3532 281.059 15.3999 281.512 15.4799 281.632C15.5732 281.766 15.8599 281.832 16.3399 281.832L26.1999 281.832C27.3066 281.832 27.9999 281.606 28.2799 281.152C28.4132 280.939 28.4799 280.559 28.4799 280.012C28.4799 279.666 28.5466 279.492 28.6799 279.492C28.7999 279.492 28.8599 279.592 28.8599 279.792C28.8599 280.059 28.8532 280.399 28.8399 280.812C28.8266 281.226 28.8199 281.446 28.8199 281.472C28.8199 281.512 28.8266 281.699 28.8399 282.032C28.8399 282.472 28.8466 282.899 28.8599 283.312L18.5999 290.212L27.4999 290.212C27.9132 290.212 28.1599 290.206 28.2399 290.192C28.3332 290.179 28.3999 290.126 28.4399 290.032C28.4932 289.939 28.5199 289.619 28.5199 289.072C28.5199 288.592 28.5799 288.352 28.6999 288.352C28.8332 288.352 28.8999 288.512 28.8999 288.832L28.8999 289.532C28.8999 289.706 28.8999 289.892 28.8999 290.092C28.8866 290.306 28.8799 290.432 28.8799 290.472C28.8799 290.486 28.8866 290.606 28.8999 290.832C28.8999 291.046 28.8999 291.246 28.8999 291.432L28.8999 292.052C28.8999 292.346 28.8332 292.492 28.6999 292.492Z" fill="#EE562B"/>
<path d="M15.1599 275.123C15.0532 275.123 14.9999 275.043 14.9999 274.883L14.9999 274.683C15.0399 274.603 15.0599 273.697 15.0599 271.963C15.0599 271.63 15.0466 271.297 15.0199 270.963C15.0066 270.79 14.9999 270.523 14.9999 270.163C14.9999 269.99 15.0599 269.903 15.1799 269.903C15.2866 269.903 15.3466 270.077 15.3599 270.423C15.3732 270.957 15.4332 271.27 15.5399 271.363C15.6599 271.457 16.0466 271.503 16.6999 271.503L27.2199 271.503C27.8732 271.503 28.2399 271.47 28.3199 271.403C28.4532 271.323 28.5332 270.957 28.5599 270.303C28.5732 270.05 28.6266 269.923 28.7199 269.923C28.8399 269.923 28.8999 270.003 28.8999 270.163L28.8599 272.863C28.8599 273.063 28.8666 273.45 28.8799 274.023L28.8999 274.783C28.8999 274.997 28.8399 275.103 28.7199 275.103C28.6132 275.103 28.5466 274.81 28.5199 274.223C28.5066 273.89 28.4466 273.683 28.3399 273.603C28.2332 273.537 27.9532 273.503 27.4999 273.503L16.8199 273.503C16.0599 273.503 15.6466 273.537 15.5799 273.603C15.4332 273.75 15.3466 274.183 15.3199 274.903C15.3199 275.05 15.2666 275.123 15.1599 275.123Z" fill="#EE562B"/>
<path d="M25.5599 265.245C24.2666 265.245 23.2599 264.692 22.5399 263.585C22.0866 262.892 21.8599 262.012 21.8599 260.945C21.8599 260.492 21.9066 259.978 21.9999 259.405L16.3199 259.405C16.0132 259.405 15.8199 259.418 15.7399 259.445C15.5532 259.512 15.4399 259.658 15.3999 259.885C15.3466 260.272 15.3199 260.645 15.3199 261.005C15.3199 261.152 15.2732 261.225 15.1799 261.225C15.0466 261.225 14.9799 261.132 14.9799 260.945C14.9799 260.865 14.9866 260.798 14.9999 260.745C14.9866 260.012 14.9799 258.632 14.9799 256.605L14.9799 256.345C14.9799 255.945 15.0466 255.745 15.1799 255.745C15.2732 255.745 15.3199 255.885 15.3199 256.165C15.3199 256.792 15.3799 257.152 15.4999 257.245C15.5532 257.352 15.6866 257.412 15.8999 257.425L27.6999 257.425C28.1132 257.425 28.3666 257.312 28.4599 257.085C28.5132 256.952 28.5399 256.718 28.5399 256.385L28.5399 256.185C28.5266 256.145 28.5199 256.098 28.5199 256.045C28.5199 255.845 28.5799 255.745 28.6999 255.745C28.8332 255.745 28.8999 255.932 28.8999 256.305L28.8999 260.705C28.8999 262.225 28.6332 263.338 28.0999 264.045C27.4999 264.845 26.6532 265.245 25.5599 265.245ZM25.5199 263.145C27.5199 263.145 28.5199 262.305 28.5199 260.625C28.5199 260.065 28.4266 259.698 28.2399 259.525C28.1599 259.445 27.9532 259.405 27.6199 259.405L22.2999 259.405C22.2866 259.512 22.2799 259.632 22.2799 259.765C22.2799 260.645 22.4732 261.392 22.8599 262.005C23.3399 262.765 24.2266 263.145 25.5199 263.145Z" fill="#EE562B"/>
<path d="M28.7199 251.497C28.6133 251.497 28.5599 251.383 28.5599 251.157C28.5466 250.423 28.4199 249.97 28.1799 249.797C28.0333 249.637 26.8999 249.063 24.7799 248.077C23.8333 247.637 22.9999 247.223 22.2799 246.837C21.7866 246.57 21.4466 246.417 21.2599 246.377C21.0866 246.337 20.6999 246.317 20.0999 246.317L16.3199 246.317C15.8799 246.317 15.6199 246.37 15.5399 246.477C15.4599 246.597 15.3999 246.997 15.3599 247.677C15.3333 248.037 15.2666 248.217 15.1599 248.217C15.0533 248.217 14.9999 248.123 14.9999 247.937L14.9999 247.697L15.0599 244.897C15.0599 244.11 15.0466 243.463 15.0199 242.957C15.0066 242.877 14.9999 242.783 14.9999 242.677C14.9999 242.49 15.0599 242.397 15.1799 242.397C15.2999 242.397 15.3666 242.55 15.3799 242.857C15.4066 243.59 15.4733 244.023 15.5799 244.157C15.6866 244.29 16.0066 244.357 16.5399 244.357L20.7599 244.357C21.0533 244.223 21.8333 243.837 23.0999 243.197L27.0599 241.197C27.4466 240.997 27.8799 240.757 28.3599 240.477C28.4933 240.33 28.5599 240.01 28.5599 239.517C28.5599 239.037 28.6333 238.797 28.7799 238.797C28.8866 238.797 28.9399 238.903 28.9399 239.117C28.9399 239.397 28.9266 239.957 28.8999 240.797C28.8866 241.277 28.8799 241.623 28.8799 241.837L28.8999 244.157C28.9133 244.25 28.9199 244.357 28.9199 244.477C28.9199 244.717 28.8533 244.837 28.7199 244.837C28.5999 244.837 28.5399 244.61 28.5399 244.157C28.5399 243.33 28.3933 242.917 28.0999 242.917C27.8733 242.917 26.9599 243.337 25.3599 244.177L21.8999 245.997C22.4999 246.33 23.2399 246.71 24.1199 247.137L26.4999 248.317C27.3533 248.757 27.9133 248.977 28.1799 248.977C28.3533 248.977 28.4533 248.863 28.4799 248.637C28.5466 248.17 28.5733 247.857 28.5599 247.697C28.5466 247.403 28.6133 247.257 28.7599 247.257C28.8666 247.257 28.9199 247.383 28.9199 247.637L28.8999 248.797L28.9199 249.457C28.9599 250.817 28.8933 251.497 28.7199 251.497Z" fill="#EE562B"/>
<path d="M25.3399 234.838C25.1666 234.838 25.0799 234.758 25.0799 234.598C25.0799 234.438 25.2533 234.325 25.5999 234.258C25.8399 234.231 26.0799 234.205 26.3199 234.178C26.7999 234.085 27.2066 233.931 27.5399 233.718C27.9799 233.438 28.2599 232.978 28.3799 232.338C28.4599 231.925 28.4933 231.591 28.4799 231.338C28.4533 230.711 28.4333 230.331 28.4199 230.198L16.3599 230.198C15.8799 230.198 15.5799 230.325 15.4599 230.578C15.3933 230.711 15.3533 231.085 15.3399 231.698C15.3266 231.858 15.2666 231.938 15.1599 231.938C15.0399 231.938 14.9799 231.831 14.9799 231.618C14.9799 231.511 14.9866 231.418 14.9999 231.338C15.0266 230.538 15.0399 229.971 15.0399 229.638C15.0399 229.198 15.0333 228.785 15.0199 228.398C15.0066 228.011 14.9999 227.518 14.9999 226.918C14.9999 226.611 15.0533 226.458 15.1599 226.458C15.2799 226.458 15.3466 226.745 15.3599 227.318C15.3599 227.731 15.4466 227.998 15.6199 228.118C15.7266 228.185 15.9999 228.218 16.4399 228.218L28.4199 228.218C28.4066 226.898 28.3399 226.078 28.2199 225.758C27.9133 224.918 27.0933 224.425 25.7599 224.278C25.3599 224.238 25.1599 224.145 25.1599 223.998C25.1599 223.838 25.2999 223.758 25.5799 223.758C25.7266 223.758 25.8733 223.765 26.0199 223.778L26.4799 223.818C27.0933 223.858 27.8999 223.918 28.8999 223.998L28.8999 224.898L28.8399 228.978C28.8266 229.458 28.8333 230.205 28.8599 231.218L28.9199 234.538C28.1733 234.565 27.0666 234.651 25.5999 234.798C25.5599 234.798 25.5066 234.805 25.4399 234.818C25.3866 234.831 25.3533 234.838 25.3399 234.838Z" fill="#EE562B"/>
<path d="M21.86 218.584C19.8733 218.584 18.1933 217.984 16.82 216.784C15.4466 215.597 14.76 214.137 14.76 212.404C14.76 210.564 15.4533 209.017 16.84 207.764C18.24 206.51 19.96 205.884 22 205.884C24.08 205.884 25.78 206.484 27.1 207.684C28.4333 208.897 29.1 210.444 29.1 212.324C29.1 214.097 28.4066 215.584 27.02 216.784C25.6333 217.984 23.9133 218.584 21.86 218.584ZM21.76 216.344C24.2 216.344 26.1 215.844 27.46 214.844C28.3133 214.217 28.74 213.344 28.74 212.224C28.74 211.157 28.4133 210.33 27.76 209.744C26.56 208.664 24.6066 208.124 21.9 208.124C19.7533 208.124 18.0866 208.497 16.9 209.244C15.7133 210.004 15.12 211.064 15.12 212.424C15.12 213.69 15.68 214.644 16.8 215.284C18.04 215.99 19.6933 216.344 21.76 216.344Z" fill="#EE562B"/>
<path d="M25.3399 200.725C25.1666 200.725 25.0799 200.645 25.0799 200.485C25.0799 200.325 25.2533 200.211 25.5999 200.145C25.8399 200.118 26.0799 200.091 26.3199 200.065C26.7999 199.971 27.2066 199.818 27.5399 199.605C27.9799 199.325 28.2599 198.865 28.3799 198.225C28.4599 197.811 28.4933 197.478 28.4799 197.225C28.4533 196.598 28.4333 196.218 28.4199 196.085L16.3599 196.085C15.8799 196.085 15.5799 196.211 15.4599 196.465C15.3933 196.598 15.3533 196.971 15.3399 197.585C15.3266 197.745 15.2666 197.825 15.1599 197.825C15.0399 197.825 14.9799 197.718 14.9799 197.505C14.9799 197.398 14.9866 197.305 14.9999 197.225C15.0266 196.425 15.0399 195.858 15.0399 195.525C15.0399 195.085 15.0333 194.671 15.0199 194.285C15.0066 193.898 14.9999 193.405 14.9999 192.805C14.9999 192.498 15.0533 192.345 15.1599 192.345C15.2799 192.345 15.3466 192.631 15.3599 193.205C15.3599 193.618 15.4466 193.885 15.6199 194.005C15.7266 194.071 15.9999 194.105 16.4399 194.105L28.4199 194.105C28.4066 192.785 28.3399 191.965 28.2199 191.645C27.9133 190.805 27.0933 190.311 25.7599 190.165C25.3599 190.125 25.1599 190.031 25.1599 189.885C25.1599 189.725 25.2999 189.645 25.5799 189.645C25.7266 189.645 25.8733 189.651 26.0199 189.665L26.4799 189.705C27.0933 189.745 27.8999 189.805 28.8999 189.885L28.8999 190.785L28.8399 194.865C28.8266 195.345 28.8333 196.091 28.8599 197.105L28.9199 200.425C28.1733 200.451 27.0666 200.538 25.5999 200.685C25.5599 200.685 25.5066 200.691 25.4399 200.705C25.3866 200.718 25.3533 200.725 25.3399 200.725Z" fill="#EE562B"/>
<path d="M21.86 184.47C19.8733 184.47 18.1933 183.87 16.82 182.67C15.4466 181.484 14.76 180.024 14.76 178.29C14.76 176.45 15.4533 174.904 16.84 173.65C18.24 172.397 19.96 171.77 22 171.77C24.08 171.77 25.78 172.37 27.1 173.57C28.4333 174.784 29.1 176.33 29.1 178.21C29.1 179.984 28.4066 181.47 27.02 182.67C25.6333 183.87 23.9133 184.47 21.86 184.47ZM21.76 182.23C24.2 182.23 26.1 181.73 27.46 180.73C28.3133 180.104 28.74 179.23 28.74 178.11C28.74 177.044 28.4133 176.217 27.76 175.63C26.56 174.55 24.6066 174.01 21.9 174.01C19.7533 174.01 18.0866 174.384 16.9 175.13C15.7133 175.89 15.12 176.95 15.12 178.31C15.12 179.577 15.68 180.53 16.8 181.17C18.04 181.877 19.6933 182.23 21.76 182.23Z" fill="#EE562B"/>
<path d="M15.6 167.032C15.04 167.032 14.76 166.566 14.76 165.632C14.76 164.592 15.1934 163.779 16.06 163.192C16.4334 162.939 16.7934 162.772 17.14 162.692C17.4867 162.626 18.3667 162.519 19.78 162.372C20.6334 162.292 21.2334 162.019 21.58 161.552C21.94 161.086 22.1334 160.326 22.16 159.272L15.86 159.272C15.5934 159.272 15.4267 159.486 15.36 159.912C15.3467 160.032 15.3334 160.339 15.32 160.832C15.32 161.006 15.2667 161.092 15.16 161.092C15.04 161.092 14.98 160.979 14.98 160.752L14.98 160.512C14.9934 160.392 15 159.812 15 158.772C15 158.572 14.9934 158.232 14.98 157.752C14.98 157.286 14.98 156.979 14.98 156.832L14.98 156.052C14.98 155.759 15.04 155.612 15.16 155.612C15.2534 155.612 15.3067 155.806 15.32 156.192C15.3334 156.819 15.4134 157.159 15.56 157.212C15.6267 157.266 15.8867 157.292 16.34 157.292L27.38 157.292C27.9134 157.292 28.2334 157.232 28.34 157.112C28.4467 157.006 28.5067 156.666 28.52 156.092C28.52 155.759 28.58 155.592 28.7 155.592C28.8334 155.592 28.9 155.699 28.9 155.912C28.9 155.952 28.8934 156.012 28.88 156.092L28.82 158.752C28.82 159.019 28.8267 159.392 28.84 159.872C28.8667 160.406 28.88 160.779 28.88 160.992C28.88 162.232 28.6 163.212 28.04 163.932C27.4934 164.666 26.7467 165.032 25.8 165.032C24.8667 165.032 24.0934 164.659 23.48 163.912C22.88 163.166 22.5267 162.152 22.42 160.872C22.4067 160.752 22.3867 160.686 22.36 160.672C22.3067 160.672 22.28 160.739 22.28 160.872C22.04 162.272 21.5467 163.232 20.8 163.752C20.0667 164.286 18.7334 164.639 16.8 164.812C15.7067 164.919 15.16 165.292 15.16 165.932C15.16 166.132 15.2 166.232 15.28 166.232C15.2934 166.232 15.3067 166.226 15.32 166.212C15.4667 166.146 15.5867 166.112 15.68 166.112C15.96 166.112 16.1 166.259 16.1 166.552C16.1 166.872 15.9334 167.032 15.6 167.032ZM25.62 162.892C27.5267 162.892 28.48 162.066 28.48 160.412C28.48 159.972 28.42 159.672 28.3 159.512C28.18 159.352 27.9667 159.272 27.66 159.272L22.58 159.272C22.5667 160.552 22.8 161.472 23.28 162.032C23.76 162.606 24.54 162.892 25.62 162.892Z" fill="#EE562B"/>
<path d="M25.56 151.034C24.2667 151.034 23.26 150.481 22.54 149.374C22.0867 148.681 21.86 147.801 21.86 146.734C21.86 146.281 21.9067 145.768 22 145.194L16.32 145.194C16.0134 145.194 15.82 145.208 15.74 145.234C15.5534 145.301 15.44 145.448 15.4 145.674C15.3467 146.061 15.32 146.434 15.32 146.794C15.32 146.941 15.2734 147.014 15.18 147.014C15.0467 147.014 14.98 146.921 14.98 146.734C14.98 146.654 14.9867 146.588 15 146.534C14.9867 145.801 14.98 144.421 14.98 142.394L14.98 142.134C14.98 141.734 15.0467 141.534 15.18 141.534C15.2734 141.534 15.32 141.674 15.32 141.954C15.32 142.581 15.38 142.941 15.5 143.034C15.5534 143.141 15.6867 143.201 15.9 143.214L27.7 143.214C28.1134 143.214 28.3667 143.101 28.46 142.874C28.5134 142.741 28.54 142.508 28.54 142.174L28.54 141.974C28.5267 141.934 28.52 141.888 28.52 141.834C28.52 141.634 28.58 141.534 28.7 141.534C28.8334 141.534 28.9 141.721 28.9 142.094L28.9 146.494C28.9 148.014 28.6334 149.128 28.1 149.834C27.5 150.634 26.6534 151.034 25.56 151.034ZM25.52 148.934C27.52 148.934 28.52 148.094 28.52 146.414C28.52 145.854 28.4267 145.488 28.24 145.314C28.16 145.234 27.9534 145.194 27.62 145.194L22.3 145.194C22.2867 145.301 22.28 145.421 22.28 145.554C22.28 146.434 22.4734 147.181 22.86 147.794C23.34 148.554 24.2267 148.934 25.52 148.934Z" fill="#EE562B"/>
<path d="M18.96 136.781L18.96 131.281L20 131.281L20 136.781L18.96 136.781Z" fill="#EE562B"/>
<path d="M25.5599 126.981C25.3732 126.981 25.2799 126.914 25.2799 126.781C25.2799 126.648 25.4466 126.554 25.7799 126.501C26.7399 126.341 27.4399 126.014 27.8799 125.521C28.1599 125.201 28.3333 124.708 28.3999 124.041C28.4266 123.801 28.4399 123.268 28.4399 122.441C28.4399 121.828 28.4199 121.094 28.3799 120.241L22.5399 120.241C22.5266 121.948 22.6333 123.001 22.8599 123.401C23.0999 123.801 23.7599 124.041 24.8399 124.121C25.1466 124.148 25.2999 124.228 25.2999 124.361C25.2999 124.494 25.1999 124.561 24.9999 124.561C24.8799 124.561 24.7799 124.554 24.6999 124.541C23.7799 124.501 22.9266 124.481 22.1399 124.481C21.1266 124.481 20.3266 124.508 19.7399 124.561C19.6866 124.574 19.6066 124.581 19.4999 124.581C19.3399 124.581 19.2599 124.514 19.2599 124.381C19.2599 124.274 19.2999 124.208 19.3799 124.181C19.4599 124.154 19.7666 124.108 20.2999 124.041C21.1133 123.934 21.6199 123.721 21.8199 123.401C22.0199 123.094 22.1199 122.474 22.1199 121.541C22.1199 121.048 22.1066 120.614 22.0799 120.241L20.0399 120.261L16.1199 120.221C15.7333 120.221 15.4866 120.374 15.3799 120.681C15.3266 120.828 15.3066 121.154 15.3199 121.661C15.3199 121.874 15.2666 121.981 15.1599 121.981C15.0399 121.981 14.9799 121.848 14.9799 121.581L14.9799 121.381C14.9799 121.194 14.9866 120.941 14.9999 120.621C14.9999 120.314 14.9999 120.108 14.9999 120.001L14.9799 117.021C14.9799 116.768 15.0332 116.641 15.1399 116.641C15.2466 116.641 15.3132 116.868 15.3399 117.321C15.3666 117.788 15.4266 118.061 15.5199 118.141C15.6266 118.221 15.9399 118.261 16.4599 118.261L27.9399 118.241C28.1799 118.228 28.3266 118.154 28.3799 118.021C28.4466 117.901 28.4866 117.561 28.4999 117.001C28.4999 116.788 28.5733 116.681 28.7199 116.681C28.8533 116.681 28.9199 116.801 28.9199 117.041L28.9199 117.361C28.9199 117.334 28.9133 117.974 28.8999 119.281C28.8866 120.601 28.8799 121.681 28.8799 122.521C28.8799 124.774 28.9332 126.154 29.0399 126.661C28.8666 126.674 28.3666 126.714 27.5399 126.781C26.9799 126.821 26.4799 126.874 26.0399 126.941C25.8533 126.968 25.6932 126.981 25.5599 126.981Z" fill="#EE562B"/>
<path d="M18.8999 111.54C17.7533 111.54 16.7733 111.1 15.9599 110.22C15.1599 109.353 14.7599 108.307 14.7599 107.08C14.7599 106.36 14.9799 105.5 15.4199 104.5C15.5399 104.233 15.5999 104.033 15.5999 103.9C15.5999 103.74 15.4066 103.64 15.0199 103.6C14.8199 103.587 14.7199 103.5 14.7199 103.34C14.7199 103.207 14.7999 103.14 14.9599 103.14C15.0666 103.14 15.1466 103.147 15.1999 103.16C16.0133 103.267 16.7666 103.32 17.4599 103.32C17.5933 103.32 17.9666 103.307 18.5799 103.28C18.6599 103.267 18.7666 103.26 18.8999 103.26C19.0999 103.26 19.1999 103.34 19.1999 103.5C19.1999 103.633 19.0399 103.727 18.7199 103.78C16.3466 104.127 15.1599 105.253 15.1599 107.16C15.1599 107.973 15.3866 108.6 15.8399 109.04C16.3066 109.493 16.9599 109.72 17.7999 109.72C18.5466 109.72 19.1799 109.5 19.6999 109.06C20.2333 108.633 20.7599 107.893 21.2799 106.84C21.9066 105.573 22.5133 104.693 23.0999 104.2C23.6866 103.707 24.4133 103.46 25.2799 103.46C26.3866 103.46 27.2999 103.813 28.0199 104.52C28.7399 105.24 29.0999 106.147 29.0999 107.24C29.0999 107.693 28.9466 108.32 28.6399 109.12C28.5333 109.4 28.4799 109.607 28.4799 109.74C28.4799 109.887 28.5066 109.98 28.5599 110.02C28.6133 110.073 28.7533 110.12 28.9799 110.16C29.1133 110.187 29.1799 110.26 29.1799 110.38C29.1799 110.513 29.0999 110.58 28.9399 110.58C28.8333 110.58 28.7533 110.573 28.6999 110.56C28.3799 110.52 27.9933 110.5 27.5399 110.5C26.8999 110.5 26.3933 110.533 26.0199 110.6L25.6999 110.62C25.5533 110.633 25.4799 110.573 25.4799 110.44C25.4799 110.293 25.6333 110.193 25.9399 110.14C26.7266 109.993 27.3799 109.647 27.8999 109.1C28.4333 108.553 28.6999 107.94 28.6999 107.26C28.6999 106.593 28.4866 106.06 28.0599 105.66C27.6333 105.273 27.0533 105.08 26.3199 105.08C25.4666 105.08 24.7799 105.367 24.2599 105.94C23.9666 106.26 23.5533 106.953 23.0199 108.02C22.3933 109.273 21.7533 110.173 21.0999 110.72C20.4599 111.267 19.7266 111.54 18.8999 111.54Z" fill="#EE562B"/>
<path d="M21.86 89.6148C19.8733 89.6148 18.1933 89.0148 16.82 87.8148C15.4466 86.6281 14.76 85.1681 14.76 83.4348C14.76 81.5948 15.4533 80.0481 16.84 78.7948C18.24 77.5415 19.96 76.9148 22 76.9148C24.08 76.9148 25.78 77.5148 27.1 78.7148C28.4333 79.9281 29.1 81.4748 29.1 83.3548C29.1 85.1281 28.4066 86.6148 27.02 87.8148C25.6333 89.0148 23.9133 89.6148 21.86 89.6148ZM21.76 87.3748C24.2 87.3748 26.1 86.8748 27.46 85.8748C28.3133 85.2481 28.74 84.3748 28.74 83.2548C28.74 82.1881 28.4133 81.3615 27.76 80.7748C26.56 79.6948 24.6066 79.1548 21.9 79.1548C19.7533 79.1548 18.0866 79.5281 16.9 80.2748C15.7133 81.0348 15.12 82.0948 15.12 83.4548C15.12 84.7215 15.68 85.6748 16.8 86.3148C18.04 87.0215 19.6933 87.3748 21.76 87.3748Z" fill="#EE562B"/>
<path d="M15.16 72.6144C15.04 72.6144 14.98 72.5211 14.98 72.3344L14.98 72.1744L15 69.7744L14.98 67.4344C14.9667 67.3544 14.96 67.2677 14.96 67.1744C14.96 66.9211 15.0133 66.7944 15.12 66.7944C15.2267 66.7944 15.2933 66.9611 15.32 67.2944C15.3867 67.9877 15.5 68.3344 15.66 68.3344C15.8333 68.3344 18 66.5144 22.16 62.8744L16.38 62.8744C15.9133 62.8744 15.62 62.9477 15.5 63.0944C15.3933 63.2411 15.34 63.6344 15.34 64.2744C15.34 64.4211 15.2733 64.4944 15.14 64.4944C15.02 64.4944 14.96 64.4011 14.96 64.2144C14.96 64.0811 14.9667 63.9611 14.98 63.8544L15.02 61.0744C15.02 60.9011 15.0133 60.6944 15 60.4544C14.9733 60.2277 14.96 59.9944 14.96 59.7544L14.96 59.5744C14.96 59.3744 15.02 59.2744 15.14 59.2744C15.2733 59.2744 15.3467 59.5211 15.36 60.0144C15.3733 60.4677 15.4733 60.7344 15.66 60.8144C15.7267 60.8544 16.1467 60.8744 16.92 60.8744L28.06 60.8544C28.34 60.8411 28.48 60.4811 28.48 59.7744C28.48 59.4544 28.5533 59.2944 28.7 59.2944C28.82 59.2944 28.88 59.4077 28.88 59.6344C28.88 59.7011 28.8733 59.7877 28.86 59.8944C28.8333 60.1077 28.82 60.7011 28.82 61.6744C28.82 62.7144 28.8333 63.3744 28.86 63.6544C28.8733 63.8011 28.88 63.9544 28.88 64.1144C28.88 64.3544 28.8067 64.4744 28.66 64.4744C28.58 64.4744 28.5267 64.4344 28.5 64.3544C28.4867 64.2877 28.4733 64.0611 28.46 63.6744C28.4467 63.2877 28.3933 63.0544 28.3 62.9744C28.2067 62.9077 27.9067 62.8744 27.4 62.8744L22.52 62.8744L24.22 64.5744C26.7933 67.1477 28.1333 68.4344 28.24 68.4344C28.4133 68.4344 28.4933 68.1211 28.48 67.4944C28.4667 67.0944 28.5333 66.8944 28.68 66.8944C28.7733 66.8944 28.8267 66.9877 28.84 67.1744C28.8533 67.3611 28.86 68.0077 28.86 69.1144L28.86 70.2144C28.86 70.6811 28.8533 70.9477 28.84 71.0144C28.8133 71.1477 28.7467 71.2144 28.64 71.2144C28.4933 71.2144 28.42 71.0677 28.42 70.7744C28.4333 70.1611 28.42 69.7677 28.38 69.5944C28.34 69.4211 28.2333 69.2477 28.06 69.0744C27.1533 68.2077 25.7933 66.8877 23.98 65.1144L23.46 64.5944L23.18 64.3344C23.0867 64.4144 22.7267 64.7477 22.1 65.3344C20.94 66.4544 19.08 68.0611 16.52 70.1544C15.9867 70.5944 15.6667 70.8944 15.56 71.0544C15.4533 71.2277 15.3867 71.5544 15.36 72.0344C15.3333 72.4211 15.2667 72.6144 15.16 72.6144Z" fill="#EE562B"/>
<path d="M15.16 55.2941C15.04 55.2941 14.98 55.2008 14.98 55.0141L14.98 54.8541L15 52.4541L14.98 50.1141C14.9667 50.0341 14.96 49.9474 14.96 49.8541C14.96 49.6008 15.0133 49.4741 15.12 49.4741C15.2267 49.4741 15.2933 49.6408 15.32 49.9741C15.3867 50.6674 15.5 51.0141 15.66 51.0141C15.8333 51.0141 18 49.1941 22.16 45.5541L16.38 45.5541C15.9133 45.5541 15.62 45.6274 15.5 45.7741C15.3933 45.9208 15.34 46.3141 15.34 46.9541C15.34 47.1008 15.2733 47.1741 15.14 47.1741C15.02 47.1741 14.96 47.0808 14.96 46.8941C14.96 46.7608 14.9667 46.6408 14.98 46.5341L15.02 43.7541C15.02 43.5808 15.0133 43.3741 15 43.1341C14.9733 42.9074 14.96 42.6741 14.96 42.4341L14.96 42.2541C14.96 42.0541 15.02 41.9541 15.14 41.9541C15.2733 41.9541 15.3467 42.2008 15.36 42.6941C15.3733 43.1474 15.4733 43.4141 15.66 43.4941C15.7267 43.5341 16.1467 43.5541 16.92 43.5541L28.06 43.5341C28.34 43.5208 28.48 43.1608 28.48 42.4541C28.48 42.1341 28.5533 41.9741 28.7 41.9741C28.82 41.9741 28.88 42.0874 28.88 42.3141C28.88 42.3808 28.8733 42.4674 28.86 42.5741C28.8333 42.7874 28.82 43.3808 28.82 44.3541C28.82 45.3941 28.8333 46.0541 28.86 46.3341C28.8733 46.4808 28.88 46.6341 28.88 46.7941C28.88 47.0341 28.8067 47.1541 28.66 47.1541C28.58 47.1541 28.5267 47.1141 28.5 47.0341C28.4867 46.9674 28.4733 46.7408 28.46 46.3541C28.4467 45.9674 28.3933 45.7341 28.3 45.6541C28.2067 45.5874 27.9067 45.5541 27.4 45.5541L22.52 45.5541L24.22 47.2541C26.7933 49.8274 28.1333 51.1141 28.24 51.1141C28.4133 51.1141 28.4933 50.8008 28.48 50.1741C28.4667 49.7741 28.5333 49.5741 28.68 49.5741C28.7733 49.5741 28.8267 49.6674 28.84 49.8541C28.8533 50.0408 28.86 50.6874 28.86 51.7941L28.86 52.8941C28.86 53.3608 28.8533 53.6274 28.84 53.6941C28.8133 53.8274 28.7467 53.8941 28.64 53.8941C28.4933 53.8941 28.42 53.7474 28.42 53.4541C28.4333 52.8408 28.42 52.4474 28.38 52.2741C28.34 52.1008 28.2333 51.9274 28.06 51.7541C27.1533 50.8874 25.7933 49.5674 23.98 47.7941L23.46 47.2741L23.18 47.0141C23.0867 47.0941 22.7267 47.4274 22.1 48.0141C20.94 49.1341 19.08 50.7408 16.52 52.8341C15.9867 53.2741 15.6667 53.5741 15.56 53.7341C15.4533 53.9074 15.3867 54.2341 15.36 54.7141C15.3333 55.1008 15.2667 55.2941 15.16 55.2941Z" fill="#EE562B"/>
<path d="M15.16 36.885C15.0534 36.885 15 36.805 15 36.645L15 36.445C15.04 36.365 15.06 35.4584 15.06 33.725C15.06 33.3917 15.0467 33.0584 15.02 32.725C15.0067 32.5517 15 32.285 15 31.925C15 31.7517 15.06 31.665 15.18 31.665C15.2867 31.665 15.3467 31.8384 15.36 32.185C15.3734 32.7184 15.4334 33.0317 15.54 33.125C15.66 33.2184 16.0467 33.265 16.7 33.265L27.22 33.265C27.8734 33.265 28.24 33.2317 28.32 33.165C28.4534 33.085 28.5334 32.7184 28.56 32.065C28.5734 31.8117 28.6267 31.685 28.72 31.685C28.84 31.685 28.9 31.765 28.9 31.925L28.86 34.625C28.86 34.825 28.8667 35.2117 28.88 35.785L28.9 36.545C28.9 36.7584 28.84 36.865 28.72 36.865C28.6134 36.865 28.5467 36.5717 28.52 35.985C28.5067 35.6517 28.4467 35.445 28.34 35.365C28.2334 35.2984 27.9534 35.265 27.5 35.265L16.82 35.265C16.06 35.265 15.6467 35.2984 15.58 35.365C15.4334 35.5117 15.3467 35.945 15.32 36.665C15.32 36.8117 15.2667 36.885 15.16 36.885Z" fill="#EE562B"/>
<path d="M28.7 26.8401C28.5667 26.8401 28.5067 26.6734 28.52 26.3401L28.54 25.9001L28.54 25.5401C28.54 25.3268 28.5 25.2001 28.42 25.1601C28.3534 25.1201 28.1334 25.1001 27.76 25.1001L16.24 25.1001C15.5334 25.1001 15.12 25.0934 15 25.0801C14.88 25.0668 14.82 25.0268 14.82 24.9601C14.82 24.8801 14.8934 24.7868 15.04 24.6801L18.78 22.1201C20.9534 20.6401 23.6667 18.8401 26.92 16.7201L15.76 16.7401C15.5867 16.7534 15.4734 16.8534 15.42 17.0401C15.38 17.2268 15.3534 17.6734 15.34 18.3801C15.34 18.5534 15.2867 18.6401 15.18 18.6401C15.0467 18.6401 14.98 18.4668 14.98 18.1201C14.98 18.0001 15 17.6201 15.04 16.9801C15.0534 16.7668 15.06 16.5601 15.06 16.3601C15.06 16.3734 15.0467 16.2534 15.02 16.0001C14.9934 15.7601 14.98 15.3868 14.98 14.8801L14.98 14.6801C14.98 14.3734 15.04 14.2201 15.16 14.2201C15.28 14.2201 15.34 14.3534 15.34 14.6201C15.3534 15.4068 15.4 15.8601 15.48 15.9801C15.5734 16.1134 15.86 16.1801 16.34 16.1801L26.2 16.1801C27.3067 16.1801 28 15.9534 28.28 15.5001C28.4134 15.2868 28.48 14.9068 28.48 14.3601C28.48 14.0134 28.5467 13.8401 28.68 13.8401C28.8 13.8401 28.86 13.9401 28.86 14.1401C28.86 14.4068 28.8534 14.7468 28.84 15.1601C28.8267 15.5734 28.82 15.7934 28.82 15.8201C28.82 15.8601 28.8267 16.0468 28.84 16.3801C28.84 16.8201 28.8467 17.2468 28.86 17.6601L18.6 24.5601L27.5 24.5601C27.9134 24.5601 28.16 24.5534 28.24 24.5401C28.3334 24.5268 28.4 24.4734 28.44 24.3801C28.4934 24.2868 28.52 23.9668 28.52 23.4201C28.52 22.9401 28.58 22.7001 28.7 22.7001C28.8334 22.7001 28.9 22.8601 28.9 23.1801L28.9 23.8801C28.9 24.0534 28.9 24.2401 28.9 24.4401C28.8867 24.6534 28.88 24.7801 28.88 24.8201C28.88 24.8334 28.8867 24.9534 28.9 25.1801C28.9 25.3934 28.9 25.5934 28.9 25.7801L28.9 26.4001C28.9 26.6934 28.8334 26.8401 28.7 26.8401Z" fill="#EE562B"/>
</g>
<defs>
<filter id="filter0_d_37_122" x="0.599854" y="0" width="288.4" height="622" filterUnits="userSpaceOnUse" color-interpolation-filters="sRGB">
<feFlood flood-opacity="0" result="BackgroundImageFix"/>
<feColorMatrix in="SourceAlpha" type="matrix" values="0 0 0 0 0 0 0 0 0 0 0 0 0 0 0 0 0 0 127 0" result="hardAlpha"/>
<feOffset/>
<feGaussianBlur stdDeviation="6"/>
<feComposite in2="hardAlpha" operator="out"/>
<feColorMatrix type="matrix" values="0 0 0 0 0 0 0 0 0 0 0 0 0 0 0 0 0 0 0.35 0"/>
<feBlend mode="normal" in2="BackgroundImageFix" result="effect1_dropShadow_37_122"/>
<feBlend mode="normal" in="SourceGraphic" in2="effect1_dropShadow_37_122" result="shape"/>
</filter>
</defs>
</svg>
