<svg width="376" height="194" viewBox="0 0 376 194" fill="none" xmlns="http://www.w3.org/2000/svg">
<g clip-path="url(#clip0_37_123)">
<path d="M83.0171 110.751C87.5168 110.751 91.9898 110.751 96.4894 110.751C96.7823 110.751 97.1285 110.644 97.3681 110.751C97.661 110.884 97.9006 111.176 98.1668 111.389C97.9006 111.655 97.6609 112.001 97.3148 112.187C97.0752 112.32 96.7291 112.187 96.4362 112.187C87.9694 112.187 79.5292 112.16 71.0624 112.16C69.1188 112.16 68.7727 112.426 68.7461 114.288C68.6928 116.522 68.6928 118.783 68.7461 121.017C68.7727 122.906 69.0922 123.172 71.0358 123.172C79.1831 123.172 87.357 123.172 95.5043 123.172C96.17 123.172 96.8622 123.145 97.5012 123.331C97.8207 123.411 98.2201 123.969 98.1935 124.289C98.1935 124.581 97.7142 124.98 97.3681 125.113C97.0486 125.246 96.6226 125.113 96.2498 125.113C87.8629 125.113 79.476 125.113 71.0891 125.113C69.1721 125.113 68.7461 125.486 68.7195 127.48C68.6928 129.954 68.7195 132.427 68.7195 134.874C68.7195 135.406 68.826 135.965 68.6396 136.444C68.5065 136.869 68.1071 137.401 67.7343 137.507C67.0154 137.694 66.6427 137.108 66.6427 136.444C66.6161 133.97 66.6161 131.523 66.6161 129.05C66.6161 126.443 65.2937 125.149 62.6489 125.166C54.9276 125.166 47.233 125.166 39.5117 125.166C38.6597 125.166 37.2219 125.805 37.1687 124.289C37.1154 122.852 38.5532 123.251 39.4318 123.251C47.5791 123.251 55.753 123.251 63.9003 123.251C66.4031 123.251 66.5894 123.118 66.5894 120.618C66.5894 118.224 66.5628 115.831 66.5894 113.437C66.6161 111.283 67.0687 110.857 69.2786 110.857C73.8315 110.857 78.411 110.857 82.9639 110.857L83.0171 110.751Z" fill="white"/>
<path d="M15.3361 138.039C11.1559 138.039 6.94916 138.039 2.76902 138.039C0.319504 138.039 0.0266251 137.747 0 135.353C0 132.374 0 129.369 0 126.39C0 124.342 0.426014 123.89 2.5294 123.89C11.1293 123.89 19.7558 123.863 28.3558 123.89C30.8851 123.89 31.391 124.448 31.4177 126.948C31.4443 129.715 31.4443 132.481 31.4177 135.247C31.391 137.534 30.9118 138.013 28.622 138.039C24.2022 138.093 19.7825 138.039 15.3627 138.039H15.3361ZM15.3094 136.47C19.2766 136.47 23.2437 136.497 27.2109 136.47C29.261 136.47 29.5273 136.124 29.5539 134.103C29.5805 132.161 29.5539 130.22 29.5539 128.278C29.5539 126.071 29.1279 125.565 26.9979 125.565C19.3032 125.539 11.5819 125.565 3.88727 125.565C2.05013 125.565 1.75726 125.964 1.73064 127.879C1.73064 129.981 1.73064 132.055 1.73064 134.156C1.73064 136.231 1.97026 136.444 4.07364 136.444C7.80116 136.444 11.5553 136.444 15.2828 136.444L15.3094 136.47Z" fill="white"/>
<path d="M134.963 26.6771C134.351 28.0601 133.552 27.9005 132.806 27.9005C124.127 27.9005 115.447 27.9005 106.74 27.9005C106.448 27.9005 106.128 27.9005 105.835 27.9005C103.998 27.741 103.439 27.209 103.386 25.3738C103.332 22.4481 103.386 19.549 103.386 16.6233C103.386 12.5008 103.386 8.40479 103.386 4.28222C103.386 3.61729 103.386 2.92577 103.466 2.26084C103.652 0.957573 104.184 0.425629 105.489 0.239449C106.075 0.159657 106.687 0.186254 107.273 0.186254C114.675 0.186254 122.103 0.186254 129.505 0.186254C130.49 0.186254 131.449 0.159657 132.434 0.106463C134.484 7.40221e-05 135.469 0.824587 135.549 2.95236C135.629 5.10674 135.549 7.28771 135.549 9.46868C135.549 10.4528 135.602 11.4103 135.549 12.3944C135.416 14.1764 134.803 14.7881 132.993 14.8147C130.81 14.8413 128.653 14.7881 126.47 14.7615C120.639 14.7615 114.781 14.7615 108.95 14.7615C108.285 14.7615 107.593 14.7615 106.927 14.7881C105.862 14.8147 105.196 15.3467 105.17 16.4105C105.116 19.2564 105.17 22.1024 105.17 24.9217C105.17 25.8526 105.755 26.2515 106.634 26.2781C107.22 26.2781 107.832 26.3047 108.418 26.3047C116.432 26.3047 124.446 26.3047 132.46 26.3047C133.232 26.3047 133.978 26.5175 134.936 26.6505L134.963 26.6771ZM119.201 13.1657C123.168 13.1657 127.135 13.1923 131.102 13.1657C133.206 13.1657 133.579 12.7401 133.579 10.639C133.579 8.77715 133.579 6.88875 133.579 5.02695C133.579 2.34063 133.259 2.02146 130.65 2.02146C125.405 2.02146 120.16 2.02146 114.914 2.02146C112.518 2.02146 110.122 2.02146 107.726 2.02146C105.356 2.04806 105.143 2.28743 105.116 4.57479C105.116 6.59618 105.116 8.61757 105.116 10.639C105.116 12.9529 105.303 13.1391 107.726 13.1657C111.533 13.1657 115.367 13.1657 119.201 13.1657Z" fill="white"/>
<path d="M30.7786 -0.000365628C39.9909 -0.000365628 49.2032 -0.000365628 58.4155 -0.000365628C59.2409 -0.000365628 60.0663 0.0262316 60.8384 0.292204C61.2112 0.398592 61.504 1.03693 61.5839 1.48908C61.6105 1.67526 60.9981 2.12741 60.6254 2.1806C59.9864 2.31359 59.2941 2.2604 58.6019 2.2604C50.5877 2.2604 42.5736 2.2604 34.5594 2.2604C34.1866 2.2604 33.8139 2.2338 33.4411 2.2604C32.1099 2.39338 31.7904 2.73915 31.7371 4.1222C31.6839 5.61164 31.7371 7.10109 31.7371 8.61713C31.7371 13.9898 31.7371 19.389 31.7371 24.7616C31.7371 25.4266 31.7371 26.1181 31.5774 26.7564C31.5241 27.0224 31.0183 27.4479 30.8319 27.3948C30.4858 27.315 30.0331 26.9692 29.9266 26.65C29.7669 26.0915 29.8201 25.4798 29.8201 24.868C29.8201 18.2985 29.8201 11.7024 29.8201 5.13289C29.8201 4.68074 29.8201 4.22859 29.8201 3.77644C29.8201 2.73915 29.261 2.28699 28.2759 2.2604C27.7434 2.2604 27.2375 2.2604 26.705 2.2604C18.611 2.2604 10.5435 2.2604 2.44951 2.2604C2.07675 2.2604 1.65076 2.36679 1.33126 2.2338C0.852004 2.02102 0.426002 1.64866 0 1.32949C0.372752 0.903939 0.692239 0.318801 1.17149 0.13262C1.75724 -0.106754 2.50275 -0.000365628 3.16838 -0.000365628C12.3807 -0.000365628 21.593 -0.000365628 30.8053 -0.000365628H30.7786Z" fill="white"/>
<path d="M66.3501 0.372286C67.8944 0.984022 67.8677 1.91492 67.8677 2.79263C67.8677 5.34596 67.8411 7.8727 67.8677 10.426C67.8677 12.7134 68.3203 13.1123 70.6634 13.1123C78.5976 13.1123 86.5319 13.1123 94.4662 13.1123C95.052 13.1123 95.6644 13.1123 96.2501 13.1123C97.395 13.1123 98.1139 13.6709 98.1405 14.8678C98.1671 18.5914 98.1671 22.3416 98.1405 26.0652C98.1405 26.6769 97.9541 27.4216 97.182 27.2355C96.7826 27.1291 96.33 26.4109 96.3034 25.9322C96.2235 23.6182 96.2767 21.3043 96.2767 18.9903C96.2767 18.3254 96.33 17.6339 96.2767 16.9689C96.1702 15.0273 95.5845 14.4688 93.6409 14.4688C86.7449 14.4688 79.8757 14.4688 72.9798 14.4688C72.0745 14.4688 71.1959 14.4422 70.2906 14.4688C68.4268 14.4954 67.8677 15.0007 67.8411 16.8891C67.8145 19.5755 67.8944 22.2618 67.8411 24.9481C67.8411 25.8524 68.134 27.3153 66.9092 27.3418C65.4981 27.395 65.9507 25.9056 65.9507 25.0545C65.9241 17.6605 65.9241 10.2664 65.9507 2.84583C65.9507 2.07451 66.1904 1.30319 66.3501 0.319092V0.372286Z" fill="white"/>
<path d="M345.567 194C336.728 194 327.915 194 319.075 194C318.623 194 318.17 194 317.718 194C316.12 193.894 315.135 193.122 315.082 191.553C314.975 187.962 314.975 184.372 315.002 180.781C315.002 180.462 315.428 180.116 315.667 179.797C315.987 180.143 316.546 180.462 316.546 180.834C316.599 183.441 316.546 186.074 316.546 188.681C316.546 191.34 316.812 191.606 319.528 191.606C327.01 191.606 334.491 191.606 342 191.606C344.21 191.606 344.423 191.393 344.449 189.159C344.449 186.686 344.449 184.212 344.449 181.765C344.449 181.26 344.449 180.701 344.582 180.223C344.662 179.93 345.115 179.584 345.355 179.584C345.727 179.611 346.26 179.877 346.393 180.169C346.606 180.622 346.553 181.18 346.553 181.712C346.553 184.319 346.526 186.952 346.553 189.558C346.553 191.234 346.872 191.58 348.496 191.58C356.351 191.58 364.232 191.58 372.086 191.58C373.63 191.58 373.897 191.26 373.897 189.691C373.923 187.298 373.897 184.904 373.897 182.51C373.897 182.058 373.897 181.606 373.897 181.154C373.897 180.382 373.95 179.505 374.988 179.558C376.027 179.611 375.973 180.489 375.973 181.26C375.973 184.398 375.973 187.537 375.92 190.675C375.894 193.096 374.882 194 372.459 194C364.738 194 357.043 194 349.322 194C348.044 194 346.792 194 345.514 194H345.567Z" fill="white"/>
<path d="M133.205 179.026C142.098 179.026 151.018 179.026 159.91 179.026C160.363 179.026 160.816 179.026 161.268 179.026C163.318 179.132 163.798 179.558 163.798 181.579C163.798 184.558 163.798 187.564 163.798 190.542C163.798 190.995 163.851 191.473 163.665 191.872C163.505 192.218 163.079 192.644 162.759 192.644C162.44 192.644 161.961 192.245 161.827 191.899C161.641 191.447 161.694 190.862 161.694 190.356C161.694 187.883 161.721 185.436 161.694 182.962C161.694 180.967 161.322 180.675 159.298 180.675C152.029 180.675 144.787 180.675 137.519 180.675C137.146 180.675 136.773 180.675 136.4 180.675C134.883 180.781 134.563 181.074 134.537 182.59C134.483 185.143 134.537 187.67 134.537 190.223C134.537 190.808 134.537 191.42 134.404 192.005C134.35 192.245 134.031 192.59 133.844 192.59C133.525 192.59 133.046 192.351 132.966 192.112C132.753 191.58 132.7 190.941 132.7 190.356C132.7 188.042 132.7 185.728 132.7 183.414C132.7 181.074 132.353 180.702 129.957 180.702C123.061 180.702 116.192 180.702 109.296 180.702C108.471 180.702 107.645 180.675 106.82 180.702C105.249 180.781 104.876 181.154 104.876 182.776C104.85 185.383 104.903 188.016 104.876 190.622C104.876 191.367 105.169 192.537 103.971 192.564C102.8 192.564 102.986 191.447 102.986 190.675C102.986 187.83 102.986 184.984 102.986 182.164C102.986 179.398 103.332 179.052 106.074 179.052C115.127 179.052 124.18 179.052 133.232 179.052L133.205 179.026Z" fill="white"/>
<path d="M81.7393 179.026C86.0791 179.026 90.419 179.026 94.7589 179.026C97.0753 179.026 97.5013 179.451 97.5013 181.792C97.5013 184.691 97.5013 187.617 97.5013 190.516C97.5013 192.803 97.0221 193.309 94.7589 193.309C86.3188 193.309 77.852 193.309 69.4118 193.309C69.0391 193.309 68.6663 193.309 68.2936 193.282C66.4831 193.122 66.0571 192.75 66.0038 190.941C65.9506 187.723 65.9506 184.532 66.0038 181.313C66.0304 179.505 66.4298 179.079 68.2936 179.079C72.7666 179.026 77.2662 179.079 81.7659 179.079L81.7393 179.026ZM81.8457 191.58C85.733 191.58 89.6203 191.58 93.5076 191.58C95.3447 191.58 95.5843 191.314 95.6109 189.505C95.6109 187.404 95.6109 185.329 95.6109 183.228C95.6109 180.941 95.3713 180.675 93.0283 180.675C86.372 180.675 79.7157 180.675 73.0861 180.675C72.1276 180.675 71.1425 180.622 70.1839 180.675C68.3734 180.728 67.9474 181.154 67.9208 182.936C67.9208 184.957 67.9208 186.978 67.9208 188.973C67.9208 191.34 68.1072 191.553 70.4502 191.553C74.2576 191.553 78.065 191.553 81.8724 191.553L81.8457 191.58Z" fill="white"/>
<path d="M2.75886e-05 166.711C0.639031 165.514 1.62416 165.78 2.47616 165.78C10.9962 165.78 19.5429 165.78 28.0629 165.78C38.3136 165.78 48.5643 165.78 58.8149 165.78C59.8001 165.78 60.9449 165.408 61.6372 166.498C61.4774 167.642 60.6254 167.509 59.9066 167.509C58.0428 167.536 56.1524 167.509 54.2887 167.509C47.7122 167.509 41.1092 167.509 34.5328 167.509C31.9768 167.509 31.7904 167.642 31.7638 170.328C31.7638 176.978 31.7638 183.627 31.7638 190.276C31.7638 191.021 31.6839 191.766 31.4975 192.457C31.4443 192.67 30.9118 192.883 30.5923 192.909C30.4059 192.909 30.0332 192.59 30.0065 192.351C29.8734 191.686 29.8202 191.021 29.8202 190.356C29.8202 183.866 29.8202 177.35 29.8202 170.86C29.8202 170.275 29.8202 169.664 29.7935 169.078C29.7669 168.094 29.261 167.562 28.2493 167.536C27.6635 167.536 27.0512 167.536 26.4654 167.536C18.5311 167.536 10.5968 167.536 2.66254 167.536C1.75729 167.536 0.692281 167.855 -0.0532227 166.711H2.75886e-05Z" fill="white"/>
<path d="M184.725 179.026C188.852 179.026 192.952 179.026 197.079 179.026C197.612 179.026 198.144 179.026 198.65 179.079C199.955 179.239 200.407 179.638 200.434 180.914C200.487 184.345 200.487 187.803 200.434 191.234C200.407 192.67 199.928 193.229 198.543 193.255C189.411 193.309 180.279 193.309 171.146 193.255C169.708 193.255 169.149 192.59 169.123 191.101C169.043 187.75 169.069 184.372 169.123 181.021C169.123 179.531 169.682 179.106 171.492 179.079C174.634 179.026 177.776 179.079 180.918 179.079C182.196 179.079 183.474 179.079 184.725 179.079V179.026ZM184.512 191.58C184.885 191.58 185.258 191.58 185.63 191.58C189.145 191.58 192.659 191.606 196.174 191.58C198.33 191.58 198.65 191.234 198.65 189.133C198.65 187.191 198.65 185.25 198.65 183.308C198.65 181.1 198.251 180.675 196.067 180.675C188.293 180.675 180.518 180.675 172.744 180.675C171.146 180.675 170.933 180.888 170.907 182.484C170.853 184.877 170.853 187.271 170.907 189.638C170.933 191.394 171.12 191.553 172.85 191.553C176.737 191.553 180.625 191.553 184.512 191.553V191.58Z" fill="white"/>
<path d="M294.074 179.026C298.255 179.026 302.461 179.026 306.641 179.026C309.304 179.026 309.57 179.345 309.57 182.031C309.57 184.877 309.57 187.723 309.57 190.542C309.57 192.697 309.064 193.255 306.934 193.282C298.255 193.335 289.575 193.335 280.895 193.282C278.738 193.282 278.126 192.59 278.099 190.383C278.046 187.697 278.099 185.01 278.099 182.324C278.099 179.372 278.419 179.026 281.507 179.026C285.688 179.026 289.894 179.026 294.074 179.026ZM293.888 191.58C297.855 191.58 301.822 191.58 305.789 191.58C307.653 191.58 307.813 191.34 307.813 189.479C307.813 187.377 307.813 185.303 307.813 183.202C307.813 181.021 307.547 180.755 305.363 180.728C301.396 180.702 297.429 180.728 293.462 180.728C289.788 180.728 286.114 180.728 282.466 180.728C280.07 180.728 279.883 180.941 279.883 183.255C279.883 185.196 279.883 187.138 279.883 189.08C279.883 191.447 280.016 191.58 282.439 191.58C286.247 191.58 290.081 191.58 293.888 191.58Z" fill="white"/>
<path d="M206.664 193.122C205.573 192.697 205.679 191.872 205.679 191.154C205.679 183.68 205.652 176.207 205.679 168.706C205.679 166.472 206.451 165.754 208.714 165.754C217.554 165.754 226.393 165.754 235.233 165.754C236.032 165.754 236.884 165.674 237.336 166.711C236.644 167.749 235.632 167.509 234.7 167.509C226.846 167.509 218.965 167.509 211.111 167.509C208.679 167.509 207.463 168.697 207.463 171.073C207.463 177.51 207.463 183.946 207.463 190.383C207.463 191.314 207.703 192.351 206.664 193.122Z" fill="white"/>
<path d="M242.448 193.734C242.235 192.697 241.996 192.005 241.996 191.34C241.969 183.787 241.969 176.233 241.996 168.679C241.996 166.312 242.555 165.78 244.951 165.78C253.791 165.78 262.63 165.78 271.47 165.78C272.135 165.78 272.801 166.073 273.547 166.259C273.067 167.748 272.082 167.562 271.23 167.562C263.136 167.562 255.042 167.562 246.975 167.562C246.815 167.562 246.682 167.562 246.522 167.562C244.019 167.562 243.806 167.722 243.806 170.195C243.806 177.004 243.806 183.813 243.806 190.622C243.806 191.633 244.019 192.723 242.475 193.814L242.448 193.734Z" fill="white"/>
<path d="M31.2018 55.668C40.5472 55.668 49.9192 55.668 59.2647 55.668C62.0337 55.668 62.2999 55.9073 62.2999 58.7798C62.2999 61.014 62.2999 63.2748 62.2999 65.5089C62.2999 70.2964 62.2999 75.0839 62.2999 79.8714C62.2999 80.4565 62.3532 81.0949 62.1934 81.6534C62.1135 81.9992 61.6343 82.4513 61.368 82.4513C61.0485 82.4513 60.5959 82.0258 60.4628 81.68C60.2764 81.2013 60.3297 80.6427 60.3297 80.1374C60.3297 77.7436 60.3297 75.3499 60.3297 72.9561C60.3297 70.3496 59.9569 69.9506 57.3743 69.9506C41.0531 69.9506 24.7319 69.9506 8.41068 69.9506C7.0528 69.9506 5.72154 69.9506 4.36366 69.9506C2.20703 69.9772 1.80765 70.4028 1.78102 72.6104C1.78102 75.0041 1.78102 77.3979 1.78102 79.7916C1.78102 80.3236 1.88753 80.8821 1.70115 81.3343C1.56802 81.7332 1.08877 81.9992 0.769264 82.3184C0.529638 81.9726 0.210141 81.68 0.0770153 81.3077C-0.0561103 80.9619 0.0237639 80.5629 0.0237639 80.1906C0.0237639 72.8763 0.0237639 65.5355 0.0237639 58.2213C0.0237639 58.1415 0.0237639 58.0617 0.0237639 58.0085C0.0770141 55.9871 0.423139 55.6414 2.3934 55.6414C9.2893 55.6414 16.1586 55.6414 23.0545 55.668C25.7436 55.668 28.4328 55.668 31.1485 55.668H31.2018ZM30.8823 68.0623C39.8017 68.0623 48.6945 68.0623 57.6139 68.0623C60.09 68.0623 60.3829 67.7963 60.4095 65.4291C60.4095 63.5673 60.4095 61.6789 60.4095 59.8171C60.3829 57.45 60.0368 57.1308 57.6405 57.1308C40.0413 57.1308 22.4687 57.1308 4.86954 57.1308C4.41691 57.1308 3.96429 57.1308 3.51166 57.1308C2.55315 57.184 1.94077 57.6627 1.91415 58.6468C1.88752 61.2534 1.91415 63.8865 1.91415 66.493C1.91415 67.4771 2.52652 67.9825 3.48503 68.0091C4.01753 68.0091 4.52341 68.0091 5.05591 68.0091C13.6558 68.0091 22.2824 68.0091 30.8823 68.0091V68.0623Z" fill="white"/>
<path d="M195.213 55.6678C199.633 55.6678 204.053 55.6678 208.473 55.6678C210.896 55.6678 211.375 56.0934 211.375 58.5403C211.375 65.6418 211.375 72.7432 211.375 79.8447C211.375 82.4512 210.869 82.9566 208.18 82.9566C199.42 82.9566 190.66 82.9566 181.901 82.9566C179.531 82.9566 179.318 82.7438 179.291 80.4032C179.265 77.2648 179.238 74.1263 179.291 70.9878C179.318 68.7271 179.638 68.3547 181.901 68.3015C186.853 68.2217 191.779 68.2483 196.731 68.2483C200.112 68.2483 203.467 68.2483 206.848 68.2483C208.952 68.2483 209.271 67.9557 209.298 65.7748C209.298 63.7534 209.298 61.732 209.298 59.7106C209.271 57.4233 208.952 57.1307 206.689 57.1307C198.515 57.1307 190.368 57.1307 182.194 57.1307C181.608 57.1307 180.969 57.1839 180.41 57.0509C180.17 56.9977 179.904 56.5721 179.851 56.2796C179.824 56.12 180.17 55.7742 180.41 55.721C180.836 55.6146 181.288 55.6678 181.741 55.6678C186.241 55.6678 190.714 55.6678 195.213 55.6678ZM195.187 81.4405C199.154 81.4405 203.121 81.4405 207.088 81.4405C208.899 81.4405 209.218 81.1746 209.271 79.4191C209.325 77.0254 209.351 74.6316 209.271 72.2379C209.218 70.3495 208.712 69.8973 206.822 69.8973C203.094 69.8973 199.34 69.8973 195.613 69.8973C191.646 69.8973 187.678 69.8707 183.711 69.8973C181.581 69.8973 181.022 70.4559 181.022 72.5039C181.022 74.6582 181.022 76.8392 181.022 78.9936C181.022 81.148 181.315 81.3873 183.525 81.3873C187.412 81.3873 191.299 81.3873 195.187 81.3873V81.4405Z" fill="white"/>
<path d="M99.2833 56.9712C98.2449 57.1308 97.4728 57.3436 96.7273 57.3436C88.6333 57.3436 80.5392 57.3436 72.4452 57.3436C71.9127 57.3436 71.4068 57.3436 70.8743 57.3968C69.9957 57.4765 69.4898 57.9287 69.4898 58.833C69.4898 61.3863 69.4898 63.9131 69.4898 66.4664C69.4898 67.4771 70.1022 67.9292 71.0341 68.0356C71.4068 68.0888 71.7796 68.0622 72.1523 68.0622C79.8736 68.0622 87.5949 68.0622 95.2895 68.0622C95.5824 68.0622 95.9019 68.0622 96.1948 68.0622C99.3632 68.0888 99.8425 68.5676 99.8158 71.706C99.8158 74.4722 99.8158 77.2383 99.8158 80.0044C99.8158 82.6375 99.31 83.1694 96.6741 83.1694C88.2872 83.1694 79.9002 83.1694 71.5133 83.1694C70.7678 83.1694 70.0223 83.1694 69.2768 83.1694C68.6378 83.1694 67.9988 83.0365 68.0254 82.2385C68.0521 81.414 68.7443 81.414 69.3567 81.3874C69.8093 81.3874 70.2619 81.3874 70.7146 81.3874C78.9683 81.3874 87.1955 81.3874 95.4493 81.3874C97.4728 81.3874 97.7657 81.1215 97.7923 79.0469C97.8189 76.8127 97.8456 74.5519 97.7923 72.3178C97.7657 70.323 97.2332 69.8708 95.2097 69.8708C87.1156 69.8708 79.0216 69.8708 70.9276 69.8708C70.5548 69.8708 70.1821 69.8708 69.8093 69.8708C68.1852 69.7645 67.8124 69.4985 67.7592 67.8495C67.6793 65.3759 67.7059 62.9024 67.7059 60.4554C67.7059 59.4181 67.6793 58.3542 67.7592 57.317C67.8923 55.8009 68.1586 55.5615 69.7294 55.5349C73.8563 55.5349 77.9832 55.5349 82.0835 55.5349C86.9559 55.5349 91.8283 55.5349 96.7007 55.5349C97.5793 55.5349 98.5112 55.402 99.2833 56.918V56.9712Z" fill="white"/>
<path d="M120.583 68.3548C124.551 68.3548 128.518 68.3548 132.485 68.3548C133.071 68.3548 133.683 68.3548 134.269 68.408C135.786 68.6207 136.425 69.2325 136.452 70.7485C136.505 74.0998 136.505 77.4776 136.452 80.8289C136.425 82.5311 135.813 83.0896 134.082 83.1428C131.686 83.2226 129.29 83.1428 126.894 83.1428C120.983 83.1428 115.072 83.1428 109.161 83.1428C106.685 83.1428 106.312 83.5152 106.312 85.9887C106.312 88.1431 106.312 90.3241 106.312 92.4784C106.312 92.9306 106.339 93.3827 106.312 93.8349C106.259 94.5796 106.232 95.5105 105.247 95.4839C104.209 95.4573 104.369 94.4466 104.315 93.7551C104.262 93.2232 104.315 92.7178 104.315 92.1859C104.315 85.7759 104.315 79.3394 104.315 72.9295C104.315 72.3444 104.315 71.7326 104.315 71.1475C104.449 69.2059 105.141 68.4878 107.111 68.3814C108.442 68.3016 109.8 68.3548 111.158 68.3548C114.3 68.3548 117.442 68.3548 120.583 68.3548ZM120.317 81.414C124.284 81.414 128.251 81.414 132.192 81.414C134.428 81.414 134.668 81.148 134.695 78.9937C134.695 76.8925 134.721 74.8179 134.695 72.7167C134.695 70.9347 134.242 70.4559 132.458 70.3762C131.26 70.323 130.062 70.3762 128.864 70.3762C122.208 70.3762 115.551 70.3762 108.895 70.3762C106.738 70.3762 106.286 70.8283 106.259 73.0093C106.259 74.9509 106.259 76.8925 106.259 78.8341C106.259 81.1746 106.525 81.414 108.815 81.414C112.622 81.414 116.43 81.414 120.264 81.414H120.317Z" fill="white"/>
<path d="M238.426 69.9507C234.539 69.9507 230.625 69.9507 226.737 69.9507C226.152 69.9507 225.513 70.0039 224.954 69.8178C224.607 69.7114 224.394 69.2592 224.128 68.9401C224.421 68.6741 224.714 68.2219 225.06 68.1421C225.699 68.0092 226.391 68.0357 227.084 68.0357C234.805 68.0357 242.526 68.0357 250.221 68.0357C250.673 68.0357 251.126 68.0357 251.579 68.0357C253.176 67.9294 253.549 67.6102 253.602 65.9878C253.655 63.5142 253.602 61.0407 253.602 58.5937C253.602 58.0086 253.602 57.3969 253.789 56.8383C253.868 56.5724 254.321 56.2798 254.614 56.2798C254.907 56.2798 255.306 56.599 255.413 56.8915C255.572 57.3703 255.572 57.9288 255.572 58.4342C255.572 60.7481 255.572 63.0621 255.572 65.4026C255.572 67.7964 255.839 68.0623 258.315 68.0623C266.169 68.0623 274.05 68.0623 281.905 68.0623C282.65 68.0623 283.422 68.0357 284.141 68.1687C284.487 68.2485 284.754 68.7007 285.046 68.9667C284.78 69.2592 284.541 69.738 284.194 69.8178C283.555 69.9773 282.863 69.9242 282.198 69.9242C274.343 69.9242 266.462 69.9242 258.608 69.9242C255.892 69.9242 255.546 70.2965 255.572 73.0626C255.572 75.3766 255.572 77.6905 255.572 80.0311C255.572 80.563 255.599 81.1216 255.413 81.5737C255.28 81.8929 254.827 82.2121 254.454 82.2653C254.241 82.2919 253.815 81.8663 253.735 81.6003C253.576 81.1216 253.602 80.563 253.602 80.0577C253.602 77.7437 253.602 75.4298 253.602 73.0892C253.602 70.2965 253.283 69.9508 250.567 69.9242C246.52 69.9242 242.473 69.9242 238.426 69.9242V69.9507Z" fill="white"/>
<path d="M158.657 68.1687C162.544 68.1687 166.458 68.1687 170.345 68.1687C173.7 68.1687 174.019 68.5145 174.019 71.9455C174.019 74.6318 174.019 77.3447 174.019 80.0311C174.019 80.4832 174.099 80.962 173.966 81.3609C173.833 81.7865 173.513 82.4514 173.194 82.5046C172.422 82.6376 172.289 81.9195 172.235 81.3077C172.182 80.7758 172.209 80.2704 172.209 79.7385C172.209 77.3447 172.209 74.951 172.209 72.5572C172.209 70.1635 171.676 69.6582 169.333 69.6316C161.612 69.6316 153.891 69.6316 146.196 69.6316C144.465 69.6316 143.746 70.2167 143.693 72.0253C143.613 74.4988 143.693 76.9724 143.667 79.4193C143.667 80.0045 143.746 80.6428 143.587 81.2013C143.48 81.6269 143.081 82.2386 142.735 82.2918C141.936 82.4248 141.829 81.7067 141.776 81.0949C141.75 80.6428 141.776 80.1906 141.776 79.7385C141.776 72.7168 141.776 65.6686 141.776 58.6469C141.776 58.0618 141.776 57.45 141.909 56.8649C141.989 56.5989 142.389 56.2266 142.655 56.2266C142.921 56.2266 143.374 56.5457 143.454 56.8117C143.613 57.3702 143.64 57.982 143.64 58.5671C143.64 60.8013 143.64 63.062 143.64 65.2962C143.667 67.7963 144.066 68.1687 146.516 68.1687C150.563 68.1687 154.61 68.1687 158.657 68.1687Z" fill="white"/>
<path d="M217.871 42.8215C218.058 43.5131 218.297 44.0716 218.324 44.6833C218.404 45.8802 218.351 47.0771 218.351 48.274C218.351 58.8064 218.351 69.3389 218.351 79.8714C218.351 80.7757 218.164 81.68 218.084 82.6109C217.925 82.6641 217.738 82.6907 217.578 82.7439C217.286 82.3982 216.886 82.1056 216.753 81.7332C216.593 81.2545 216.647 80.6959 216.647 80.1906C216.647 68.6208 216.647 57.0244 216.647 45.4547C216.647 44.5769 216.327 43.4599 217.871 42.8747V42.8215Z" fill="white"/>
</g>
<defs>
<clipPath id="clip0_37_123">
<rect width="376" height="194" fill="white"/>
</clipPath>
</defs>
</svg>
