<svg width="91" height="21" viewBox="0 0 91 21" fill="none" xmlns="http://www.w3.org/2000/svg">
<path d="M19.001 20.33H2.89104C2.3642 20.3374 1.84537 20.2006 1.39064 19.9345C0.935904 19.6684 0.562583 19.283 0.311041 18.82C0.0390733 18.2911 -0.0580785 17.6896 0.0335679 17.102C0.125214 16.5143 0.400933 15.971 0.821041 15.55L12.001 4.33H4.00104C2.94017 4.33 1.92276 3.90857 1.17261 3.15843C0.422468 2.40828 0.00104071 1.39087 0.00104071 0.33H14.851C15.3779 0.322596 15.8967 0.459359 16.3514 0.7255C16.8062 0.991641 17.1795 1.37703 17.431 1.84C17.703 2.36889 17.8002 2.97043 17.7085 3.55805C17.6169 4.14566 17.3411 4.68905 16.921 5.11L5.70104 16.33H15.001C16.0619 16.33 17.0793 16.7514 17.8295 17.5016C18.5796 18.2517 19.001 19.2691 19.001 20.33ZM82.811 0C81.7127 0.00304573 80.6274 0.238007 79.6262 0.689503C78.625 1.141 77.7304 1.79885 77.001 2.62C76.2716 1.79885 75.3771 1.141 74.3758 0.689503C73.3746 0.238007 72.2893 0.00304573 71.191 0C69.1059 0.0547533 67.1246 0.921718 65.6695 2.41612C64.2143 3.91051 63.4003 5.91416 63.401 8V20.33C63.9263 20.33 64.4465 20.2265 64.9318 20.0255C65.4171 19.8245 65.858 19.5299 66.2295 19.1584C66.6009 18.787 66.8955 18.346 67.0966 17.8607C67.2976 17.3754 67.401 16.8553 67.401 16.33V7.92C67.3865 6.92201 67.7582 5.95701 68.4383 5.22654C69.1185 4.49608 70.0546 4.05663 71.051 4C71.5663 3.97427 72.0814 4.05345 72.5651 4.23274C73.0489 4.41203 73.4912 4.68769 73.8652 5.04301C74.2392 5.39833 74.5372 5.82591 74.741 6.29982C74.9448 6.77373 75.0503 7.28411 75.051 7.8V16.3C75.051 17.3609 75.4725 18.3783 76.2226 19.1284C76.9728 19.8786 77.9902 20.3 79.051 20.3V7.92C79.0358 6.93013 79.4006 5.97207 80.0702 5.24291C80.7398 4.51376 81.6635 4.06895 82.651 4C83.1622 3.9812 83.6719 4.06552 84.1498 4.24793C84.6276 4.43034 85.0639 4.7071 85.4325 5.06172C85.8011 5.41634 86.0945 5.84155 86.2953 6.312C86.4961 6.78245 86.6 7.2885 86.601 7.8V16.3C86.601 17.3609 87.0225 18.3783 87.7726 19.1284C88.5228 19.8786 89.5402 20.3 90.601 20.3V8C90.6018 5.91416 89.7878 3.91051 88.3326 2.41612C86.8774 0.921718 84.8962 0.0547533 82.811 0ZM39.201 10.33C39.1951 12.3659 38.586 14.3543 37.4506 16.0442C36.3152 17.7341 34.7045 19.0496 32.8219 19.8245C30.9393 20.5995 28.8693 20.7992 26.8733 20.3984C24.8773 19.9976 23.0448 19.0143 21.6073 17.5726C20.1698 16.1309 19.1918 14.2956 18.7968 12.2984C18.4018 10.3012 18.6075 8.23179 19.388 6.35146C20.1684 4.47113 21.4886 2.86426 23.1818 1.7338C24.875 0.603344 26.8652 8.63552e-06 28.901 0C30.2558 0.00131149 31.597 0.269618 32.8481 0.789583C34.0991 1.30955 35.2354 2.07097 36.1919 3.03033C37.1485 3.98969 37.9066 5.12818 38.4229 6.3807C38.9393 7.63323 39.2037 8.97523 39.201 10.33ZM35.201 10.33C35.201 9.08398 34.8316 7.86594 34.1393 6.82991C33.447 5.79388 32.4631 4.98639 31.3119 4.50956C30.1608 4.03273 28.8941 3.90797 27.672 4.15105C26.4499 4.39414 25.3273 4.99416 24.4463 5.87523C23.5652 6.7563 22.9652 7.87885 22.7221 9.10093C22.479 10.323 22.6038 11.5897 23.0806 12.7409C23.5574 13.8921 24.3649 14.876 25.4009 15.5683C26.437 16.2605 27.655 16.63 28.901 16.63C30.5711 16.6274 32.172 15.9628 33.3529 14.7819C34.5338 13.6009 35.1984 12.0001 35.201 10.33ZM61.401 10.33C61.3951 12.3659 60.786 14.3543 59.6506 16.0442C58.5152 17.7341 56.9045 19.0496 55.0219 19.8245C53.1393 20.5995 51.0693 20.7992 49.0733 20.3984C47.0773 19.9976 45.2448 19.0143 43.8073 17.5726C42.3698 16.1309 41.3918 14.2956 40.9968 12.2984C40.6018 10.3012 40.8075 8.23179 41.588 6.35146C42.3684 4.47113 43.6886 2.86426 45.3818 1.7338C47.075 0.603344 49.0652 8.63552e-06 51.101 0C52.4558 0.00131149 53.797 0.269618 55.0481 0.789583C56.2991 1.30955 57.4354 2.07097 58.3919 3.03033C59.3485 3.98969 60.1066 5.12818 60.6229 6.3807C61.1393 7.63323 61.4037 8.97523 61.401 10.33ZM57.401 10.33C57.401 9.08398 57.0316 7.86594 56.3393 6.82991C55.647 5.79388 54.6631 4.98639 53.5119 4.50956C52.3608 4.03273 51.0941 3.90797 49.872 4.15105C48.6499 4.39414 47.5273 4.99416 46.6463 5.87523C45.7652 6.7563 45.1652 7.87885 44.9221 9.10093C44.679 10.323 44.8038 11.5897 45.2806 12.7409C45.7574 13.8921 46.5649 14.876 47.6009 15.5683C48.637 16.2605 49.855 16.63 51.101 16.63C52.7711 16.6274 54.372 15.9628 55.5529 14.7819C56.7338 13.6009 57.3984 12.0001 57.401 10.33Z" fill="white"/>
</svg>
