<svg width="129" height="29" viewBox="0 0 129 29" fill="none" xmlns="http://www.w3.org/2000/svg">
<path d="M20.5688 0C20.5688 0 33.4351 0.000156318 36.6421 0.860352C38.413 1.33456 39.8047 2.72616 40.2788 4.49707C41.1321 7.69097 41.1391 14.3447 41.1392 14.3994C41.1392 14.3994 41.1389 21.0945 40.2788 24.3018C39.8048 26.0728 38.4131 27.4653 36.6421 27.9395C33.4351 28.7997 20.5688 28.7998 20.5688 28.7998C20.5378 28.7998 7.70052 28.7985 4.49658 27.9395C2.72541 27.4654 1.33301 26.0729 0.858887 24.3018C-0.00118847 21.0945 -0.00146484 14.3994 -0.00146484 14.3994C-0.00145033 14.3447 0.00223193 7.69097 0.858887 4.49707C1.33307 2.72599 2.72549 1.33445 4.49658 0.860352C7.70037 0.00128509 20.5378 1.25624e-06 20.5688 0ZM16.4517 20.5713L27.1401 14.4004L16.4517 8.23047V20.5713Z" fill="white"/>
<path d="M49.8315 18.7258L45.2122 2.04346H49.2422L50.8611 9.60572C51.2742 11.4683 51.5756 13.0567 51.772 14.3707H51.8905C52.026 13.4292 52.3308 11.851 52.8016 9.63282L54.4779 2.04346H58.5079L53.831 18.7258V26.7284H49.8282V18.7258H49.8315Z" fill="white"/>
<path d="M59.7154 26.1993C58.9026 25.6507 58.3235 24.7972 57.978 23.639C57.636 22.4809 57.4634 20.9434 57.4634 19.0197V16.4018C57.4634 14.4613 57.6598 12.9002 58.0526 11.725C58.4454 10.5499 59.0584 9.68966 59.8915 9.1512C60.7246 8.61273 61.8185 8.3418 63.1732 8.3418C64.5075 8.3418 65.5742 8.61611 66.3802 9.16475C67.1828 9.71336 67.7721 10.5736 68.1446 11.7386C68.5171 12.9069 68.7034 14.4613 68.7034 16.4018V19.0197C68.7034 20.9434 68.5206 22.4876 68.1583 23.6526C67.7958 24.821 67.2066 25.6744 66.3937 26.2129C65.581 26.7514 64.4769 27.0223 63.0851 27.0223C61.6491 27.0256 60.5282 26.7479 59.7154 26.1993ZM64.2738 23.3749C64.4973 22.7857 64.6125 21.8272 64.6125 20.493V14.8746C64.6125 13.5809 64.5007 12.6326 64.2738 12.0366C64.0468 11.4372 63.6507 11.1391 63.0816 11.1391C62.5331 11.1391 62.1436 11.4372 61.9201 12.0366C61.6932 12.636 61.5814 13.5809 61.5814 14.8746V20.493C61.5814 21.8272 61.6897 22.789 61.9066 23.3749C62.1233 23.9642 62.5127 24.2588 63.0816 24.2588C63.6507 24.2588 64.0468 23.9642 64.2738 23.3749Z" fill="white"/>
<path d="M81.8172 26.7313H78.6406L78.2884 24.5233H78.2004C77.3367 26.1895 76.0431 27.0225 74.316 27.0225C73.1205 27.0225 72.2366 26.6297 71.6677 25.8475C71.0987 25.0617 70.8142 23.8358 70.8142 22.1696V8.6943H74.8748V21.9325C74.8748 22.7386 74.9628 23.3108 75.1389 23.653C75.315 23.9949 75.6096 24.1676 76.0228 24.1676C76.375 24.1676 76.7137 24.0593 77.0388 23.8426C77.364 23.6257 77.601 23.3514 77.7601 23.0196V8.69092H81.8172V26.7313Z" fill="white"/>
<path d="M92.8468 5.31058H88.8168V26.7308H84.8443V5.31058H80.8142V2.0459H92.8468V5.31058Z" fill="white"/>
<path d="M102.642 26.7313H99.4651L99.1129 24.5233H99.0249C98.1614 26.1895 96.8677 27.0225 95.1404 27.0225C93.9449 27.0225 93.0611 26.6297 92.4921 25.8475C91.9232 25.0617 91.6387 23.8358 91.6387 22.1696V8.6943H95.6993V21.9325C95.6993 22.7386 95.7873 23.3108 95.9634 23.653C96.1395 23.9949 96.4341 24.1676 96.8474 24.1676C97.1994 24.1676 97.5381 24.0593 97.8633 23.8426C98.1884 23.6257 98.4254 23.3514 98.5846 23.0196V8.69092H102.642V26.7313Z" fill="white"/>
<path d="M116.077 11.5761C115.83 10.4382 115.434 9.61526 114.885 9.10388C114.336 8.59251 113.581 8.33852 112.619 8.33852C111.874 8.33852 111.177 8.54848 110.53 8.97181C109.883 9.39513 109.382 9.94715 109.03 10.6346H108.999V1.13184H105.088V26.7277H108.44L108.853 25.0209H108.942C109.257 25.6305 109.727 26.108 110.354 26.4636C110.98 26.8158 111.678 26.992 112.443 26.992C113.815 26.992 114.828 26.3587 115.474 25.0954C116.121 23.8288 116.446 21.8544 116.446 19.1655V16.3106C116.446 14.2955 116.321 12.714 116.077 11.5761ZM112.355 18.9351C112.355 20.2491 112.301 21.2787 112.193 22.0237C112.084 22.7688 111.905 23.3006 111.647 23.612C111.393 23.927 111.048 24.0828 110.618 24.0828C110.283 24.0828 109.975 24.0049 109.69 23.8457C109.406 23.6899 109.175 23.4529 108.999 23.1413V12.9036C109.135 12.4126 109.372 12.013 109.707 11.698C110.039 11.3831 110.405 11.2273 110.794 11.2273C111.207 11.2273 111.526 11.3898 111.749 11.7116C111.976 12.0367 112.132 12.5785 112.22 13.3439C112.308 14.1093 112.352 15.1964 112.352 16.6085V18.9351H112.355Z" fill="white"/>
<path d="M122.204 19.9743C122.204 21.1325 122.238 21.9995 122.306 22.5787C122.374 23.1577 122.516 23.5777 122.733 23.8453C122.949 24.1094 123.281 24.2414 123.732 24.2414C124.338 24.2414 124.758 24.0044 124.981 23.5337C125.208 23.0629 125.33 22.2773 125.351 21.18L128.852 21.3865C128.873 21.5423 128.883 21.759 128.883 22.0333C128.883 23.6995 128.426 24.9459 127.515 25.7688C126.604 26.5918 125.313 27.0049 123.647 27.0049C121.646 27.0049 120.244 26.3783 119.441 25.122C118.635 23.8656 118.235 21.9251 118.235 19.297V16.1474C118.235 13.4416 118.652 11.4638 119.485 10.2176C120.318 8.97128 121.744 8.34814 123.766 8.34814C125.157 8.34814 126.228 8.60214 126.973 9.11352C127.718 9.62489 128.243 10.4174 128.547 11.4977C128.852 12.578 129.005 14.0681 129.005 15.9713V19.0599H122.204V19.9743ZM122.719 11.474C122.513 11.728 122.377 12.1445 122.306 12.7236C122.238 13.3027 122.204 14.1799 122.204 15.3585V16.6521H125.174V15.3585C125.174 14.2002 125.134 13.3231 125.056 12.7236C124.978 12.1242 124.836 11.7043 124.629 11.457C124.423 11.2132 124.104 11.0879 123.674 11.0879C123.241 11.0913 122.922 11.22 122.719 11.474Z" fill="white"/>
</svg>
